<svg width="33" height="33" viewBox="0 0 33 33" fill="none" xmlns="http://www.w3.org/2000/svg">
<path d="M32.5 16.3711C32.5 25.2076 25.3366 32.3711 16.5 32.3711C7.66344 32.3711 0.500001 25.2076 0.500001 16.3711C0.500002 7.53454 7.66345 0.371092 16.5 0.371092C25.3366 0.371093 32.5 7.53454 32.5 16.3711Z" fill="#00887A"/>
<path d="M10.2563 15.9937L15.0562 11.194C15.1562 11.0939 15.292 11.0377 15.4335 11.0377C15.575 11.0377 15.7107 11.0939 15.8108 11.194C15.9109 11.294 15.9671 11.4298 15.9671 11.5713C15.9671 11.7128 15.9109 11.8485 15.8108 11.9486L11.9209 15.8377L22.3666 15.8377C22.508 15.8377 22.6437 15.8939 22.7437 15.9939C22.8437 16.0939 22.8999 16.2296 22.8999 16.371C22.8999 16.5125 22.8437 16.6481 22.7437 16.7481C22.6437 16.8481 22.508 16.9043 22.3666 16.9043L11.9209 16.9043L15.8108 20.7934C15.9109 20.8935 15.9671 21.0292 15.9671 21.1707C15.9671 21.3123 15.9109 21.448 15.8108 21.5481C15.7107 21.6481 15.575 21.7043 15.4335 21.7043C15.292 21.7043 15.1562 21.6481 15.0562 21.5481L10.2563 16.7483C10.2067 16.6988 10.1674 16.64 10.1406 16.5752C10.1137 16.5105 10.0999 16.4411 10.0999 16.371C10.0999 16.3009 10.1137 16.2315 10.1406 16.1668C10.1674 16.102 10.2067 16.0432 10.2563 15.9937Z" fill="white"/>
</svg>
