<svg width="33" height="33" viewBox="0 0 33 33" fill="none" xmlns="http://www.w3.org/2000/svg">
<path d="M0.5 16.3711C0.5 7.53454 7.66344 0.371094 16.5 0.371094C25.3366 0.371094 32.5 7.53454 32.5 16.3711C32.5 25.2076 25.3366 32.3711 16.5 32.3711C7.66344 32.3711 0.5 25.2076 0.5 16.3711Z" fill="#00887A"/>
<path d="M22.7437 16.7485L17.9438 21.5482C17.8438 21.6483 17.708 21.7045 17.5665 21.7045C17.425 21.7045 17.2893 21.6483 17.1892 21.5482C17.0891 21.4482 17.0329 21.3124 17.0329 21.1709C17.0329 21.0294 17.0891 20.8937 17.1892 20.7936L21.0791 16.9045H10.6334C10.492 16.9045 10.3563 16.8483 10.2563 16.7483C10.1563 16.6483 10.1001 16.5126 10.1001 16.3712C10.1001 16.2297 10.1563 16.0941 10.2563 15.9941C10.3563 15.8941 10.492 15.8379 10.6334 15.8379H21.0791L17.1892 11.9488C17.0891 11.8487 17.0329 11.713 17.0329 11.5714C17.0329 11.4299 17.0891 11.2942 17.1892 11.1941C17.2893 11.0941 17.425 11.0378 17.5665 11.0378C17.708 11.0378 17.8438 11.0941 17.9438 11.1941L22.7437 15.9939C22.7933 16.0434 22.8326 16.1022 22.8594 16.167C22.8863 16.2317 22.9001 16.3011 22.9001 16.3712C22.9001 16.4413 22.8863 16.5107 22.8594 16.5754C22.8326 16.6401 22.7933 16.699 22.7437 16.7485Z" fill="white"/>
</svg>
