<svg width="49" height="49" viewBox="0 0 49 49" fill="none" xmlns="http://www.w3.org/2000/svg">
<path d="M1 8.5C1 4.35787 4.35786 1 8.5 1H40.5C44.6421 1 48 4.35786 48 8.5V40.5C48 44.6421 44.6421 48 40.5 48H8.5C4.35787 48 1 44.6421 1 40.5V8.5Z" fill="#FAFAFA"/>
<path fill-rule="evenodd" clip-rule="evenodd" d="M24.5001 13C18.0217 13 13 17.7454 13 24.1551C13 27.5077 14.374 30.4049 16.6117 32.4059C16.7995 32.5741 16.9129 32.8096 16.9206 33.0616L16.9832 35.1073C17.0032 35.7598 17.6772 36.1844 18.2743 35.9208L20.5569 34.9131C20.7504 34.8278 20.9672 34.8119 21.1711 34.868C22.22 35.1565 23.3364 35.3101 24.5 35.3101C30.9783 35.3101 36.0001 30.5647 36.0001 24.155C36.0001 17.7454 30.9784 13 24.5001 13Z" fill="url(#paint0_radial_827_13342)"/>
<path fill-rule="evenodd" clip-rule="evenodd" d="M17.5942 27.4169L20.9723 22.0575C21.5097 21.2048 22.6603 20.9925 23.4666 21.5972L26.1534 23.6124C26.3999 23.7973 26.7391 23.7963 26.9846 23.61L30.6133 20.8561C31.0976 20.4885 31.7298 21.0681 31.4057 21.5825L28.0276 26.942C27.4902 27.7946 26.3395 28.007 25.5333 27.4022L22.8464 25.3871C22.5999 25.2022 22.2607 25.2032 22.0152 25.3895L18.3865 28.1434C17.9022 28.5109 17.27 27.9313 17.5942 27.4169Z" fill="white"/>
<path d="M1 8.5C1 4.35787 4.35786 1 8.5 1H40.5C44.6421 1 48 4.35786 48 8.5V40.5C48 44.6421 44.6421 48 40.5 48H8.5C4.35787 48 1 44.6421 1 40.5V8.5Z" stroke="#CCCFCF"/>
<defs>
<radialGradient id="paint0_radial_827_13342" cx="0" cy="0" r="1" gradientUnits="userSpaceOnUse" gradientTransform="translate(17.4293 35.7209) scale(25.0486 25.0486)">
<stop stop-color="#0099FF"/>
<stop offset="0.6098" stop-color="#A033FF"/>
<stop offset="0.9348" stop-color="#FF5280"/>
<stop offset="1" stop-color="#FF7061"/>
</radialGradient>
</defs>
</svg>
