<svg width="16" height="17" viewBox="0 0 16 17" fill="none" xmlns="http://www.w3.org/2000/svg">
<path d="M13.3538 7.07717L8.35378 12.0772C8.30735 12.1237 8.2522 12.1605 8.1915 12.1857C8.13081 12.2109 8.06574 12.2238 8.00003 12.2238C7.93433 12.2238 7.86926 12.2109 7.80856 12.1857C7.74786 12.1605 7.69272 12.1237 7.64628 12.0772L2.64628 7.07717C2.55246 6.98335 2.49976 6.8561 2.49976 6.72342C2.49976 6.59074 2.55246 6.46349 2.64628 6.36967C2.7401 6.27585 2.86735 6.22314 3.00003 6.22314C3.13272 6.22314 3.25996 6.27585 3.35378 6.36967L8.00003 11.0165L12.6463 6.36967C12.6927 6.32322 12.7479 6.28637 12.8086 6.26123C12.8693 6.23608 12.9343 6.22314 13 6.22314C13.0657 6.22314 13.1308 6.23608 13.1915 6.26123C13.2522 6.28637 13.3073 6.32322 13.3538 6.36967C13.4002 6.41613 13.4371 6.47128 13.4622 6.53197C13.4874 6.59267 13.5003 6.65773 13.5003 6.72342C13.5003 6.78912 13.4874 6.85417 13.4622 6.91487C13.4371 6.97557 13.4002 7.03072 13.3538 7.07717Z" fill="#5B6060"/>
</svg>
