<svg width="16" height="17" viewBox="0 0 16 17" fill="none" xmlns="http://www.w3.org/2000/svg">
<path d="M2.64622 10.3701L7.64622 5.37006C7.69265 5.32358 7.7478 5.2867 7.8085 5.26153C7.86919 5.23637 7.93426 5.22342 7.99997 5.22342C8.06567 5.22342 8.13074 5.23637 8.19144 5.26153C8.25213 5.2867 8.30728 5.32357 8.35372 5.37006L13.3537 10.3701C13.4475 10.4639 13.5002 10.5911 13.5002 10.7238C13.5002 10.8565 13.4475 10.9837 13.3537 11.0776C13.2599 11.1714 13.1326 11.2241 13 11.2241C12.8673 11.2241 12.74 11.1714 12.6462 11.0776L7.99997 6.43069L3.35372 11.0776C3.30726 11.124 3.25211 11.1609 3.19141 11.186C3.13072 11.2112 3.06566 11.2241 2.99997 11.2241C2.93427 11.2241 2.86921 11.2112 2.80852 11.186C2.74782 11.1609 2.69267 11.124 2.64622 11.0776C2.59976 11.0311 2.56291 10.976 2.53777 10.9153C2.51263 10.8546 2.49969 10.7895 2.49969 10.7238C2.49969 10.6581 2.51263 10.5931 2.53777 10.5324C2.56291 10.4717 2.59976 10.4165 2.64622 10.3701Z" fill="#5B6060"/>
</svg>
