<svg width="12" height="7" viewBox="0 0 12 7" fill="none" xmlns="http://www.w3.org/2000/svg">
<path d="M11.3538 1.07717L6.35378 6.07717C6.30735 6.12366 6.2522 6.16054 6.1915 6.1857C6.13081 6.21086 6.06574 6.22381 6.00003 6.22381C5.93433 6.22381 5.86926 6.21086 5.80856 6.1857C5.74786 6.16054 5.69272 6.12366 5.64628 6.07717L0.646284 1.07717C0.552464 0.983352 0.499756 0.856104 0.499756 0.723422C0.499756 0.590741 0.552464 0.463493 0.646284 0.369672C0.740104 0.275852 0.867352 0.223145 1.00003 0.223145C1.13272 0.223145 1.25996 0.275852 1.35378 0.369672L6.00003 5.01655L10.6463 0.369672C10.6927 0.323217 10.7479 0.286367 10.8086 0.261226C10.8693 0.236084 10.9343 0.223145 11 0.223145C11.0657 0.223145 11.1308 0.236084 11.1915 0.261226C11.2522 0.286367 11.3073 0.323217 11.3538 0.369672C11.4002 0.416127 11.4371 0.471278 11.4622 0.531974C11.4874 0.592671 11.5003 0.657725 11.5003 0.723422C11.5003 0.78912 11.4874 0.854174 11.4622 0.914871C11.4371 0.975567 11.4002 1.03072 11.3538 1.07717Z" fill="#5B6060"/>
</svg>
