<svg width="12" height="12" viewBox="0 0 12 12" fill="none" xmlns="http://www.w3.org/2000/svg">
<path d="M3.40364 3.89324C3.37522 3.82473 3.36775 3.74933 3.38219 3.67657C3.39662 3.60381 3.43231 3.53697 3.48474 3.48449L5.73474 1.23449C5.76957 1.19963 5.81092 1.17197 5.85645 1.1531C5.90197 1.13423 5.95077 1.12451 6.00005 1.12451C6.04933 1.12451 6.09813 1.13423 6.14365 1.1531C6.18918 1.17197 6.23054 1.19963 6.26536 1.23449L8.51536 3.48449C8.56787 3.53694 8.60363 3.60379 8.61812 3.67657C8.63262 3.74935 8.62519 3.82479 8.59678 3.89335C8.56838 3.96191 8.52027 4.0205 8.45855 4.0617C8.39682 4.1029 8.32426 4.12487 8.25005 4.12481H3.75005C3.67588 4.12479 3.60339 4.10278 3.54173 4.06157C3.48007 4.02035 3.43201 3.96177 3.40364 3.89324ZM8.25005 7.87481H3.75005C3.67584 7.87475 3.60328 7.89671 3.54156 7.93791C3.47984 7.97911 3.43172 8.0377 3.40332 8.10626C3.37491 8.17482 3.36748 8.25026 3.38198 8.32305C3.39647 8.39583 3.43223 8.46267 3.48474 8.51512L5.73474 10.7651C5.76957 10.8 5.81092 10.8276 5.85645 10.8465C5.90197 10.8654 5.95077 10.8751 6.00005 10.8751C6.04933 10.8751 6.09813 10.8654 6.14365 10.8465C6.18918 10.8276 6.23054 10.8 6.26536 10.7651L8.51536 8.51512C8.56787 8.46267 8.60363 8.39583 8.61812 8.32305C8.63262 8.25026 8.62519 8.17482 8.59678 8.10626C8.56838 8.0377 8.52027 7.97911 8.45855 7.93791C8.39682 7.89671 8.32426 7.87475 8.25005 7.87481Z" fill="#00887A"/>
</svg>
