<svg width="104" height="104" viewBox="0 0 104 104" fill="none" xmlns="http://www.w3.org/2000/svg">
<g filter="url(#filter0_d_220_28011)">
<path d="M20 24C20 19.5817 23.5817 16 28 16H76C80.4183 16 84 19.5817 84 24V72C84 76.4183 80.4183 80 76 80H28C23.5817 80 20 76.4183 20 72V24Z" fill="#FFF9EC"/>
<path d="M69.3333 36H65.3333V34.6667C65.3333 33.9594 65.0524 33.2811 64.5523 32.781C64.0522 32.281 63.3739 32 62.6667 32H41.3333C40.6261 32 39.9478 32.281 39.4477 32.781C38.9476 33.2811 38.6667 33.9594 38.6667 34.6667V36H34.6667C33.9594 36 33.2811 36.281 32.781 36.781C32.281 37.2811 32 37.9594 32 38.6667V41.3333C32 43.1014 32.7024 44.7971 33.9526 46.0474C34.5717 46.6664 35.3066 47.1575 36.1154 47.4925C36.9243 47.8276 37.7912 48 38.6667 48H39.275C40.0604 50.489 41.5579 52.6934 43.5825 54.3406C45.6071 55.9878 48.0699 57.0056 50.6667 57.2683V61.3333H46.6667C46.313 61.3333 45.9739 61.4738 45.7239 61.7239C45.4738 61.9739 45.3333 62.313 45.3333 62.6667C45.3333 63.0203 45.4738 63.3594 45.7239 63.6095C45.9739 63.8595 46.313 64 46.6667 64H57.3333C57.687 64 58.0261 63.8595 58.2761 63.6095C58.5262 63.3594 58.6667 63.0203 58.6667 62.6667C58.6667 62.313 58.5262 61.9739 58.2761 61.7239C58.0261 61.4738 57.687 61.3333 57.3333 61.3333H53.3333V57.2633C58.6567 56.725 63.0733 52.99 64.68 48H65.3333C67.1014 48 68.7971 47.2976 70.0474 46.0474C71.2976 44.7971 72 43.1014 72 41.3333V38.6667C72 37.9594 71.719 37.2811 71.219 36.781C70.7189 36.281 70.0406 36 69.3333 36ZM38.6667 45.3333C37.6058 45.3333 36.5884 44.9119 35.8382 44.1618C35.0881 43.4116 34.6667 42.3942 34.6667 41.3333V38.6667H38.6667V44C38.6667 44.4444 38.6883 44.8889 38.7317 45.3333H38.6667ZM69.3333 41.3333C69.3333 42.3942 68.9119 43.4116 68.1618 44.1618C67.4116 44.9119 66.3942 45.3333 65.3333 45.3333H65.25C65.3047 44.8408 65.3325 44.3456 65.3333 43.85V38.6667H69.3333V41.3333Z" fill="#FEC240"/>
</g>
<defs>
<filter id="filter0_d_220_28011" x="0" y="0" width="104" height="104" filterUnits="userSpaceOnUse" color-interpolation-filters="sRGB">
<feFlood flood-opacity="0" result="BackgroundImageFix"/>
<feColorMatrix in="SourceAlpha" type="matrix" values="0 0 0 0 0 0 0 0 0 0 0 0 0 0 0 0 0 0 127 0" result="hardAlpha"/>
<feOffset dy="4"/>
<feGaussianBlur stdDeviation="10"/>
<feComposite in2="hardAlpha" operator="out"/>
<feColorMatrix type="matrix" values="0 0 0 0 0 0 0 0 0 0 0 0 0 0 0 0 0 0 0.02 0"/>
<feBlend mode="normal" in2="BackgroundImageFix" result="effect1_dropShadow_220_28011"/>
<feBlend mode="normal" in="SourceGraphic" in2="effect1_dropShadow_220_28011" result="shape"/>
</filter>
</defs>
</svg>
