<svg width="20" height="17" viewBox="0 0 20 17" fill="none" xmlns="http://www.w3.org/2000/svg">
<path d="M11.709 16.3711L11.709 13.084C12.7402 13.0267 13.5208 12.8333 14.0508 12.5039C14.5807 12.1888 14.9531 11.666 15.168 10.9355C15.3828 10.2194 15.4902 9.18815 15.4902 7.8418L11.709 7.8418L11.709 6.78039e-07L19.4648 0L19.4648 7.45508C19.4648 10.5345 18.8132 12.7904 17.5098 14.2227C16.1921 15.6549 14.2585 16.3711 11.709 16.3711ZM0 16.3711L-2.87368e-07 13.084C1.03125 13.0267 1.81185 12.8405 2.3418 12.5254C2.87174 12.2246 3.25846 11.7018 3.50195 10.957C3.73112 10.2266 3.8457 9.18815 3.8457 7.8418L-7.45655e-07 7.8418L-1.43121e-06 1.70167e-06L7.79883 1.01988e-06L7.79883 7.45508C7.79883 10.5345 7.14714 12.7904 5.84375 14.2227C4.54036 15.6549 2.59245 16.3711 0 16.3711Z" fill="#2D3030"/>
</svg>
