<svg width="20" height="17" viewBox="0 0 20 17" fill="none" xmlns="http://www.w3.org/2000/svg">
<path d="M7.75586 0V3.28711C6.72461 3.3444 5.94401 3.53776 5.41406 3.86719C4.88411 4.18229 4.51172 4.70508 4.29688 5.43555C4.08203 6.15169 3.97461 7.18294 3.97461 8.5293H7.75586V16.3711H0V8.91602C0 5.83659 0.651693 3.58073 1.95508 2.14844C3.27279 0.716146 5.20638 0 7.75586 0ZM19.4648 0V3.28711C18.4336 3.3444 17.653 3.5306 17.123 3.8457C16.5931 4.14648 16.2064 4.66927 15.9629 5.41406C15.7337 6.14453 15.6191 7.18294 15.6191 8.5293H19.4648V16.3711H11.666V8.91602C11.666 5.83659 12.3177 3.58073 13.6211 2.14844C14.9245 0.716146 16.8724 0 19.4648 0Z" fill="#2D3030"/>
</svg>
