<svg width="24" height="25" viewBox="0 0 24 25" fill="none" xmlns="http://www.w3.org/2000/svg">
<path d="M0 4.37109C0 2.16196 1.79086 0.371094 4 0.371094H20C22.2091 0.371094 24 2.16195 24 4.37109V20.3711C24 22.5802 22.2091 24.3711 20 24.3711H4C1.79086 24.3711 0 22.5802 0 20.3711V4.37109Z" fill="#E9F6F5"/>
<path d="M12.3333 13.1211H13.5238L14 11.1211H12.3333V10.1211C12.3333 9.60609 12.3333 9.12109 13.2857 9.12109H14V7.44109C13.8448 7.41959 13.2586 7.37109 12.6395 7.37109C11.3467 7.37109 10.4286 8.19959 10.4286 9.72109V11.1211H9V13.1211H10.4286V17.3711H12.3333V13.1211Z" fill="#00887A"/>
</svg>
