<svg width="24" height="25" viewBox="0 0 24 25" fill="none" xmlns="http://www.w3.org/2000/svg">
<path d="M0 4.37109C0 2.16196 1.79086 0.371094 4 0.371094H20C22.2091 0.371094 24 2.16195 24 4.37109V20.3711C24 22.5802 22.2091 24.3711 20 24.3711H4C1.79086 24.3711 0 22.5802 0 20.3711V4.37109Z" fill="#E9F6F5"/>
<path d="M12 10.0634C11.5436 10.0634 11.0974 10.1987 10.7179 10.4523C10.3384 10.7059 10.0426 11.0663 9.86797 11.488C9.69331 11.9097 9.64761 12.3737 9.73665 12.8213C9.82569 13.269 10.0455 13.6801 10.3682 14.0029C10.691 14.3256 11.1021 14.5454 11.5498 14.6344C11.9974 14.7235 12.4614 14.6778 12.8831 14.5031C13.3048 14.3285 13.6652 14.0327 13.9188 13.6532C14.1723 13.2737 14.3077 12.8275 14.3077 12.3711C14.3071 11.7593 14.0637 11.1727 13.6311 10.74C13.1984 10.3074 12.6118 10.064 12 10.0634ZM12 13.9096C11.6957 13.9096 11.3983 13.8193 11.1453 13.6503C10.8923 13.4812 10.6951 13.241 10.5786 12.9598C10.4622 12.6787 10.4317 12.3694 10.4911 12.071C10.5505 11.7725 10.697 11.4984 10.9121 11.2832C11.1273 11.0681 11.4014 10.9216 11.6999 10.8622C11.9983 10.8028 12.3076 10.8333 12.5887 10.9497C12.8699 11.0662 13.1101 11.2634 13.2792 11.5164C13.4482 11.7694 13.5385 12.0668 13.5385 12.3711C13.5385 12.7791 13.3764 13.1704 13.0879 13.459C12.7993 13.7475 12.408 13.9096 12 13.9096ZM14.3077 7.37109H9.69231C8.9785 7.37186 8.29414 7.65576 7.7894 8.1605C7.28466 8.66524 7.00076 9.34959 7 10.0634V14.6788C7.00076 15.3926 7.28466 16.077 7.7894 16.5817C8.29414 17.0864 8.9785 17.3703 9.69231 17.3711H14.3077C15.0215 17.3703 15.7059 17.0864 16.2106 16.5817C16.7153 16.077 16.9992 15.3926 17 14.6788V10.0634C16.9992 9.34959 16.7153 8.66524 16.2106 8.1605C15.7059 7.65576 15.0215 7.37186 14.3077 7.37109ZM16.2308 14.6788C16.2308 15.1888 16.0282 15.678 15.6675 16.0386C15.3069 16.3993 14.8177 16.6019 14.3077 16.6019H9.69231C9.18228 16.6019 8.69313 16.3993 8.33249 16.0386C7.97184 15.678 7.76923 15.1888 7.76923 14.6788V10.0634C7.76923 9.55337 7.97184 9.06423 8.33249 8.70358C8.69313 8.34293 9.18228 8.14032 9.69231 8.14032H14.3077C14.8177 8.14032 15.3069 8.34293 15.6675 8.70358C16.0282 9.06423 16.2308 9.55337 16.2308 10.0634V14.6788ZM15.0769 9.87109C15.0769 9.9852 15.0431 10.0967 14.9797 10.1916C14.9163 10.2865 14.8262 10.3604 14.7208 10.4041C14.6154 10.4478 14.4994 10.4592 14.3874 10.4369C14.2755 10.4147 14.1727 10.3597 14.0921 10.279C14.0114 10.1984 13.9564 10.0956 13.9342 9.98365C13.9119 9.87173 13.9233 9.75573 13.967 9.65031C14.0107 9.5449 14.0846 9.45479 14.1795 9.3914C14.2744 9.32801 14.3859 9.29417 14.5 9.29417C14.653 9.29417 14.7998 9.35495 14.9079 9.46315C15.0161 9.57134 15.0769 9.71808 15.0769 9.87109Z" fill="#00887A"/>
</svg>
