<svg width="49" height="49" viewBox="0 0 49 49" fill="none" xmlns="http://www.w3.org/2000/svg">
<rect x="1" y="1" width="47" height="47" rx="7.5" fill="#FAFAFA"/>
<path d="M12.7526 24.3142C12.752 26.3762 13.295 28.3896 14.3275 30.1643L12.6538 36.2278L18.9075 34.6008C20.6372 35.5351 22.5752 36.0247 24.5446 36.0248H24.5498C31.0512 36.0248 36.3435 30.7755 36.3462 24.3234C36.3475 21.1969 35.1215 18.2569 32.8941 16.045C30.667 13.8334 27.7052 12.6147 24.5493 12.6133C18.0472 12.6133 12.7553 17.8623 12.7526 24.3142" fill="url(#paint0_linear_827_13332)"/>
<path d="M12.3313 24.31C12.3307 26.4463 12.8931 28.5317 13.9625 30.3699L12.2288 36.6508L18.7067 34.9655C20.4916 35.9311 22.5012 36.4402 24.5461 36.441H24.5514C31.286 36.441 36.7684 31.0028 36.7713 24.3197C36.7724 21.0809 35.5023 18.0352 33.1953 15.7441C30.8881 13.4533 27.8202 12.1908 24.5514 12.1895C17.8156 12.1895 12.334 17.6269 12.3313 24.31ZM16.1891 30.0533L15.9472 29.6724C14.9304 28.0682 14.3938 26.2143 14.3945 24.3108C14.3967 18.7559 18.9528 14.2366 24.5552 14.2366C27.2683 14.2377 29.8181 15.2871 31.7358 17.1912C33.6535 19.0954 34.7087 21.6267 34.7081 24.319C34.7056 29.8738 30.1494 34.3938 24.5514 34.3938H24.5474C22.7246 34.3928 20.9369 33.9071 19.3779 32.9892L19.0069 32.7709L15.1627 33.771L16.1891 30.0532V30.0533Z" fill="url(#paint1_linear_827_13332)"/>
<path d="M21.4971 19.2434C21.2683 18.739 21.0276 18.7288 20.8101 18.7199C20.632 18.7123 20.4283 18.7129 20.2249 18.7129C20.0213 18.7129 19.6904 18.7889 19.4108 19.0919C19.1309 19.3951 18.342 20.128 18.342 21.6185C18.342 23.1091 19.4362 24.5496 19.5887 24.752C19.7414 24.9539 21.701 28.1106 24.8045 29.325C27.3837 30.3342 27.9086 30.1334 28.4684 30.0828C29.0283 30.0324 30.275 29.3502 30.5293 28.6427C30.7838 27.9354 30.7838 27.329 30.7075 27.2023C30.6312 27.0761 30.4276 27.0003 30.1222 26.8488C29.8168 26.6973 28.3157 25.9644 28.0358 25.8632C27.7559 25.7622 27.5524 25.7118 27.3488 26.0151C27.1451 26.318 26.5604 27.0003 26.3822 27.2023C26.2042 27.4048 26.0259 27.4301 25.7207 27.2785C25.4152 27.1265 24.4318 26.807 23.2652 25.775C22.3575 24.9719 21.7447 23.9802 21.5666 23.6769C21.3885 23.374 21.5475 23.2098 21.7006 23.0588C21.8378 22.9231 22.0061 22.7051 22.1589 22.5282C22.3111 22.3513 22.3619 22.225 22.4637 22.023C22.5657 21.8208 22.5146 21.6438 22.4384 21.4923C22.3619 21.3408 21.7686 19.8424 21.4971 19.2434Z" fill="white"/>
<rect x="1" y="1" width="47" height="47" rx="7.5" stroke="#CCCFCF"/>
<defs>
<linearGradient id="paint0_linear_827_13332" x1="1197.27" y1="2374.07" x2="1197.27" y2="12.6133" gradientUnits="userSpaceOnUse">
<stop stop-color="#1FAF38"/>
<stop offset="1" stop-color="#60D669"/>
</linearGradient>
<linearGradient id="paint1_linear_827_13332" x1="1239.35" y1="2458.32" x2="1239.35" y2="12.1895" gradientUnits="userSpaceOnUse">
<stop stop-color="#F9F9F9"/>
<stop offset="1" stop-color="white"/>
</linearGradient>
</defs>
</svg>
