<svg width="78" height="31" viewBox="0 0 78 31" fill="none" xmlns="http://www.w3.org/2000/svg">
<path d="M0.5 24.1951V0H16.5557V3.67416H4.97198V10.2428H15.724V13.9169H4.97198V20.521H16.6522V24.1951H0.5Z" fill="#00887A"/>
<path d="M35.5586 10.8453L31.5809 11.2706C31.4684 10.8768 31.2715 10.5066 30.9902 10.1601C30.717 9.81352 30.3473 9.53392 29.8813 9.32126C29.4152 9.10861 28.8446 9.00229 28.1696 9.00229C27.2616 9.00229 26.4981 9.19525 25.8794 9.58117C25.2687 9.9671 24.9673 10.4672 24.9753 11.0816C24.9673 11.6092 25.1642 12.0385 25.566 12.3693C25.9758 12.7001 26.6508 12.9718 27.591 13.1845L30.7491 13.846C32.501 14.2162 33.8028 14.803 34.6546 15.6063C35.5144 16.4097 35.9484 17.4611 35.9564 18.7607C35.9484 19.9027 35.6068 20.9108 34.9318 21.7851C34.2648 22.6514 33.3367 23.3288 32.1474 23.8171C30.9581 24.3054 29.592 24.5495 28.0491 24.5495C25.783 24.5495 23.9588 24.0849 22.5766 23.1555C21.1945 22.2182 20.3708 20.9148 20.1056 19.245L24.3606 18.8434C24.5535 19.6625 24.9633 20.2807 25.5901 20.6982C26.2169 21.1156 27.0325 21.3243 28.037 21.3243C29.0737 21.3243 29.9054 21.1156 30.5322 20.6982C31.167 20.2807 31.4844 19.7649 31.4844 19.1505C31.4844 18.6307 31.2795 18.2015 30.8697 17.8628C30.4679 17.5241 29.8411 17.2642 28.9893 17.0831L25.8312 16.4333C24.0552 16.071 22.7414 15.4606 21.8896 14.6021C21.0378 13.7358 20.6159 12.641 20.6239 11.3178C20.6159 10.1994 20.9252 9.23069 21.552 8.41158C22.1869 7.5846 23.0668 6.94665 24.1918 6.49771C25.3249 6.0409 26.6307 5.8125 28.1093 5.8125C30.279 5.8125 31.9867 6.26537 33.2322 7.17111C34.4858 8.07685 35.2613 9.30158 35.5586 10.8453Z" fill="#00887A"/>
<path d="M39.5545 31V6.04878H43.8456V9.04954H44.0988C44.3238 8.60848 44.6412 8.13986 45.051 7.64367C45.4609 7.13961 46.0153 6.71037 46.7145 6.35594C47.4136 5.99365 48.3056 5.8125 49.3904 5.8125C50.8208 5.8125 52.1106 6.17086 53.2597 6.88758C54.4169 7.59642 55.333 8.64787 56.008 10.0419C56.691 11.4281 57.0326 13.1293 57.0326 15.1456C57.0326 17.1382 56.6991 18.8316 56.0321 20.2256C55.3651 21.6197 54.457 22.6829 53.3079 23.4154C52.1588 24.1479 50.857 24.5141 49.4025 24.5141C48.3417 24.5141 47.4618 24.3408 46.7627 23.9943C46.0636 23.6477 45.501 23.2303 45.0751 22.742C44.6573 22.2458 44.3318 21.7772 44.0988 21.3361H43.918V31H39.5545ZM43.8336 15.122C43.8336 16.2955 44.0023 17.3233 44.3399 18.2054C44.6854 19.0875 45.1796 19.7767 45.8225 20.2729C46.4734 20.7612 47.2609 21.0053 48.185 21.0053C49.1493 21.0053 49.9569 20.7533 50.6079 20.2492C51.2588 19.7373 51.749 19.0403 52.0784 18.1582C52.4159 17.2682 52.5847 16.2561 52.5847 15.122C52.5847 13.9957 52.4199 12.9954 52.0905 12.1212C51.761 11.247 51.2708 10.5617 50.6199 10.0655C49.969 9.56936 49.1574 9.32126 48.185 9.32126C47.2529 9.32126 46.4613 9.56148 45.8104 10.0419C45.1595 10.5224 44.6653 11.1958 44.3278 12.0621C43.9983 12.9285 43.8336 13.9484 43.8336 15.122Z" fill="#00887A"/>
<path d="M67.6399 24.5141C66.1854 24.5141 64.8836 24.1479 63.7345 23.4154C62.5854 22.6829 61.6773 21.6197 61.0103 20.2256C60.3433 18.8316 60.0099 17.1382 60.0099 15.1456C60.0099 13.1293 60.3474 11.4281 61.0224 10.0419C61.7054 8.64787 62.6255 7.59642 63.7827 6.88758C64.9399 6.17086 66.2296 5.8125 67.652 5.8125C68.7368 5.8125 69.6288 5.99365 70.3279 6.35594C71.0271 6.71037 71.5816 7.13961 71.9914 7.64367C72.4012 8.13986 72.7186 8.60848 72.9436 9.04954H73.1245V0H77.5V24.1951H73.2088V21.3361H72.9436C72.7186 21.7772 72.3932 22.2458 71.9673 22.742C71.5414 23.2303 70.9789 23.6477 70.2797 23.9943C69.5806 24.3408 68.7007 24.5141 67.6399 24.5141ZM68.8574 21.0053C69.7815 21.0053 70.569 20.7612 71.2199 20.2729C71.8708 19.7767 72.3651 19.0875 72.7026 18.2054C73.0401 17.3233 73.2088 16.2955 73.2088 15.122C73.2088 13.9484 73.0401 12.9285 72.7026 12.0621C72.3731 11.1958 71.8829 10.5224 71.232 10.0419C70.5891 9.56148 69.7976 9.32126 68.8574 9.32126C67.885 9.32126 67.0734 9.56936 66.4225 10.0655C65.7716 10.5617 65.2814 11.247 64.9519 12.1212C64.6225 12.9954 64.4577 13.9957 64.4577 15.122C64.4577 16.2561 64.6225 17.2682 64.9519 18.1582C65.2894 19.0403 65.7836 19.7373 66.4346 20.2492C67.0935 20.7533 67.9011 21.0053 68.8574 21.0053Z" fill="#00887A"/>
</svg>
