<svg width="160" height="68" viewBox="0 0 160 68" fill="none" xmlns="http://www.w3.org/2000/svg">
<path fill-rule="evenodd" clip-rule="evenodd" d="M14.0712 62.7185C17.2226 64.8168 20.7268 66.4246 24.4895 67.4477C28.2522 66.4246 31.7564 64.8168 34.9078 62.7185L34.9338 62.7098C38.417 60.3875 41.4842 57.4932 43.9796 54.1397C45.3112 52.3531 46.4765 50.4382 47.4579 48.4191C48.5945 46.0806 48.979 43.4693 48.979 40.8692V8.75025C48.1559 8.81958 47.3068 8.85424 46.4663 8.85424C45.6258 8.85424 44.7941 8.81958 43.9796 8.75892C43.2778 8.70693 42.5846 8.62894 41.9001 8.52495H41.8741C39.6127 8.19567 37.4292 7.63242 35.3497 6.85253H35.3411C33.5562 6.18529 31.8579 5.36208 30.229 4.39155C29.3539 3.86296 28.4961 3.29104 27.6556 2.6758C26.5438 1.85646 25.4884 0.964531 24.4895 0C23.4906 0.964531 22.4352 1.85646 21.3234 2.6758C20.4829 3.29104 19.6251 3.86296 18.75 4.39155C17.1211 5.36208 15.4228 6.18529 13.6379 6.85253H13.6293C11.5498 7.63242 9.36634 8.19567 7.1049 8.52496H7.07891C6.39441 8.62894 5.70125 8.70693 4.99942 8.75892C4.18496 8.81958 3.35317 8.85424 2.51271 8.85424C1.67225 8.85424 0.82313 8.81958 0 8.75026V40.8692C0 43.4693 0.38451 46.0806 1.52116 48.4191C2.50253 50.4382 3.6678 52.3531 4.99942 54.1397C7.4948 57.4932 10.562 60.3875 14.0452 62.7098L14.0712 62.7185Z" fill="#009587"/>
<path d="M43.971 39.8792C43.971 42.2656 43.6622 44.6697 42.6373 46.8248C39.1261 54.2084 32.4938 59.8248 24.4498 61.9646C24.4238 61.9559 24.4065 61.9472 24.3805 61.9472C22.8209 61.5226 21.3133 60.9767 19.875 60.3095H19.8663C13.7178 57.4577 8.76578 52.4483 5.9919 46.2577C5.06671 44.1929 4.79004 41.9149 4.79004 39.6523V13.5682C6.25434 13.5162 7.69265 13.3689 9.10497 13.1263C12.1289 12.6063 15.0055 11.6532 17.6742 10.3447C18.246 10.0674 18.8092 9.77276 19.3551 9.4608C19.3724 9.45214 19.3897 9.44347 19.4071 9.42614C20.6028 8.74158 21.7465 7.99635 22.8296 7.17314C23.3148 6.80919 23.7827 6.42791 24.2419 6.03797C24.3805 5.91665 24.3372 5.95998 24.3805 5.91665C24.3978 5.90798 24.4065 5.89065 24.4238 5.88199C24.5711 6.01197 24.7184 6.14195 24.8657 6.26327H24.8744C25.247 6.58389 25.6282 6.88718 26.0181 7.1818C26.356 7.4331 26.7026 7.68439 27.0492 7.92703C27.7337 8.40362 28.4442 8.85423 29.1633 9.27883C29.1806 9.27883 29.198 9.29616 29.2066 9.29616C29.9518 9.7381 30.7143 10.1367 31.4941 10.5093C31.5201 10.518 31.5461 10.5353 31.5634 10.544C32.1439 10.8126 32.7244 11.0726 33.3223 11.3065H33.3309C35.5664 12.2077 37.9318 12.8663 40.3839 13.2216C41.5536 13.4036 42.7579 13.5162 43.971 13.5595V39.8792Z" fill="white"/>
<path d="M24.3804 58.6024C29.6249 56.9664 34.8978 52.7417 38.3139 47.316C39.8971 44.8013 40.3837 41.796 40.3837 38.8244V34.0879H24.3804V58.6024Z" fill="#FEC240"/>
<path d="M9.69421 16.8177V16.8264C9.26098 16.8957 8.82776 16.9564 8.39453 17.017V34.1659L24.3979 34.0966V10.6826C20.3862 13.7588 14.9016 15.9425 9.70287 16.8177H9.69421Z" fill="#FEC240"/>
<g clip-path="url(#clip0_196_4540)">
<path d="M19.7274 22.5621H17.7433C17.4426 22.5621 17.1543 22.6816 16.9416 22.8942C16.729 23.1068 16.6096 23.3952 16.6096 23.6959V26.8138C16.6096 26.8889 16.5797 26.961 16.5265 27.0142C16.4734 27.0673 16.4013 27.0972 16.3261 27.0972C16.2509 27.0972 16.1788 27.0673 16.1257 27.0142C16.0725 26.961 16.0427 26.8889 16.0427 26.8138V23.6959C16.0427 23.3952 15.9232 23.1068 15.7106 22.8942C15.498 22.6816 15.2096 22.5621 14.9089 22.5621H12.9248C12.7744 22.5621 12.6303 22.6218 12.5239 22.7281C12.4176 22.8345 12.3579 22.9786 12.3579 23.129V27.6641C12.3579 27.8144 12.4176 27.9586 12.5239 28.0649C12.6303 28.1712 12.7744 28.231 12.9248 28.231H15.1923C15.4179 28.231 15.6342 28.3206 15.7936 28.48C15.9531 28.6395 16.0427 28.8558 16.0427 29.0813C16.0427 29.1565 16.0725 29.2286 16.1257 29.2817C16.1788 29.3349 16.2509 29.3647 16.3261 29.3647C16.4013 29.3647 16.4734 29.3349 16.5265 29.2817C16.5797 29.2286 16.6096 29.1565 16.6096 29.0813C16.6096 28.8558 16.6991 28.6395 16.8586 28.48C17.0181 28.3206 17.2344 28.231 17.4599 28.231H19.7274C19.8778 28.231 20.022 28.1712 20.1283 28.0649C20.2346 27.9586 20.2943 27.8144 20.2943 27.6641V23.129C20.2943 22.9786 20.2346 22.8345 20.1283 22.7281C20.022 22.6218 19.8778 22.5621 19.7274 22.5621ZM19.1606 26.8138H17.7433C17.6682 26.8138 17.5961 26.7839 17.5429 26.7307C17.4898 26.6776 17.4599 26.6055 17.4599 26.5303C17.4599 26.4551 17.4898 26.383 17.5429 26.3299C17.5961 26.2767 17.6682 26.2469 17.7433 26.2469H19.1606C19.2357 26.2469 19.3078 26.2767 19.361 26.3299C19.4141 26.383 19.444 26.4551 19.444 26.5303C19.444 26.6055 19.4141 26.6776 19.361 26.7307C19.3078 26.7839 19.2357 26.8138 19.1606 26.8138ZM19.1606 25.68H17.7433C17.6682 25.68 17.5961 25.6501 17.5429 25.597C17.4898 25.5438 17.4599 25.4717 17.4599 25.3965C17.4599 25.3214 17.4898 25.2493 17.5429 25.1961C17.5961 25.143 17.6682 25.1131 17.7433 25.1131H19.1606C19.2357 25.1131 19.3078 25.143 19.361 25.1961C19.4141 25.2493 19.444 25.3214 19.444 25.3965C19.444 25.4717 19.4141 25.5438 19.361 25.597C19.3078 25.6501 19.2357 25.68 19.1606 25.68ZM19.1606 24.5462H17.7433C17.6682 24.5462 17.5961 24.5163 17.5429 24.4632C17.4898 24.41 17.4599 24.3379 17.4599 24.2628C17.4599 24.1876 17.4898 24.1155 17.5429 24.0623C17.5961 24.0092 17.6682 23.9793 17.7433 23.9793H19.1606C19.2357 23.9793 19.3078 24.0092 19.361 24.0623C19.4141 24.1155 19.444 24.1876 19.444 24.2628C19.444 24.3379 19.4141 24.41 19.361 24.4632C19.3078 24.5163 19.2357 24.5462 19.1606 24.5462Z" fill="#00887A"/>
</g>
<g clip-path="url(#clip1_196_4540)">
<path d="M35.5434 22.2787H29.3076C29.1573 22.2787 29.0131 22.3384 28.9068 22.4447C28.8004 22.551 28.7407 22.6952 28.7407 22.8455V27.9475C28.7407 28.0979 28.8004 28.2421 28.9068 28.3484C29.0131 28.4547 29.1573 28.5144 29.3076 28.5144H29.782C29.8357 28.5144 29.8882 28.4992 29.9336 28.4706C29.9789 28.4419 30.0152 28.401 30.0382 28.3525C30.176 28.0615 30.3936 27.8156 30.6657 27.6434C30.9378 27.4712 31.2532 27.3798 31.5752 27.3798C31.8971 27.3798 32.2125 27.4712 32.4846 27.6434C32.7567 27.8156 32.9743 28.0615 33.1121 28.3525C33.1351 28.401 33.1714 28.4419 33.2168 28.4706C33.2621 28.4992 33.3146 28.5144 33.3683 28.5144H35.5434C35.6937 28.5144 35.8379 28.4547 35.9442 28.3484C36.0505 28.2421 36.1103 28.0979 36.1103 27.9475V22.8455C36.1103 22.6952 36.0505 22.551 35.9442 22.4447C35.8379 22.3384 35.6937 22.2787 35.5434 22.2787ZM31.5752 26.8138C31.3509 26.8138 31.1317 26.7473 30.9453 26.6227C30.7588 26.4981 30.6135 26.321 30.5277 26.1139C30.4419 25.9067 30.4194 25.6787 30.4632 25.4588C30.5069 25.2389 30.6149 25.0368 30.7735 24.8783C30.932 24.7197 31.134 24.6117 31.354 24.568C31.5739 24.5242 31.8019 24.5467 32.009 24.6325C32.2162 24.7183 32.3933 24.8636 32.5179 25.0501C32.6424 25.2365 32.7089 25.4557 32.7089 25.68C32.7089 25.9807 32.5895 26.2691 32.3769 26.4817C32.1642 26.6943 31.8759 26.8138 31.5752 26.8138ZM35.5434 27.9475H33.5391C33.4155 27.7345 33.258 27.543 33.0728 27.3806H34.693C34.7682 27.3806 34.8403 27.3508 34.8935 27.2976C34.9466 27.2445 34.9765 27.1724 34.9765 27.0972V23.6959C34.9765 23.6207 34.9466 23.5486 34.8935 23.4954C34.8403 23.4423 34.7682 23.4124 34.693 23.4124H30.1579C30.0828 23.4124 30.0107 23.4423 29.9575 23.4954C29.9044 23.5486 29.8745 23.6207 29.8745 23.6959V27.0972C29.8745 27.1601 29.8953 27.2211 29.9338 27.2709C29.9723 27.3206 30.0262 27.3561 30.0871 27.3718C29.8976 27.5359 29.7368 27.7305 29.6112 27.9475H29.3076V22.8455H35.5434V27.9475Z" fill="#FEC240"/>
</g>
<g clip-path="url(#clip2_196_4540)">
<path d="M19.8168 40.3202L16.4155 39.1864C16.3573 39.167 16.2944 39.167 16.2362 39.1864L12.8349 40.3202C12.7785 40.339 12.7294 40.3751 12.6946 40.4233C12.6598 40.4716 12.6411 40.5296 12.6411 40.5891V43.4235C12.6411 43.4987 12.671 43.5708 12.7241 43.6239C12.7773 43.6771 12.8494 43.707 12.9246 43.707C12.9997 43.707 13.0718 43.6771 13.125 43.6239C13.1781 43.5708 13.208 43.4987 13.208 43.4235V40.9824L14.3981 41.3788C14.0819 41.8897 13.9814 42.5051 14.1185 43.09C14.2557 43.6749 14.6194 44.1815 15.1297 44.4985C14.492 44.7486 13.9407 45.2011 13.5375 45.8197C13.5165 45.8508 13.502 45.8859 13.4947 45.9227C13.4873 45.9596 13.4874 45.9975 13.4949 46.0343C13.5024 46.0711 13.5171 46.1061 13.5382 46.1371C13.5593 46.1682 13.5864 46.1948 13.6178 46.2153C13.6493 46.2358 13.6845 46.2499 13.7215 46.2567C13.7584 46.2635 13.7963 46.2628 13.833 46.2548C13.8697 46.2468 13.9045 46.2316 13.9353 46.2101C13.966 46.1885 13.9922 46.1611 14.0123 46.1293C14.5462 45.3102 15.3895 44.8407 16.3259 44.8407C17.2623 44.8407 18.1055 45.3102 18.6395 46.1293C18.6811 46.1911 18.7453 46.2341 18.8183 46.2489C18.8912 46.2637 18.9671 46.2492 19.0295 46.2085C19.0919 46.1678 19.1357 46.1042 19.1516 46.0315C19.1675 45.9587 19.154 45.8826 19.1143 45.8197C18.7111 45.2011 18.1576 44.7486 17.522 44.4985C18.0319 44.1815 18.3952 43.6753 18.5324 43.0908C18.6695 42.5063 18.5693 41.8913 18.2536 41.3806L19.8168 40.8598C19.8733 40.841 19.9224 40.8049 19.9572 40.7566C19.992 40.7083 20.0107 40.6504 20.0107 40.5909C20.0107 40.5314 19.992 40.4734 19.9572 40.4251C19.9224 40.3768 19.8733 40.3407 19.8168 40.3219V40.3202ZM18.0265 42.5732C18.0266 42.8421 17.9629 43.1071 17.8407 43.3466C17.7185 43.5861 17.5413 43.7932 17.3236 43.9509C17.1058 44.1087 16.8538 44.2125 16.5882 44.254C16.3225 44.2954 16.0508 44.2733 15.7954 44.1895C15.5399 44.1056 15.308 43.9623 15.1186 43.7715C14.9292 43.5806 14.7878 43.3476 14.706 43.0915C14.6241 42.8354 14.6041 42.5635 14.6477 42.2982C14.6912 42.0329 14.7971 41.7817 14.9565 41.5652L16.2362 41.9904C16.2944 42.0098 16.3573 42.0098 16.4155 41.9904L17.6953 41.5652C17.9106 41.8571 18.0267 42.2104 18.0265 42.5732Z" fill="#FEC240"/>
</g>
<g clip-path="url(#clip3_196_4540)">
<path d="M34.1262 38.8884H30.7248C30.4993 38.8884 30.283 38.978 30.1236 39.1375C29.9641 39.297 29.8745 39.5132 29.8745 39.7388V45.9745C29.8745 46.2 29.9641 46.4163 30.1236 46.5758C30.283 46.7353 30.4993 46.8248 30.7248 46.8248H34.1262C34.3517 46.8248 34.568 46.7353 34.7274 46.5758C34.8869 46.4163 34.9765 46.2 34.9765 45.9745V39.7388C34.9765 39.5132 34.8869 39.297 34.7274 39.1375C34.568 38.978 34.3517 38.8884 34.1262 38.8884ZM30.7248 39.4553H34.1262C34.2013 39.4553 34.2734 39.4852 34.3266 39.5383C34.3797 39.5915 34.4096 39.6636 34.4096 39.7388V40.0222H30.4414V39.7388C30.4414 39.6636 30.4713 39.5915 30.5244 39.5383C30.5776 39.4852 30.6497 39.4553 30.7248 39.4553ZM34.1262 46.258H30.7248C30.6497 46.258 30.5776 46.2281 30.5244 46.1749C30.4713 46.1218 30.4414 46.0497 30.4414 45.9745V45.6911H34.4096V45.9745C34.4096 46.0497 34.3797 46.1218 34.3266 46.1749C34.2734 46.2281 34.2013 46.258 34.1262 46.258Z" fill="#00887A"/>
</g>
<path d="M76.5024 32.835V37.5605H55.1016V8.93517H76.0935V13.6606H60.6903V20.6125H72.7766V25.2925H60.6903V32.835H76.5024Z" fill="#2D3030"/>
<path d="M78.9482 27.3826L84.1734 27.1554C84.4006 31.6082 87.6266 33.6075 91.6251 33.6075C95.1692 33.6075 97.441 32.1989 97.441 29.7907C97.441 27.6098 95.7144 26.7919 92.7156 26.2012L87.2631 25.2016C82.8103 24.3837 79.7206 21.9301 79.7206 17.2047C79.7206 11.8431 83.9462 8.38992 90.6255 8.38992C98.1226 8.38992 102.348 12.2521 102.439 18.6132L97.2138 18.795C97.0321 14.8874 94.4876 12.8427 90.58 12.8427C87.2177 12.8427 85.3093 14.3422 85.3093 16.7958C85.3093 18.8859 86.8088 19.6129 89.3987 20.1127L94.6694 21.0668C100.304 22.1119 102.939 24.7927 102.939 29.4272C102.939 35.0614 98.0771 38.1057 91.6251 38.1057C84.2643 38.1057 78.9482 34.289 78.9482 27.3826Z" fill="#2D3030"/>
<path d="M113.027 23.0661H118.616C122.887 23.0661 124.75 21.4303 124.75 18.3406C124.75 15.2509 122.887 13.5243 118.616 13.5243H113.027V23.0661ZM113.027 27.7006V37.5605H107.393V8.93517H118.798C126.113 8.93517 130.293 12.3429 130.293 18.2952C130.293 24.2474 126.113 27.7006 118.798 27.7006H113.027Z" fill="#2D3030"/>
<path d="M139.574 33.0168H144.344C150.388 33.0168 153.795 29.3818 153.795 23.2024C153.795 17.1138 150.388 13.4789 144.344 13.4789H139.574V33.0168ZM133.894 37.5605V8.93517H144.708C153.932 8.93517 159.657 14.2967 159.657 23.2478C159.657 32.1989 153.932 37.5605 144.708 37.5605H133.894Z" fill="#2D3030"/>
<path d="M58.6843 51.755H57.97V45.2131H55.3283V44.6122H61.36V45.2131H58.6843V51.755ZM66.1589 51.755H65.4446V44.6122H66.1589V47.7528H70.6259V44.6122H71.3402V51.755H70.6259V48.3537H66.1589V51.755ZM80.8797 51.1541V51.755H75.9364V44.6122H80.7776V45.2131H76.628V47.7528H79.95V48.3537H76.628V51.1541H80.8797ZM94.4476 44.6122L96.1482 50.9614H96.1936L97.7469 44.6122H98.4158L96.6018 51.755H95.7061L94.1301 45.7233H94.0848L92.4862 51.755H91.5905L89.7764 44.6122H90.468L92.0553 50.9274H92.1007L93.7673 44.6122H94.4476ZM108.996 48.1836C108.996 50.3831 107.579 51.8911 105.493 51.8911C103.407 51.8911 101.99 50.3831 101.99 48.1836C101.99 45.9841 103.407 44.4762 105.493 44.4762C107.579 44.4762 108.996 45.9841 108.996 48.1836ZM108.248 48.1836C108.248 46.2902 107.171 45.0771 105.493 45.0771C103.815 45.0771 102.738 46.2902 102.738 48.1836C102.738 50.077 103.815 51.2902 105.493 51.2902C107.171 51.2902 108.248 50.077 108.248 48.1836ZM118.73 51.755H117.959C117.823 51.5623 117.721 51.0181 117.664 50.145C117.619 49.3627 117.244 48.7392 116.179 48.7392H113.956V51.755H113.254V44.6122H115.952C117.755 44.6122 118.616 45.4399 118.616 46.6757C118.616 47.7868 117.845 48.3423 116.972 48.4444C117.879 48.6145 118.299 49.1813 118.367 50.0203C118.458 51.0634 118.492 51.4942 118.73 51.755ZM113.956 48.1496H115.975C117.301 48.1496 117.879 47.6281 117.879 46.6757C117.879 45.7914 117.301 45.2131 115.975 45.2131H113.956V48.1496ZM123.037 44.6122H123.751V51.1541H127.855V51.755H123.037V44.6122ZM132.704 51.1541H134.473C136.355 51.1541 137.364 50.043 137.364 48.1836C137.364 46.3242 136.355 45.2131 134.473 45.2131H132.704V51.1541ZM131.99 51.755V44.6122H134.507C136.717 44.6122 138.112 45.9501 138.112 48.1836C138.112 50.4172 136.717 51.755 134.507 51.755H131.99ZM147.515 44.6122H148.229V51.755H147.515V44.6122ZM152.337 49.1927L152.984 49.136C153.04 50.5532 153.993 51.3355 155.297 51.3355C156.476 51.3355 157.213 50.814 157.213 49.9296C157.213 49.204 156.782 48.8185 155.75 48.6145L154.299 48.331C153.278 48.1269 152.575 47.5827 152.575 46.5056C152.575 45.3265 153.516 44.4762 155.024 44.4762C156.759 44.4762 157.791 45.4285 157.791 47.0385L157.133 47.0952C157.111 45.7914 156.34 45.0317 155.036 45.0317C153.902 45.0317 153.267 45.5873 153.267 46.483C153.267 47.2879 153.777 47.5487 154.718 47.7301L155.988 47.9795C157.247 48.229 157.893 48.7392 157.893 49.8729C157.893 51.1314 156.804 51.8911 155.297 51.8911C153.596 51.8911 152.337 50.9274 152.337 49.1927ZM62.5051 59.1836C62.5051 61.3831 61.0879 62.8911 59.0017 62.8911C56.9156 62.8911 55.4984 61.3831 55.4984 59.1836C55.4984 56.9841 56.9156 55.4762 59.0017 55.4762C61.0879 55.4762 62.5051 56.9841 62.5051 59.1836ZM61.7568 59.1836C61.7568 57.2902 60.6797 56.0771 59.0017 56.0771C57.3238 56.0771 56.2467 57.2902 56.2467 59.1836C56.2467 61.077 57.3238 62.2902 59.0017 62.2902C60.6797 62.2902 61.7568 61.077 61.7568 59.1836ZM67.6919 62.8911C66.1499 62.8911 64.8914 62.1428 64.8914 60.0566V55.6122H65.6057V60.1587C65.6057 61.5872 66.3767 62.2902 67.6919 62.2902C69.007 62.2902 69.8007 61.5872 69.8007 60.17V55.6122H70.4923V60.0566C70.4923 62.1428 69.2338 62.8911 67.6919 62.8911ZM78.684 62.755H77.913C77.7769 62.5623 77.6749 62.0181 77.6182 61.145C77.5729 60.3627 77.1987 59.7392 76.133 59.7392H73.9108V62.755H73.2078V55.6122H75.9062C77.7089 55.6122 78.5706 56.4399 78.5706 57.6757C78.5706 58.7868 77.7996 59.3423 76.9266 59.4444C77.8336 59.6145 78.2531 60.1813 78.3212 61.0203C78.4119 62.0634 78.4459 62.4942 78.684 62.755ZM73.9108 59.1496H75.9289C77.2554 59.1496 77.8336 58.6281 77.8336 57.6757C77.8336 56.7914 77.2554 56.2131 75.9289 56.2131H73.9108V59.1496ZM84.2914 59.1836C84.2914 56.9841 85.8106 55.4762 87.7607 55.4762C89.7562 55.4762 90.9126 56.7007 91.0373 58.5487L90.3457 58.5827C90.2777 57.1315 89.3367 56.0771 87.7607 56.0771C86.1961 56.0771 85.0397 57.2675 85.0397 59.1836C85.0397 61.0997 86.1961 62.2902 87.7607 62.2902C89.3367 62.2902 90.2777 61.2357 90.3457 59.7845L91.0373 59.8185C90.9126 61.6666 89.7562 62.8911 87.7607 62.8911C85.8106 62.8911 84.2914 61.3831 84.2914 59.1836ZM93.5321 55.6122H94.2463V62.1541H98.3506V62.755H93.5321V55.6122ZM103.097 55.6122H103.868L106.884 62.755H106.124L105.161 60.4534H101.782L100.864 62.755H100.161L103.097 55.6122ZM103.426 56.3832L102.031 59.8525H104.911L103.471 56.3832H103.426ZM108.609 60.1927L109.255 60.136C109.312 61.5532 110.264 62.3355 111.568 62.3355C112.747 62.3355 113.484 61.814 113.484 60.9296C113.484 60.204 113.054 59.8185 112.022 59.6145L110.571 59.331C109.55 59.1269 108.847 58.5827 108.847 57.5056C108.847 56.3265 109.788 55.4762 111.296 55.4762C113.031 55.4762 114.063 56.4285 114.063 58.0385L113.405 58.0952C113.382 56.7914 112.611 56.0317 111.308 56.0317C110.174 56.0317 109.539 56.5873 109.539 57.483C109.539 58.2879 110.049 58.5487 110.99 58.7301L112.26 58.9795C113.518 59.229 114.165 59.7392 114.165 60.8729C114.165 62.1314 113.076 62.8911 111.568 62.8911C109.868 62.8911 108.609 61.9274 108.609 60.1927ZM116.192 60.1927L116.838 60.136C116.895 61.5532 117.847 62.3355 119.151 62.3355C120.33 62.3355 121.067 61.814 121.067 60.9296C121.067 60.204 120.637 59.8185 119.605 59.6145L118.154 59.331C117.133 59.1269 116.43 58.5827 116.43 57.5056C116.43 56.3265 117.371 55.4762 118.879 55.4762C120.614 55.4762 121.646 56.4285 121.646 58.0385L120.988 58.0952C120.965 56.7914 120.194 56.0317 118.89 56.0317C117.757 56.0317 117.122 56.5873 117.122 57.483C117.122 58.2879 117.632 58.5487 118.573 58.7301L119.843 58.9795C121.101 59.229 121.748 59.7392 121.748 60.8729C121.748 62.1314 120.659 62.8911 119.151 62.8911C117.451 62.8911 116.192 61.9274 116.192 60.1927ZM129.739 62.755H128.968C128.832 62.5623 128.73 62.0181 128.673 61.145C128.628 60.3627 128.254 59.7392 127.188 59.7392H124.966V62.755H124.263V55.6122H126.961C128.764 55.6122 129.625 56.4399 129.625 57.6757C129.625 58.7868 128.854 59.3423 127.981 59.4444C128.888 59.6145 129.308 60.1813 129.376 61.0203C129.467 62.0634 129.501 62.4942 129.739 62.755ZM124.966 59.1496H126.984C128.31 59.1496 128.888 58.6281 128.888 57.6757C128.888 56.7914 128.31 56.2131 126.984 56.2131H124.966V59.1496ZM138.844 59.1836C138.844 61.3831 137.427 62.8911 135.341 62.8911C133.255 62.8911 131.838 61.3831 131.838 59.1836C131.838 56.9841 133.255 55.4762 135.341 55.4762C137.427 55.4762 138.844 56.9841 138.844 59.1836ZM138.096 59.1836C138.096 57.2902 137.019 56.0771 135.341 56.0771C133.663 56.0771 132.586 57.2902 132.586 59.1836C132.586 61.077 133.663 62.2902 135.341 62.2902C137.019 62.2902 138.096 61.077 138.096 59.1836ZM148.011 59.1836C148.011 61.3831 146.593 62.8911 144.507 62.8911C142.421 62.8911 141.004 61.3831 141.004 59.1836C141.004 56.9841 142.421 55.4762 144.507 55.4762C146.593 55.4762 148.011 56.9841 148.011 59.1836ZM147.262 59.1836C147.262 57.2902 146.185 56.0771 144.507 56.0771C142.829 56.0771 141.752 57.2902 141.752 59.1836C141.752 61.077 142.829 62.2902 144.507 62.2902C146.185 62.2902 147.262 61.077 147.262 59.1836ZM154.24 62.755H153.64L151.236 56.2925H151.191V62.755H150.51V55.6122H151.69L153.968 61.7913H154.002L156.157 55.6122H157.324V62.755H156.599V56.2925H156.553L154.24 62.755Z" fill="#5B6060"/>
<defs>
<clipPath id="clip0_196_4540">
<rect width="9.07019" height="9.07019" fill="white" transform="translate(11.791 20.8615)"/>
</clipPath>
<clipPath id="clip1_196_4540">
<rect width="9.07019" height="9.07019" fill="white" transform="translate(27.8906 20.8615)"/>
</clipPath>
<clipPath id="clip2_196_4540">
<rect width="9.07019" height="9.07019" fill="white" transform="translate(11.791 38.3215)"/>
</clipPath>
<clipPath id="clip3_196_4540">
<rect width="9.07019" height="9.07019" fill="white" transform="translate(27.8906 38.3215)"/>
</clipPath>
</defs>
</svg>
