<svg width="49" height="49" viewBox="0 0 49 49" fill="none" xmlns="http://www.w3.org/2000/svg">
<rect x="1" y="1" width="47" height="47" rx="7.5" fill="#FAFAFA"/>
<path d="M18.3166 33.0101V24.2503L15.5999 21.7649L13.1638 20.3857V31.4643C13.1638 32.3196 13.8568 33.0101 14.7097 33.0101H18.3166Z" fill="#4285F4"/>
<path d="M30.6831 33.0101H34.29C35.1455 33.0101 35.8359 32.317 35.8359 31.4642V20.3857L33.0766 21.9655L30.6831 24.2502V33.0101Z" fill="#34A853"/>
<path d="M18.3167 24.2494L17.947 20.8267L18.3167 17.5508L24.5 22.1883L30.6834 17.5508L31.0969 20.6498L30.6834 24.2494L24.5 28.8869L18.3167 24.2494Z" fill="#EA4335"/>
<path d="M30.6831 17.5502V24.2488L35.8359 20.3842V18.3231C35.8359 16.4114 33.6537 15.3217 32.126 16.4681L30.6831 17.5502Z" fill="#FBBC04"/>
<path d="M13.1638 20.3843L15.5337 22.1617L18.3166 24.2488V17.5502L16.8738 16.4682C15.3434 15.3216 13.1638 16.4115 13.1638 18.323V20.3842V20.3843Z" fill="#C5221F"/>
<rect x="1" y="1" width="47" height="47" rx="7.5" stroke="#CCCFCF"/>
</svg>
