<svg width="72" height="72" viewBox="0 0 72 72" fill="none" xmlns="http://www.w3.org/2000/svg">
<path d="M0 36C0 16.1178 16.1178 0 36 0C55.8823 0 72 16.1178 72 36C72 55.8823 55.8823 72 36 72C16.1178 72 0 55.8823 0 36Z" fill="#2FE879"/>
<path d="M53.3409 25.3987C53.7629 25.8146 54 26.3784 54 26.9662C54 27.5541 53.7629 28.1179 53.3409 28.5338L31.5557 49.9763C31.1332 50.3917 30.5604 50.625 29.9631 50.625C29.3659 50.625 28.7931 50.3917 28.3706 49.9763L18.6048 40.3641C18.2069 39.9434 17.9903 39.3872 18.0003 38.8125C18.0104 38.2378 18.2465 37.6893 18.6589 37.2823C19.0723 36.8764 19.6296 36.6441 20.2135 36.6341C20.7974 36.6242 21.3625 36.8375 21.7899 37.2291L29.9631 45.2737L50.1558 25.3987C50.5783 24.9833 51.1511 24.75 51.7483 24.75C52.3456 24.75 52.9184 24.9833 53.3409 25.3987Z" fill="white"/>
</svg>
