<svg width="13" height="13" viewBox="0 0 13 13" fill="none" xmlns="http://www.w3.org/2000/svg">
<path d="M8.01688 1.3705C8.03385 1.30704 8.06316 1.24755 8.10314 1.19543C8.14311 1.14331 8.19296 1.09957 8.24984 1.06672C8.30672 1.03387 8.36951 1.01254 8.43464 1.00397C8.49976 0.995397 8.56594 0.999739 8.62938 1.01675C9.5563 1.25859 10.402 1.74315 11.0794 2.42052C11.7567 3.09789 12.2413 3.94358 12.4831 4.8705C12.5001 4.93394 12.5045 5.00012 12.4959 5.06524C12.4873 5.13037 12.466 5.19316 12.4332 5.25004C12.4003 5.30692 12.3566 5.35677 12.3045 5.39675C12.2523 5.43672 12.1928 5.46603 12.1294 5.483C12.0871 5.49409 12.0437 5.49976 12 5.49987C11.8899 5.49991 11.7829 5.4636 11.6955 5.39659C11.6082 5.32957 11.5454 5.2356 11.5169 5.12925C11.3197 4.37246 10.9243 3.68195 10.3714 3.1289C9.81844 2.57586 9.12801 2.18029 8.37126 1.983C8.30774 1.96609 8.24819 1.93683 8.196 1.89689C8.1438 1.85695 8.1 1.80711 8.06708 1.75022C8.03417 1.69333 8.01279 1.63051 8.00418 1.56536C7.99557 1.5002 7.99988 1.43399 8.01688 1.3705ZM7.87126 3.983C8.73313 4.213 9.28688 4.76737 9.51688 5.62925C9.54537 5.7356 9.60816 5.82957 9.69552 5.89659C9.78288 5.9636 9.88991 5.99991 10 5.99987C10.0437 5.99976 10.0871 5.99409 10.1294 5.983C10.1928 5.96603 10.2523 5.93672 10.3045 5.89675C10.3566 5.85677 10.4003 5.80692 10.4332 5.75004C10.466 5.69316 10.4873 5.63037 10.4959 5.56524C10.5045 5.50012 10.5001 5.43394 10.4831 5.3705C10.1631 4.173 9.32688 3.33675 8.12938 3.01675C8.06594 2.9998 7.99977 2.99551 7.93467 3.00413C7.86957 3.01275 7.80681 3.03411 7.74996 3.06699C7.69311 3.09987 7.6433 3.14362 7.60336 3.19575C7.56342 3.24788 7.53414 3.30737 7.51719 3.37081C7.50025 3.43426 7.49596 3.50042 7.50458 3.56552C7.5132 3.63062 7.53456 3.69339 7.56744 3.75023C7.60031 3.80708 7.64407 3.85689 7.6962 3.89683C7.74833 3.93677 7.80781 3.96605 7.87126 3.983ZM12.3981 8.90362L9.45376 7.58425L9.44563 7.5805C9.29278 7.51512 9.12603 7.48888 8.96049 7.50416C8.79494 7.51944 8.63582 7.57575 8.49751 7.668C8.48122 7.67875 8.46557 7.69044 8.45063 7.703L6.92938 8.99987C5.96563 8.53175 4.97063 7.54425 4.50251 6.593L5.80126 5.04862C5.81376 5.033 5.82563 5.01737 5.83688 5.0005C5.92715 4.86256 5.98192 4.70445 5.99631 4.54023C6.0107 4.37601 5.98428 4.21078 5.91938 4.05925V4.05175L4.59626 1.10237C4.51047 0.904414 4.36296 0.739508 4.17575 0.632273C3.98854 0.525037 3.77166 0.481224 3.55751 0.507374C2.71061 0.618815 1.93324 1.03473 1.37059 1.67743C0.807935 2.32014 0.498474 3.14568 0.500006 3.99987C0.500006 8.96237 4.53751 12.9999 9.50001 12.9999C10.3542 13.0014 11.1797 12.6919 11.8224 12.1293C12.4652 11.5666 12.8811 10.7893 12.9925 9.94237C13.0187 9.72829 12.975 9.51147 12.8679 9.32427C12.7607 9.13706 12.596 8.98951 12.3981 8.90362Z" fill="#5B6060"/>
</svg>
