<svg width="18" height="19" viewBox="0 0 18 19" fill="none" xmlns="http://www.w3.org/2000/svg">
<path d="M18 9.37109C18 9.57001 17.921 9.76077 17.7803 9.90142C17.6397 10.0421 17.4489 10.1211 17.25 10.1211H9.75V17.6211C9.75 17.82 9.67098 18.0108 9.53033 18.1514C9.38968 18.2921 9.19891 18.3711 9 18.3711C8.80109 18.3711 8.61032 18.2921 8.46967 18.1514C8.32902 18.0108 8.25 17.82 8.25 17.6211V10.1211H0.75C0.551088 10.1211 0.360322 10.0421 0.21967 9.90142C0.0790178 9.76077 0 9.57001 0 9.37109C0 9.17218 0.0790178 8.98142 0.21967 8.84076C0.360322 8.70011 0.551088 8.62109 0.75 8.62109H8.25V1.12109C8.25 0.922181 8.32902 0.731416 8.46967 0.590764C8.61032 0.450112 8.80109 0.371094 9 0.371094C9.19891 0.371094 9.38968 0.450112 9.53033 0.590764C9.67098 0.731416 9.75 0.922181 9.75 1.12109V8.62109H17.25C17.4489 8.62109 17.6397 8.70011 17.7803 8.84076C17.921 8.98142 18 9.17218 18 9.37109Z" fill="#00887A"/>
</svg>
