<svg width="104" height="104" viewBox="0 0 104 104" fill="none" xmlns="http://www.w3.org/2000/svg">
<g filter="url(#filter0_d_220_28016)">
<path d="M20 24C20 19.5817 23.5817 16 28 16H76C80.4183 16 84 19.5817 84 24V72C84 76.4183 80.4183 80 76 80H28C23.5817 80 20 76.4183 20 72V24Z" fill="#FFF9EC"/>
<path d="M66.6392 60.1232L56.9985 43.6672V34.56H58.2487C58.5803 34.56 58.8983 34.4251 59.1327 34.1851C59.3672 33.945 59.4989 33.6195 59.4989 33.28C59.4989 32.9405 59.3672 32.6149 59.1327 32.3749C58.8983 32.1349 58.5803 32 58.2487 32H45.7466C45.415 32 45.097 32.1349 44.8626 32.3749C44.6281 32.6149 44.4964 32.9405 44.4964 33.28C44.4964 33.6195 44.6281 33.945 44.8626 34.1851C45.097 34.4251 45.415 34.56 45.7466 34.56H46.9968V43.6672L37.3561 60.1232C37.1288 60.5113 37.006 60.9542 37.0002 61.4067C36.9945 61.8593 37.106 62.3053 37.3234 62.6993C37.5409 63.0933 37.8565 63.4213 38.238 63.6498C38.6196 63.8783 39.0535 63.9991 39.4956 64H64.4997C64.9422 64 65.3767 63.8797 65.7589 63.6516C66.1411 63.4235 66.4574 63.0956 66.6754 62.7014C66.8934 62.3072 67.0053 61.8609 66.9998 61.4079C66.9943 60.955 66.8714 60.5117 66.6439 60.1232H66.6392ZM52.5618 53.2576C50.0755 51.9696 47.7094 51.2864 45.495 51.208L49.3191 44.68C49.436 44.4816 49.4976 44.2541 49.4972 44.0224V34.56H54.4981V44.0224C54.4977 44.2541 54.5593 44.4816 54.6762 44.68L60.6491 54.88C58.78 55.2544 56.1062 55.0944 52.5618 53.2576Z" fill="#FEC240"/>
</g>
<defs>
<filter id="filter0_d_220_28016" x="0" y="0" width="104" height="104" filterUnits="userSpaceOnUse" color-interpolation-filters="sRGB">
<feFlood flood-opacity="0" result="BackgroundImageFix"/>
<feColorMatrix in="SourceAlpha" type="matrix" values="0 0 0 0 0 0 0 0 0 0 0 0 0 0 0 0 0 0 127 0" result="hardAlpha"/>
<feOffset dy="4"/>
<feGaussianBlur stdDeviation="10"/>
<feComposite in2="hardAlpha" operator="out"/>
<feColorMatrix type="matrix" values="0 0 0 0 0 0 0 0 0 0 0 0 0 0 0 0 0 0 0.02 0"/>
<feBlend mode="normal" in2="BackgroundImageFix" result="effect1_dropShadow_220_28016"/>
<feBlend mode="normal" in="SourceGraphic" in2="effect1_dropShadow_220_28016" result="shape"/>
</filter>
</defs>
</svg>
