<svg width="12" height="7" viewBox="0 0 12 7" fill="none" xmlns="http://www.w3.org/2000/svg">
<path d="M0.646215 5.37009L5.64622 0.370094C5.69265 0.323606 5.7478 0.286726 5.8085 0.261564C5.86919 0.236402 5.93426 0.223451 5.99997 0.223451C6.06567 0.223451 6.13074 0.236402 6.19144 0.261564C6.25213 0.286726 6.30728 0.323606 6.35372 0.370094L11.3537 5.37009C11.4475 5.46391 11.5002 5.59116 11.5002 5.72384C11.5002 5.85653 11.4475 5.98377 11.3537 6.07759C11.2599 6.17141 11.1326 6.22412 11 6.22412C10.8673 6.22412 10.74 6.17141 10.6462 6.07759L5.99997 1.43072L1.35372 6.07759C1.30726 6.12405 1.25211 6.1609 1.19141 6.18604C1.13072 6.21118 1.06566 6.22412 0.999966 6.22412C0.934268 6.22412 0.869214 6.21118 0.808517 6.18604C0.747821 6.1609 0.692671 6.12405 0.646215 6.07759C0.59976 6.03114 0.562911 5.97599 0.537769 5.91529C0.512628 5.8546 0.499687 5.78954 0.499687 5.72384C0.499687 5.65815 0.512628 5.59309 0.537769 5.5324C0.562911 5.4717 0.59976 5.41655 0.646215 5.37009Z" fill="#5B6060"/>
</svg>
