<svg width="49" height="49" viewBox="0 0 49 49" fill="none" xmlns="http://www.w3.org/2000/svg">
<path d="M30.875 12.5H18.125C15.0184 12.5 12.5 15.0184 12.5 18.125V30.875C12.5 33.9816 15.0184 36.5 18.125 36.5H30.875C33.9816 36.5 36.5 33.9816 36.5 30.875V18.125C36.5 15.0184 33.9816 12.5 30.875 12.5Z" fill="url(#paint0_radial_831_13381)"/>
<path d="M30.875 12.5H18.125C15.0184 12.5 12.5 15.0184 12.5 18.125V30.875C12.5 33.9816 15.0184 36.5 18.125 36.5H30.875C33.9816 36.5 36.5 33.9816 36.5 30.875V18.125C36.5 15.0184 33.9816 12.5 30.875 12.5Z" fill="url(#paint1_radial_831_13381)"/>
<path d="M24.5008 15.125C21.9548 15.125 21.6352 15.1362 20.6353 15.1816C19.6372 15.2274 18.9559 15.3853 18.3598 15.6172C17.7432 15.8566 17.2201 16.177 16.6991 16.6982C16.1775 17.2194 15.8572 17.7424 15.617 18.3588C15.3845 18.9551 15.2263 19.6366 15.1814 20.6342C15.1367 21.6342 15.125 21.9539 15.125 24.5001C15.125 27.0463 15.1363 27.3648 15.1816 28.3647C15.2276 29.3628 15.3855 30.0441 15.6172 30.6402C15.8568 31.2568 16.1772 31.7799 16.6984 32.3009C17.2194 32.8225 17.7424 33.1436 18.3586 33.383C18.9552 33.6148 19.6365 33.7728 20.6344 33.8186C21.6344 33.864 21.9538 33.8752 24.4997 33.8752C27.0461 33.8752 27.3646 33.864 28.3646 33.8186C29.3626 33.7728 30.0447 33.6148 30.6412 33.383C31.2576 33.1436 31.7799 32.8225 32.3007 32.3009C32.8223 31.7799 33.1425 31.2568 33.3828 30.6404C33.6133 30.0441 33.7715 29.3626 33.8184 28.3649C33.8633 27.365 33.875 27.0463 33.875 24.5001C33.875 21.9539 33.8633 21.6344 33.8184 20.6344C33.7715 19.6363 33.6133 18.9552 33.3828 18.3591C33.1425 17.7424 32.8223 17.2194 32.3007 16.6982C31.7793 16.1768 31.2578 15.8564 30.6406 15.6173C30.043 15.3853 29.3613 15.2273 28.3632 15.1816C27.3632 15.1362 27.0448 15.125 24.4979 15.125H24.5008ZM23.6598 16.8145C23.9095 16.8141 24.188 16.8145 24.5008 16.8145C27.0041 16.8145 27.3007 16.8235 28.2892 16.8684C29.2032 16.9102 29.6994 17.0629 30.0298 17.1913C30.4674 17.3611 30.7793 17.5643 31.1072 17.8925C31.4353 18.2206 31.6384 18.5331 31.8088 18.9706C31.9371 19.3006 32.09 19.7968 32.1316 20.7108C32.1765 21.6991 32.1863 21.9959 32.1863 24.4979C32.1863 26.9999 32.1765 27.2968 32.1316 28.2851C32.0898 29.1991 31.9371 29.6952 31.8088 30.0253C31.6389 30.4629 31.4353 30.7744 31.1072 31.1023C30.7791 31.4305 30.4676 31.6335 30.0298 31.8035C29.6997 31.9324 29.2032 32.0848 28.2892 32.1266C27.3009 32.1715 27.0041 32.1812 24.5008 32.1812C21.9975 32.1812 21.7008 32.1715 20.7126 32.1266C19.7985 32.0844 19.3024 31.9317 18.9717 31.8033C18.5342 31.6333 18.2217 31.4303 17.8935 31.1022C17.5654 30.774 17.3623 30.4623 17.192 30.0246C17.0637 29.6945 16.9108 29.1984 16.8691 28.2843C16.8242 27.296 16.8152 26.9992 16.8152 24.4956C16.8152 21.9921 16.8242 21.6968 16.8691 20.7085C16.9109 19.7944 17.0637 19.2983 17.192 18.9678C17.362 18.5303 17.5654 18.2178 17.8936 17.8897C18.2218 17.5616 18.5342 17.3584 18.9717 17.1882C19.3022 17.0592 19.7985 16.9069 20.7126 16.8649C21.5774 16.8258 21.9126 16.8141 23.6598 16.8121V16.8145ZM29.5052 18.3711C28.8841 18.3711 28.3802 18.8745 28.3802 19.4957C28.3802 20.1168 28.8841 20.6207 29.5052 20.6207C30.1263 20.6207 30.6302 20.1168 30.6302 19.4957C30.6302 18.8746 30.1263 18.3707 29.5052 18.3707V18.3711ZM24.5008 19.6856C21.8421 19.6856 19.6864 21.8413 19.6864 24.5001C19.6864 27.1589 21.8421 29.3136 24.5008 29.3136C27.1597 29.3136 29.3146 27.1589 29.3146 24.5001C29.3146 21.8413 27.1595 19.6856 24.5007 19.6856H24.5008ZM24.5008 21.375C26.2267 21.375 27.6259 22.7741 27.6259 24.5001C27.6259 26.2259 26.2267 27.6252 24.5008 27.6252C22.7749 27.6252 21.3759 26.2259 21.3759 24.5001C21.3759 22.7741 22.7749 21.375 24.5008 21.375Z" fill="white"/>
<path d="M1 8.5C1 4.35787 4.35786 1 8.5 1H40.5C44.6421 1 48 4.35786 48 8.5V40.5C48 44.6421 44.6421 48 40.5 48H8.5C4.35787 48 1 44.6421 1 40.5V8.5Z" stroke="#CCCFCF"/>
<defs>
<radialGradient id="paint0_radial_831_13381" cx="0" cy="0" r="1" gradientUnits="userSpaceOnUse" gradientTransform="translate(18.875 38.3485) rotate(-90) scale(23.7858 22.1227)">
<stop stop-color="#FFDD55"/>
<stop offset="0.1" stop-color="#FFDD55"/>
<stop offset="0.5" stop-color="#FF543E"/>
<stop offset="1" stop-color="#C837AB"/>
</radialGradient>
<radialGradient id="paint1_radial_831_13381" cx="0" cy="0" r="1" gradientUnits="userSpaceOnUse" gradientTransform="translate(8.47991 14.2288) rotate(78.681) scale(10.6324 43.827)">
<stop stop-color="#3771C8"/>
<stop offset="0.128" stop-color="#3771C8"/>
<stop offset="1" stop-color="#6600FF" stop-opacity="0"/>
</radialGradient>
</defs>
</svg>
