<svg width="24" height="25" viewBox="0 0 24 25" fill="none" xmlns="http://www.w3.org/2000/svg">
<path d="M0 4.37109C0 2.16196 1.79086 0.371094 4 0.371094H20C22.2091 0.371094 24 2.16195 24 4.37109V20.3711C24 22.5802 22.2091 24.3711 20 24.3711H4C1.79086 24.3711 0 22.5802 0 20.3711V4.37109Z" fill="#E9F6F5"/>
<path d="M15.6474 10.0033C15.1579 10.0027 14.6886 9.79181 14.3425 9.41686C13.9964 9.04191 13.8017 8.53352 13.8012 8.00326C13.8012 7.91485 13.7688 7.83007 13.7111 7.76755C13.6534 7.70504 13.5751 7.66992 13.4935 7.66992H11.9551C11.8735 7.66992 11.7952 7.70504 11.7375 7.76755C11.6798 7.83007 11.6474 7.91485 11.6474 8.00326V13.5033C11.6473 13.6524 11.6103 13.7987 11.5403 13.9271C11.4702 14.0554 11.3696 14.1611 11.249 14.233C11.1284 14.3049 10.9922 14.3404 10.8546 14.3358C10.7171 14.3313 10.5831 14.2868 10.4668 14.207C10.3505 14.1273 10.2561 14.0152 10.1934 13.8825C10.1307 13.7497 10.102 13.6012 10.1103 13.4523C10.1187 13.3035 10.1638 13.1598 10.2408 13.0362C10.3179 12.9127 10.4242 12.8138 10.5485 12.7499C10.6011 12.7229 10.6456 12.6802 10.6767 12.6269C10.7078 12.5736 10.7243 12.5118 10.7243 12.4487V10.6699C10.7243 10.6212 10.7145 10.5731 10.6955 10.5289C10.6765 10.4847 10.6488 10.4456 10.6143 10.4143C10.5798 10.383 10.5394 10.3603 10.496 10.3477C10.4525 10.3352 10.4071 10.3331 10.3628 10.3416C8.99008 10.6066 7.95508 11.9658 7.95508 13.5033C7.95508 14.3431 8.26304 15.1486 8.81123 15.7424C9.35941 16.3363 10.1029 16.6699 10.8782 16.6699C11.6534 16.6699 12.3969 16.3363 12.9451 15.7424C13.4933 15.1486 13.8012 14.3431 13.8012 13.5033V11.8487C14.3711 12.1708 15.0046 12.3382 15.6474 12.3366C15.729 12.3366 15.8073 12.3015 15.865 12.239C15.9227 12.1764 15.9551 12.0917 15.9551 12.0033V10.3366C15.9551 10.2482 15.9227 10.1634 15.865 10.1009C15.8073 10.0384 15.729 10.0033 15.6474 10.0033ZM15.3397 11.6549C14.7384 11.5972 14.1626 11.3647 13.6732 10.982C13.6271 10.9462 13.5729 10.9248 13.5164 10.9202C13.4599 10.9157 13.4033 10.9281 13.3529 10.9562C13.3025 10.9842 13.2603 11.0268 13.2308 11.0792C13.2013 11.1316 13.1857 11.1919 13.1858 11.2533V13.5033C13.1858 14.1663 12.9427 14.8022 12.5099 15.271C12.0772 15.7399 11.4902 16.0033 10.8782 16.0033C10.2661 16.0033 9.67915 15.7399 9.24637 15.271C8.81359 14.8022 8.57046 14.1663 8.57046 13.5033C8.57046 12.4241 9.21046 11.4562 10.1089 11.1033V12.2562C9.91002 12.4001 9.74894 12.5975 9.64139 12.829C9.53383 13.0604 9.48347 13.3182 9.49521 13.577C9.50695 13.8358 9.58039 14.087 9.70837 14.3059C9.83636 14.5249 10.0145 14.7041 10.2255 14.8263C10.4365 14.9485 10.6731 15.0093 10.9122 15.0029C11.1513 14.9966 11.3849 14.9232 11.5901 14.7899C11.7952 14.6567 11.965 14.4681 12.0829 14.2426C12.2008 14.0171 12.2628 13.7624 12.2628 13.5033V8.33659H13.2051C13.2743 8.92371 13.5214 9.46933 13.9078 9.88785C14.2941 10.3064 14.7977 10.5741 15.3397 10.6491V11.6549Z" fill="#00887A"/>
</svg>
