<svg width="20" height="20" viewBox="0 0 20 20" fill="none" xmlns="http://www.w3.org/2000/svg">
<path d="M19.8866 18.7833C18.4236 16.153 16.169 14.267 13.5379 13.3729C14.8394 12.5673 15.8506 11.3396 16.4161 9.87841C16.9817 8.41725 17.0704 6.80344 16.6686 5.28478C16.2668 3.76613 15.3968 2.42661 14.1921 1.47195C12.9874 0.517279 11.5146 0.000244141 10 0.000244141C8.48537 0.000244141 7.01262 0.517279 5.80792 1.47195C4.60321 2.42661 3.73316 3.76613 3.33138 5.28478C2.9296 6.80344 3.0183 8.41725 3.58387 9.87841C4.14944 11.3396 5.1606 12.5673 6.46207 13.3729C3.83095 14.266 1.5764 16.152 0.113387 18.7833C0.0597359 18.8743 0.0241494 18.9755 0.00872733 19.081C-0.00669474 19.1865 -0.00164002 19.2941 0.0235932 19.3976C0.0488265 19.501 0.0937273 19.5982 0.155646 19.6833C0.217565 19.7684 0.295248 19.8397 0.384111 19.8931C0.472975 19.9465 0.571219 19.9808 0.673047 19.9941C0.774875 20.0073 0.878224 19.9992 0.976997 19.9703C1.07577 19.9413 1.16797 19.8921 1.24815 19.8255C1.32832 19.7589 1.39486 19.6762 1.44383 19.5824C3.25363 16.3299 6.45246 14.3879 10 14.3879C13.5475 14.3879 16.7464 16.3299 18.5562 19.5824C18.6051 19.6762 18.6717 19.7589 18.7519 19.8255C18.832 19.8921 18.9242 19.9413 19.023 19.9703C19.1218 19.9992 19.2251 20.0073 19.327 19.9941C19.4288 19.9808 19.527 19.9465 19.6159 19.8931C19.7048 19.8397 19.7824 19.7684 19.8444 19.6833C19.9063 19.5982 19.9512 19.501 19.9764 19.3976C20.0016 19.2941 20.0067 19.1865 19.9913 19.081C19.9758 18.9755 19.9403 18.8743 19.8866 18.7833ZM4.62058 7.19542C4.62058 6.08901 4.93607 5.00744 5.52717 4.08749C6.11827 3.16754 6.95842 2.45052 7.94138 2.02711C8.92434 1.60371 10.006 1.49293 11.0495 1.70878C12.093 1.92463 13.0515 2.45742 13.8038 3.23977C14.5562 4.02213 15.0685 5.01891 15.2761 6.10406C15.4836 7.18922 15.3771 8.31401 14.9699 9.33621C14.5628 10.3584 13.8733 11.2321 12.9886 11.8468C12.104 12.4615 11.0639 12.7896 10 12.7896C8.57376 12.788 7.20637 12.1981 6.19786 11.1493C5.18935 10.1006 4.6221 8.67859 4.62058 7.19542Z" fill="white"/>
</svg>
