<svg width="20" height="21" viewBox="0 0 20 21" fill="none" xmlns="http://www.w3.org/2000/svg">
<path d="M18.0407 17.2863C16.8508 15.2293 15.0172 13.7543 12.8774 13.0551C13.9358 12.4249 14.7582 11.4648 15.2182 10.3221C15.6781 9.17936 15.7503 7.91724 15.4235 6.72955C15.0968 5.54186 14.3892 4.49427 13.4094 3.74765C12.4296 3.00104 11.2318 2.59668 10 2.59668C8.76821 2.59668 7.57044 3.00104 6.59067 3.74765C5.6109 4.49427 4.90331 5.54186 4.57654 6.72955C4.24978 7.91724 4.32193 9.17936 4.78189 10.3221C5.24186 11.4648 6.06422 12.4249 7.12268 13.0551C4.98284 13.7535 3.14925 15.2285 1.9594 17.2863C1.91577 17.3575 1.88683 17.4366 1.87429 17.5191C1.86174 17.6016 1.86585 17.6858 1.88638 17.7667C1.9069 17.8476 1.94341 17.9236 1.99377 17.9902C2.04413 18.0567 2.10731 18.1125 2.17958 18.1543C2.25185 18.196 2.33175 18.2229 2.41457 18.2332C2.49738 18.2436 2.58143 18.2373 2.66176 18.2146C2.74209 18.192 2.81708 18.1535 2.88228 18.1014C2.94749 18.0493 3.00161 17.9847 3.04143 17.9113C4.51331 15.3676 7.11487 13.8488 10 13.8488C12.8852 13.8488 15.4867 15.3676 16.9586 17.9113C16.9985 17.9847 17.0526 18.0493 17.1178 18.1014C17.183 18.1535 17.258 18.192 17.3383 18.2146C17.4186 18.2373 17.5027 18.2436 17.5855 18.2332C17.6683 18.2229 17.7482 18.196 17.8205 18.1543C17.8927 18.1125 17.9559 18.0567 18.0063 17.9902C18.0566 17.9236 18.0932 17.8476 18.1137 17.7667C18.1342 17.6858 18.1383 17.6016 18.1258 17.5191C18.1132 17.4366 18.0843 17.3575 18.0407 17.2863ZM5.62503 8.22381C5.62503 7.35851 5.88162 6.51265 6.36235 5.79319C6.84308 5.07372 7.52636 4.51297 8.32579 4.18183C9.12522 3.8507 10.0049 3.76406 10.8535 3.93287C11.7022 4.10168 12.4818 4.51836 13.0936 5.13021C13.7055 5.74207 14.1222 6.52162 14.291 7.37029C14.4598 8.21895 14.3731 9.09862 14.042 9.89805C13.7109 10.6975 13.1501 11.3808 12.4306 11.8615C11.7112 12.3422 10.8653 12.5988 10 12.5988C8.84009 12.5976 7.72801 12.1362 6.90781 11.316C6.0876 10.4958 5.62627 9.38375 5.62503 8.22381Z" fill="#00887A"/>
</svg>
