<svg width="24" height="25" viewBox="0 0 24 25" fill="none" xmlns="http://www.w3.org/2000/svg">
<path d="M0 4.37109C0 2.16196 1.79086 0.371094 4 0.371094H20C22.2091 0.371094 24 2.16195 24 4.37109V20.3711C24 22.5802 22.2091 24.3711 20 24.3711H4C1.79086 24.3711 0 22.5802 0 20.3711V4.37109Z" fill="#E9F6F5"/>
<path d="M17.6962 9.04837C17.6458 8.83891 17.5491 8.64518 17.4141 8.48316C17.2791 8.32114 17.1098 8.19548 16.92 8.11655C15.0836 7.36428 12.1607 7.3711 12 7.3711C11.8393 7.3711 8.91643 7.36428 7.08 8.11655C6.89023 8.19548 6.72088 8.32114 6.58591 8.48316C6.45094 8.64518 6.35423 8.83891 6.30375 9.04837C6.165 9.61541 6 10.6518 6 12.3711C6 14.0904 6.165 15.1268 6.30375 15.6938C6.35415 15.9034 6.45083 16.0972 6.5858 16.2594C6.72077 16.4215 6.89017 16.5472 7.08 16.6262C8.83929 17.3461 11.5929 17.3711 11.9646 17.3711H12.0354C12.4071 17.3711 15.1623 17.3461 16.92 16.6262C17.1098 16.5472 17.2792 16.4215 17.4142 16.2594C17.5492 16.0972 17.6458 15.9034 17.6962 15.6938C17.835 15.1256 18 14.0904 18 12.3711C18 10.6518 17.835 9.61541 17.6962 9.04837ZM13.8332 12.5603L11.2618 14.3785C11.2295 14.4013 11.192 14.4144 11.1532 14.4164C11.1145 14.4184 11.0759 14.4092 11.0417 14.3898C11.0075 14.3704 10.9789 14.3415 10.959 14.3061C10.9391 14.2708 10.9285 14.2304 10.9286 14.1893V10.5529C10.9285 10.5118 10.9391 10.4714 10.959 10.4361C10.9789 10.4007 11.0075 10.3718 11.0417 10.3524C11.0759 10.333 11.1145 10.3238 11.1532 10.3258C11.192 10.3278 11.2295 10.3409 11.2618 10.3637L13.8332 12.1819C13.8626 12.2026 13.8867 12.2308 13.9034 12.2638C13.9201 12.2968 13.9288 12.3336 13.9288 12.3711C13.9288 12.4085 13.9201 12.4454 13.9034 12.4784C13.8867 12.5114 13.8626 12.5396 13.8332 12.5603Z" fill="#00887A"/>
</svg>
