<svg width="20" height="20" viewBox="0 0 20 20" fill="none" xmlns="http://www.w3.org/2000/svg">
<path d="M2.68281 9.55795L8.30781 3.93295C8.42509 3.81568 8.58415 3.74979 8.75 3.74979C8.91585 3.74979 9.07491 3.81568 9.19219 3.93295C9.30946 4.05023 9.37535 4.20929 9.37535 4.37514C9.37535 4.54099 9.30946 4.70005 9.19219 4.81733L4.63359 9.37514L16.875 9.37514C17.0408 9.37514 17.1997 9.44099 17.3169 9.5582C17.4342 9.67541 17.5 9.83438 17.5 10.0001C17.5 10.1659 17.4342 10.3249 17.3169 10.4421C17.1997 10.5593 17.0408 10.6251 16.875 10.6251L4.63359 10.6251L9.19219 15.183C9.30946 15.3002 9.37535 15.4593 9.37535 15.6251C9.37535 15.791 9.30946 15.9501 9.19219 16.0673C9.07491 16.1846 8.91585 16.2505 8.75 16.2505C8.58415 16.2505 8.42509 16.1846 8.30781 16.0673L2.68281 10.4423C2.6247 10.3843 2.5786 10.3154 2.54715 10.2395C2.5157 10.1636 2.49951 10.0823 2.49951 10.0001C2.49951 9.91801 2.5157 9.83668 2.54715 9.7608C2.5786 9.68493 2.6247 9.616 2.68281 9.55795Z" fill="#5B6060"/>
</svg>
