<svg width="48" height="49" viewBox="0 0 48 49" fill="none" xmlns="http://www.w3.org/2000/svg">
<path d="M0 24.7239C0 11.469 10.7452 0.723877 24 0.723877C37.2548 0.723877 48 11.469 48 24.7239C48 37.9787 37.2548 48.7239 24 48.7239C10.7452 48.7239 0 37.9787 0 24.7239Z" fill="#00887A"/>
<path d="M33.8866 32.7833C32.4236 30.153 30.169 28.267 27.5379 27.3729C28.8394 26.5673 29.8506 25.3396 30.4161 23.8784C30.9817 22.4173 31.0704 20.8034 30.6686 19.2848C30.2668 17.7661 29.3968 16.4266 28.1921 15.4719C26.9874 14.5173 25.5146 14.0002 24 14.0002C22.4854 14.0002 21.0126 14.5173 19.8079 15.4719C18.6032 16.4266 17.7332 17.7661 17.3314 19.2848C16.9296 20.8034 17.0183 22.4173 17.5839 23.8784C18.1494 25.3396 19.1606 26.5673 20.4621 27.3729C17.831 28.266 15.5764 30.152 14.1134 32.7833C14.0597 32.8743 14.0241 32.9755 14.0087 33.081C13.9933 33.1865 13.9984 33.2941 14.0236 33.3976C14.0488 33.501 14.0937 33.5982 14.1556 33.6833C14.2176 33.7684 14.2952 33.8397 14.3841 33.8931C14.473 33.9465 14.5712 33.9808 14.673 33.9941C14.7749 34.0073 14.8782 33.9992 14.977 33.9703C15.0758 33.9413 15.168 33.8921 15.2481 33.8255C15.3283 33.7589 15.3949 33.6762 15.4438 33.5824C17.2536 30.3299 20.4525 28.3879 24 28.3879C27.5475 28.3879 30.7464 30.3299 32.5562 33.5824C32.6051 33.6762 32.6717 33.7589 32.7519 33.8255C32.832 33.8921 32.9242 33.9413 33.023 33.9703C33.1218 33.9992 33.2251 34.0073 33.327 33.9941C33.4288 33.9808 33.527 33.9465 33.6159 33.8931C33.7048 33.8397 33.7824 33.7684 33.8444 33.6833C33.9063 33.5982 33.9512 33.501 33.9764 33.3976C34.0016 33.2941 34.0067 33.1865 33.9913 33.081C33.9758 32.9755 33.9403 32.8743 33.8866 32.7833ZM18.6206 21.1954C18.6206 20.089 18.9361 19.0074 19.5272 18.0875C20.1183 17.1675 20.9584 16.4505 21.9414 16.0271C22.9243 15.6037 24.006 15.4929 25.0495 15.7088C26.093 15.9246 27.0515 16.4574 27.8038 17.2398C28.5562 18.0221 29.0685 19.0189 29.2761 20.1041C29.4836 21.1892 29.3771 22.314 28.9699 23.3362C28.5628 24.3584 27.8733 25.2321 26.9886 25.8468C26.104 26.4615 25.0639 26.7896 24 26.7896C22.5738 26.788 21.2064 26.1981 20.1979 25.1493C19.1894 24.1006 18.6221 22.6786 18.6206 21.1954Z" fill="white"/>
</svg>
