<svg width="11" height="11" viewBox="0 0 11 11" fill="none" xmlns="http://www.w3.org/2000/svg">
<g clip-path="url(#clip0_184_5665)">
<path d="M5.5 0.5C4.51109 0.5 3.5444 0.793245 2.72215 1.34265C1.8999 1.89206 1.25904 2.67295 0.880605 3.58658C0.502166 4.50021 0.40315 5.50555 0.596076 6.47545C0.789002 7.44536 1.26521 8.33627 1.96447 9.03553C2.66373 9.73479 3.55465 10.211 4.52455 10.4039C5.49445 10.5969 6.49979 10.4978 7.41342 10.1194C8.32705 9.74096 9.10794 9.10009 9.65735 8.27785C10.2068 7.4556 10.5 6.48891 10.5 5.5C10.4986 4.17435 9.97137 2.90339 9.03399 1.96601C8.09661 1.02863 6.82565 0.5014 5.5 0.5ZM5.5 9.73077C4.66323 9.73077 3.84526 9.48264 3.14951 9.01775C2.45377 8.55287 1.9115 7.89212 1.59128 7.11904C1.27106 6.34597 1.18728 5.49531 1.35053 4.67462C1.51377 3.85393 1.91671 3.10008 2.5084 2.50839C3.10008 1.91671 3.85393 1.51377 4.67462 1.35052C5.49531 1.18728 6.34597 1.27106 7.11905 1.59128C7.89212 1.9115 8.55287 2.45376 9.01776 3.14951C9.48264 3.84526 9.73077 4.66323 9.73077 5.5C9.7295 6.62168 9.28335 7.69705 8.4902 8.4902C7.69705 9.28335 6.62168 9.7295 5.5 9.73077ZM6.26923 7.80769C6.26923 7.9097 6.22871 8.00753 6.15658 8.07966C6.08445 8.15178 5.98662 8.19231 5.88462 8.19231C5.6806 8.19231 5.48495 8.11126 5.34069 7.967C5.19643 7.82274 5.11539 7.62709 5.11539 7.42308V5.5C5.01338 5.5 4.91555 5.45948 4.84342 5.38735C4.77129 5.31522 4.73077 5.21739 4.73077 5.11538C4.73077 5.01338 4.77129 4.91555 4.84342 4.84342C4.91555 4.77129 5.01338 4.73077 5.11539 4.73077C5.3194 4.73077 5.51506 4.81181 5.65931 4.95607C5.80357 5.10033 5.88462 5.29599 5.88462 5.5V7.42308C5.98662 7.42308 6.08445 7.4636 6.15658 7.53573C6.22871 7.60786 6.26923 7.70568 6.26923 7.80769ZM4.73077 3.38461C4.73077 3.27051 4.76461 3.15897 4.828 3.06409C4.89139 2.96922 4.9815 2.89527 5.08691 2.85161C5.19233 2.80794 5.30833 2.79652 5.42025 2.81878C5.53216 2.84104 5.63496 2.89598 5.71564 2.97667C5.79632 3.05735 5.85127 3.16015 5.87353 3.27206C5.89579 3.38397 5.88437 3.49997 5.8407 3.60539C5.79703 3.71081 5.72309 3.80092 5.62821 3.86431C5.53334 3.9277 5.4218 3.96154 5.30769 3.96154C5.15468 3.96154 5.00794 3.90075 4.89975 3.79256C4.79155 3.68437 4.73077 3.53762 4.73077 3.38461Z" fill="#5B6060"/>
</g>
<defs>
<clipPath id="clip0_184_5665">
<rect width="10" height="10" fill="white" transform="translate(0.5 0.5)"/>
</clipPath>
</defs>
</svg>
