<svg width="20" height="21" viewBox="0 0 20 21" fill="none" xmlns="http://www.w3.org/2000/svg">
<path d="M17.3727 13.1035L13.6922 11.4543L13.682 11.4496C13.491 11.3679 13.2825 11.3351 13.0756 11.3542C12.8687 11.3733 12.6698 11.4437 12.4969 11.559C12.4765 11.5724 12.457 11.587 12.4383 11.6027L10.5367 13.2238C9.33204 12.6387 8.08829 11.4043 7.50313 10.2152L9.12657 8.28475C9.14219 8.26522 9.15704 8.24569 9.1711 8.22459C9.28394 8.05217 9.35239 7.85453 9.37039 7.64926C9.38838 7.44399 9.35534 7.23745 9.27423 7.04803V7.03865L7.62032 3.35194C7.51309 3.10449 7.3287 2.89835 7.09468 2.76431C6.86067 2.63027 6.58958 2.5755 6.32188 2.60819C5.26326 2.74749 4.29155 3.26738 3.58824 4.07076C2.88492 4.87414 2.49809 5.90607 2.50001 6.97381C2.50001 13.1769 7.54688 18.2238 13.75 18.2238C14.8177 18.2257 15.8497 17.8389 16.6531 17.1356C17.4564 16.4323 17.9763 15.4606 18.1156 14.4019C18.1484 14.1343 18.0937 13.8633 17.9598 13.6293C17.8259 13.3953 17.62 13.2109 17.3727 13.1035ZM13.75 16.9738C11.0987 16.9709 8.55687 15.9164 6.68214 14.0417C4.8074 12.1669 3.7529 9.62509 3.75001 6.97381C3.74707 6.21091 4.02192 5.47303 4.52324 4.89796C5.02456 4.32289 5.71806 3.94996 6.47423 3.84881C6.47392 3.85193 6.47392 3.85507 6.47423 3.85819L8.11485 7.53006L6.50001 9.46287C6.48362 9.48173 6.46873 9.50185 6.45548 9.52303C6.33791 9.70343 6.26894 9.91115 6.25525 10.126C6.24157 10.3409 6.28362 10.5557 6.37735 10.7496C7.08516 12.1972 8.54376 13.6449 10.007 14.3519C10.2023 14.4448 10.4184 14.4854 10.634 14.4698C10.8497 14.4542 11.0576 14.3829 11.2375 14.2629C11.2576 14.2494 11.2769 14.2348 11.2953 14.2191L13.1945 12.5988L16.8664 14.2433C16.8664 14.2433 16.8727 14.2433 16.875 14.2433C16.7751 15.0006 16.4027 15.6955 15.8275 16.198C15.2524 16.7006 14.5138 16.9764 13.75 16.9738Z" fill="#00887A"/>
</svg>
