<svg width="48" height="48" viewBox="0 0 48 48" fill="none" xmlns="http://www.w3.org/2000/svg">
<path d="M39 10.5H33.8025L31.2469 6.6675C31.11 6.46228 30.9245 6.29401 30.707 6.17757C30.4896 6.06114 30.2467 6.00015 30 6H18C17.7533 6.00015 17.5104 6.06114 17.293 6.17757C17.0755 6.29401 16.89 6.46228 16.7531 6.6675L14.1956 10.5H9C7.80653 10.5 6.66193 10.9741 5.81802 11.818C4.97411 12.6619 4.5 13.8065 4.5 15V36C4.5 37.1935 4.97411 38.3381 5.81802 39.182C6.66193 40.0259 7.80653 40.5 9 40.5H39C40.1935 40.5 41.3381 40.0259 42.182 39.182C43.0259 38.3381 43.5 37.1935 43.5 36V15C43.5 13.8065 43.0259 12.6619 42.182 11.818C41.3381 10.9741 40.1935 10.5 39 10.5ZM30.75 24.75C30.75 26.085 30.3541 27.3901 29.6124 28.5001C28.8707 29.6101 27.8165 30.4753 26.5831 30.9862C25.3497 31.4971 23.9925 31.6308 22.6831 31.3703C21.3738 31.1099 20.171 30.467 19.227 29.523C18.283 28.579 17.6401 27.3762 17.3797 26.0669C17.1192 24.7575 17.2529 23.4003 17.7638 22.1669C18.2747 20.9335 19.1399 19.8793 20.2499 19.1376C21.3599 18.3959 22.665 18 24 18C25.7902 18 27.5071 18.7112 28.773 19.977C30.0388 21.2429 30.75 22.9598 30.75 24.75Z" fill="#5B6060"/>
</svg>
