<svg width="20" height="20" viewBox="0 0 20 20" fill="none" xmlns="http://www.w3.org/2000/svg">
<path d="M9.99942 6.24966C9.25774 6.24966 8.53271 6.46959 7.91603 6.88165C7.29934 7.2937 6.8187 7.87937 6.53487 8.5646C6.25104 9.24982 6.17678 10.0038 6.32147 10.7312C6.46617 11.4587 6.82332 12.1269 7.34777 12.6513C7.87221 13.1758 8.5404 13.5329 9.26783 13.6776C9.99526 13.8223 10.7493 13.748 11.4345 13.4642C12.1197 13.1804 12.7054 12.6997 13.1174 12.083C13.5295 11.4664 13.7494 10.7413 13.7494 9.99966C13.7484 9.00542 13.353 8.05219 12.6499 7.34915C11.9469 6.64611 10.9937 6.25069 9.99942 6.24966ZM9.99942 12.4997C9.50496 12.4997 9.02161 12.353 8.61049 12.0783C8.19937 11.8036 7.87894 11.4132 7.68972 10.9564C7.5005 10.4996 7.45099 9.99689 7.54745 9.51193C7.64392 9.02698 7.88202 8.58152 8.23165 8.23189C8.58128 7.88226 9.02674 7.64416 9.51169 7.5477C9.99664 7.45123 10.4993 7.50074 10.9561 7.68996C11.4129 7.87918 11.8034 8.19961 12.0781 8.61073C12.3528 9.02186 12.4994 9.50521 12.4994 9.99966C12.4994 10.6627 12.236 11.2986 11.7672 11.7674C11.2983 12.2363 10.6625 12.4997 9.99942 12.4997ZM18.5885 8.37544C18.5711 8.28743 18.5349 8.2042 18.4825 8.1314C18.43 8.05861 18.3625 7.99795 18.2846 7.95357L15.9541 6.62544L15.9447 3.99888C15.9444 3.90842 15.9245 3.8191 15.8864 3.73709C15.8482 3.65508 15.7927 3.58234 15.7236 3.52388C14.8783 2.8088 13.9048 2.2608 12.8549 1.90903C12.7722 1.88105 12.6846 1.87069 12.5977 1.87863C12.5107 1.88657 12.4264 1.91263 12.3502 1.95513L9.99942 3.26919L7.64629 1.95278C7.57 1.91005 7.4856 1.88379 7.39853 1.87572C7.31146 1.86764 7.22367 1.87793 7.14082 1.90591C6.09172 2.26025 5.11933 2.81033 4.2752 3.527C4.20627 3.58538 4.15081 3.658 4.11264 3.73986C4.07447 3.82173 4.0545 3.9109 4.0541 4.00122L4.04239 6.63013L1.71192 7.95825C1.63395 8.00264 1.56645 8.06329 1.51401 8.13609C1.46157 8.20888 1.42542 8.29212 1.40801 8.38013C1.19473 9.45191 1.19473 10.5552 1.40801 11.627C1.42542 11.715 1.46157 11.7982 1.51401 11.871C1.56645 11.9438 1.63395 12.0045 1.71192 12.0489L4.04239 13.377L4.05176 16.0036C4.05204 16.094 4.07196 16.1833 4.11013 16.2654C4.1483 16.3474 4.20382 16.4201 4.27285 16.4786C5.11822 17.1936 6.09173 17.7416 7.1416 18.0934C7.22428 18.1214 7.3119 18.1318 7.39883 18.1238C7.48575 18.1159 7.57005 18.0898 7.64629 18.0473L9.99942 16.7301L12.3525 18.0465C12.4457 18.0984 12.5506 18.1253 12.6572 18.1247C12.7255 18.1246 12.7933 18.1136 12.858 18.0918C13.907 17.738 14.8794 17.1884 15.7236 16.4723C15.7926 16.4139 15.848 16.3413 15.8862 16.2595C15.9244 16.1776 15.9443 16.0884 15.9447 15.9981L15.9564 13.3692L18.2869 12.0411C18.3649 11.9967 18.4324 11.936 18.4848 11.8632C18.5373 11.7904 18.5734 11.7072 18.5908 11.6192C18.8029 10.5483 18.8021 9.44606 18.5885 8.37544ZM17.4166 11.1028L15.1846 12.3723C15.0868 12.4279 15.0058 12.5089 14.9502 12.6067C14.9049 12.6848 14.8572 12.7676 14.8088 12.8458C14.7468 12.9443 14.7138 13.0583 14.7135 13.1747L14.7018 15.6942C14.1018 16.1653 13.4334 16.5421 12.7197 16.8114L10.4682 15.5567C10.3747 15.505 10.2695 15.4781 10.1627 15.4786H10.1479C10.0533 15.4786 9.95801 15.4786 9.86348 15.4786C9.75167 15.4758 9.64113 15.5027 9.54317 15.5567L7.29004 16.8145C6.57481 16.5473 5.90459 16.1724 5.30254 15.7028L5.29395 13.1872C5.29356 13.0705 5.26055 12.9563 5.19864 12.8575C5.1502 12.7793 5.10254 12.7012 5.05801 12.6184C5.00279 12.5191 4.92183 12.4365 4.82364 12.3793L2.58926 11.1067C2.47363 10.3753 2.47363 9.63027 2.58926 8.89888L4.81738 7.627C4.91518 7.5714 4.99615 7.49042 5.05176 7.39263C5.09707 7.3145 5.14473 7.23169 5.19317 7.15357C5.25517 7.05505 5.2882 6.94107 5.28848 6.82466L5.3002 4.30513C5.90014 3.83399 6.56853 3.45725 7.28223 3.18794L9.53067 4.44263C9.62852 4.49687 9.73914 4.52385 9.85098 4.52075C9.94551 4.52075 10.0408 4.52075 10.1354 4.52075C10.2472 4.52355 10.3577 4.49659 10.4557 4.44263L12.7088 3.18482C13.424 3.45206 14.0942 3.82695 14.6963 4.29653L14.7049 6.81216C14.7053 6.9288 14.7383 7.043 14.8002 7.14185C14.8486 7.21997 14.8963 7.2981 14.9408 7.38091C14.996 7.48022 15.077 7.5628 15.1752 7.61997L17.4096 8.89263C17.5267 9.62459 17.5281 10.3704 17.4135 11.1028H17.4166Z" fill="#5B6060"/>
</svg>
