<svg width="21" height="21" viewBox="0 0 21 21" fill="none" xmlns="http://www.w3.org/2000/svg">
<path d="M18.4421 17.9288L14.5304 14.0179C15.6642 12.6567 16.2295 10.9109 16.1089 9.14348C15.9882 7.37609 15.1908 5.72326 13.8825 4.52882C12.5743 3.33438 10.8559 2.69029 9.08486 2.73054C7.31382 2.77079 5.62647 3.49228 4.37383 4.74492C3.12118 5.99756 2.39969 7.68491 2.35944 9.45595C2.3192 11.227 2.96328 12.9454 4.15772 14.2536C5.35217 15.5619 7.00499 16.3593 8.77238 16.48C10.5398 16.6006 12.2856 16.0353 13.6468 14.9015L17.5577 18.8132C17.6158 18.8713 17.6848 18.9173 17.7606 18.9488C17.8365 18.9802 17.9178 18.9964 17.9999 18.9964C18.0821 18.9964 18.1634 18.9802 18.2392 18.9488C18.3151 18.9173 18.3841 18.8713 18.4421 18.8132C18.5002 18.7551 18.5463 18.6862 18.5777 18.6103C18.6091 18.5345 18.6253 18.4531 18.6253 18.371C18.6253 18.2889 18.6091 18.2076 18.5777 18.1317C18.5463 18.0558 18.5002 17.9869 18.4421 17.9288ZM3.62493 9.62103C3.62493 8.50851 3.95483 7.42097 4.57292 6.49594C5.191 5.57092 6.06951 4.84995 7.09734 4.42421C8.12517 3.99846 9.25617 3.88707 10.3473 4.10411C11.4385 4.32115 12.4407 4.85688 13.2274 5.64355C14.0141 6.43022 14.5498 7.4325 14.7669 8.52364C14.9839 9.61479 14.8725 10.7458 14.4468 11.7736C14.021 12.8015 13.3 13.68 12.375 14.298C11.45 14.9161 10.3625 15.246 9.24993 15.246C7.7586 15.2444 6.32882 14.6512 5.27429 13.5967C4.21975 12.5421 3.62659 11.1124 3.62493 9.62103Z" fill="white"/>
</svg>
