<svg width="21" height="21" viewBox="0 0 21 21" fill="none" xmlns="http://www.w3.org/2000/svg">
<path d="M17.8172 11.2875L12.1922 16.9125C12.0749 17.0298 11.9159 17.0957 11.75 17.0957C11.5841 17.0957 11.4251 17.0298 11.3078 16.9125C11.1905 16.7952 11.1247 16.6362 11.1247 16.4703C11.1247 16.3045 11.1905 16.1454 11.3078 16.0281L15.8664 11.4703H3.625C3.45924 11.4703 3.30027 11.4045 3.18306 11.2873C3.06585 11.1701 3 11.0111 3 10.8453C3 10.6796 3.06585 10.5206 3.18306 10.4034C3.30027 10.2862 3.45924 10.2203 3.625 10.2203H15.8664L11.3078 5.66251C11.1905 5.54523 11.1247 5.38617 11.1247 5.22032C11.1247 5.05447 11.1905 4.89541 11.3078 4.77813C11.4251 4.66086 11.5841 4.59497 11.75 4.59497C11.9159 4.59497 12.0749 4.66086 12.1922 4.77813L17.8172 10.4031C17.8753 10.4612 17.9214 10.5301 17.9529 10.606C17.9843 10.6819 18.0005 10.7632 18.0005 10.8453C18.0005 10.9275 17.9843 11.0088 17.9529 11.0847C17.9214 11.1605 17.8753 11.2295 17.8172 11.2875Z" fill="white"/>
</svg>
