<svg width="92" height="92" viewBox="0 0 92 92" fill="none" xmlns="http://www.w3.org/2000/svg">
<path d="M0 46C0 20.5949 20.5949 0 46 0C71.4051 0 92 20.5949 92 46C92 71.4051 71.4051 92 46 92C20.5949 92 0 71.4051 0 46Z" fill="#2FE879"/>
<path d="M68.1578 32.4539C68.6971 32.9854 69 33.7058 69 34.4569C69 35.208 68.6971 35.9284 68.1578 36.4598L40.3212 63.8586C39.7812 64.3894 39.0493 64.6875 38.2862 64.6875C37.5231 64.6875 36.7912 64.3894 36.2513 63.8586L23.7728 51.5764C23.2644 51.0387 22.9875 50.3281 23.0004 49.5937C23.0133 48.8594 23.3149 48.1585 23.8419 47.6385C24.3702 47.1198 25.0823 46.823 25.8283 46.8103C26.5744 46.7976 27.2965 47.0701 27.8427 47.5705L38.2862 57.8497L64.0879 32.4539C64.6279 31.9231 65.3598 31.625 66.1229 31.625C66.886 31.625 67.6179 31.9231 68.1578 32.4539Z" fill="white"/>
</svg>
