<svg width="120" height="120" viewBox="0 0 120 120" fill="none" xmlns="http://www.w3.org/2000/svg">
<circle cx="60" cy="60" r="60" fill="#FFE7B3"/>
<g clip-path="url(#clip0_208_14545)">
<path d="M27.8142 51.2254L90.1936 50.7732L91.9338 93.1828L27.3408 92.5852L27.8142 51.2254Z" fill="#00887A"/>
<path d="M27.8145 51.2254L57.3367 27.3362C58.5876 26.326 60.3754 26.3313 61.6184 27.3494L90.1939 50.7705" fill="#00887A"/>
<g opacity="0.3">
<path d="M27.8145 51.2254L57.3367 27.3362C58.5876 26.326 60.3754 26.3313 61.6184 27.3494L90.1939 50.7705" fill="black"/>
</g>
<path d="M27.3407 92.5851C27.264 92.5111 32.2571 87.0604 38.4932 80.4091C44.732 73.7552 49.852 68.4236 49.9287 68.495C50.0054 68.569 45.0149 74.0197 38.7736 80.6736C32.5401 87.3223 27.4201 92.6565 27.3407 92.5851Z" fill="#263238"/>
<path d="M91.933 93.1828C91.8536 93.2542 86.9901 87.912 81.0714 81.2528C75.15 74.5909 70.4187 69.135 70.4981 69.0636C70.5774 68.9922 75.4409 74.3344 81.3596 80.9962C87.2784 87.6555 92.0123 93.114 91.933 93.1828Z" fill="#263238"/>
<g opacity="0.5">
<path d="M90.1939 50.7731L58.8706 75.7968L27.8145 51.2253" fill="black"/>
</g>
<path d="M30.9553 53.5422L30.8574 34.0616L85.4801 33.4137L86.0963 53.9124L58.8669 75.469L30.9553 53.5422Z" fill="#FEC240"/>
<path d="M30.9556 53.5421C30.9556 53.5421 31.1328 53.6743 31.4687 53.9335C31.8045 54.1953 32.3017 54.5814 32.9497 55.0865C34.2482 56.1021 36.1523 57.591 38.5854 59.4952C43.4489 63.3088 50.4282 68.7806 58.9016 75.4213H58.8329C66.6769 69.209 75.9835 61.8357 86.0543 53.8568L86.0279 53.9123C85.9115 50.0009 85.7872 45.899 85.6602 41.7231C85.5756 38.9118 85.4936 36.135 85.4116 33.4136L85.4804 33.4797C63.469 33.731 44.0519 33.9505 30.8577 34.1012L30.9001 34.0563C30.9212 40.1866 30.9371 45.0527 30.9503 48.3903C30.953 50.0591 30.9556 51.3444 30.9582 52.2144C30.9582 52.6482 30.9582 52.9788 30.9582 53.2009C30.9582 53.4231 30.9556 53.5368 30.9556 53.5368C30.9556 53.5368 30.9503 53.4257 30.9477 53.2062C30.9477 52.984 30.9424 52.6561 30.9371 52.2224C30.9291 51.3523 30.9212 50.0696 30.908 48.4035C30.8868 45.0633 30.8551 40.1892 30.8154 34.0536V34.0087H30.8604C44.0519 33.8473 63.469 33.6093 85.4804 33.3369H85.5465V33.403C85.6312 36.127 85.7131 38.9039 85.7978 41.7125C85.9221 45.8884 86.0464 49.9903 86.1627 53.9017V53.9361L86.1363 53.9573C76.0602 61.9283 66.7483 69.2936 58.9016 75.5033L58.8673 75.5297L58.8329 75.5033C50.3673 68.8387 43.3934 63.3484 38.5325 59.5243C36.1074 57.6122 34.2112 56.1153 32.9206 55.0971C32.2779 54.5893 31.786 54.1979 31.4528 53.9335C31.1222 53.6716 30.9556 53.5341 30.9556 53.5341V53.5421Z" fill="#263238"/>
<path d="M76.8495 43.2225C76.8495 43.2596 68.4977 43.3415 58.1942 43.405C47.8879 43.4685 39.5361 43.487 39.5361 43.45C39.5361 43.413 47.8879 43.331 58.1942 43.2675C68.4951 43.204 76.8495 43.1855 76.8495 43.2225Z" fill="#263238"/>
<path d="M76.8495 48.7261C76.8495 48.7631 68.4977 48.8451 58.1942 48.9086C47.8879 48.972 39.5361 48.9905 39.5361 48.9535C39.5361 48.9165 47.8879 48.8345 58.1942 48.771C68.4951 48.7076 76.8495 48.6891 76.8495 48.7261Z" fill="#263238"/>
<path d="M76.8495 55.0706C76.8495 55.1076 68.4977 55.1896 58.1942 55.253C47.8879 55.3165 39.5361 55.335 39.5361 55.298C39.5361 55.261 47.8879 55.179 58.1942 55.1155C68.4951 55.052 76.8495 55.0335 76.8495 55.0706Z" fill="#263238"/>
<path d="M76.8487 61.4125C76.8487 61.4495 68.8804 61.5289 59.0502 61.5897C49.2174 61.6505 41.249 61.6664 41.249 61.6294C41.249 61.5923 49.2174 61.513 59.0475 61.4522C68.8751 61.3913 76.8461 61.3755 76.8461 61.4125H76.8487Z" fill="#263238"/>
<path d="M69.862 66.9793C69.862 66.9793 69.7879 66.9899 69.6425 66.9952C69.4864 67.0005 69.2775 67.0058 69.0157 67.0111C68.4577 67.019 67.6722 67.0322 66.7069 67.0481C64.7472 67.0772 62.0603 67.1142 59.093 67.1565C56.1177 67.2068 53.4255 67.2226 51.4764 67.2253C50.5111 67.2253 49.7282 67.22 49.1676 67.22C48.9058 67.2173 48.6968 67.2121 48.5408 67.2121C48.398 67.2094 48.3213 67.2041 48.3213 67.1988C48.3213 67.1935 48.3953 67.1883 48.5408 67.183C48.6968 67.1777 48.9058 67.1724 49.1676 67.1671C49.7256 67.1592 50.5111 67.1459 51.4764 67.1301C53.436 67.101 56.123 67.064 59.0903 67.0216C62.0629 66.9714 64.7552 66.9555 66.7043 66.9529C67.6696 66.9529 68.4524 66.9582 69.0131 66.9582C69.2749 66.9608 69.4838 66.9635 69.6398 66.9661C69.7826 66.9687 69.8593 66.974 69.8593 66.9793H69.862Z" fill="#263238"/>
<path d="M62.8301 72.3322C62.8301 72.3692 61.0503 72.401 58.8526 72.401C56.6549 72.401 54.875 72.3692 54.875 72.3322C54.875 72.2952 56.6549 72.2634 58.8526 72.2634C61.0503 72.2634 62.8301 72.2952 62.8301 72.3322Z" fill="#263238"/>
<path d="M81.2156 68.0108C84.8598 68.0108 87.814 65.0566 87.814 61.4124C87.814 57.7682 84.8598 54.814 81.2156 54.814C77.5714 54.814 74.6172 57.7682 74.6172 61.4124C74.6172 65.0566 77.5714 68.0108 81.2156 68.0108Z" fill="#263238"/>
<path d="M79.4978 68.0108C83.142 68.0108 86.0962 65.0566 86.0962 61.4124C86.0962 57.7682 83.142 54.814 79.4978 54.814C75.8536 54.814 72.8994 57.7682 72.8994 61.4124C72.8994 65.0566 75.8536 68.0108 79.4978 68.0108Z" fill="#455A64"/>
<path d="M80.3374 58.342V63.8271H79.3192V59.1963H78.1582V58.342H80.3374Z" fill="#EBEBEB"/>
</g>
<defs>
<clipPath id="clip0_208_14545">
<rect width="64.593" height="66.6003" fill="white" transform="translate(27.3418 26.5823)"/>
</clipPath>
</defs>
</svg>
