<svg width="120" height="121" viewBox="0 0 120 121" fill="none" xmlns="http://www.w3.org/2000/svg">
<circle cx="60" cy="60.8452" r="60" fill="#FFE7B3"/>
<mask id="mask0_208_14549" style="mask-type:luminance" maskUnits="userSpaceOnUse" x="0" y="2" width="120" height="120">
<path d="M60.1683 121.179C92.9782 121.179 119.576 94.5815 119.576 61.7716C119.576 28.9617 92.9782 2.36401 60.1683 2.36401C27.3584 2.36401 0.760742 28.9617 0.760742 61.7716C0.760742 94.5815 27.3584 121.179 60.1683 121.179Z" fill="white"/>
</mask>
<g mask="url(#mask0_208_14549)">
<path d="M85.1883 47.1118H35.1619C30.405 47.1118 26.5488 50.968 26.5488 55.7249V171.678C26.5488 176.435 30.405 180.291 35.1619 180.291H85.1883C89.9451 180.291 93.8013 176.435 93.8013 171.678V55.7249C93.8013 50.968 89.9451 47.1118 85.1883 47.1118Z" fill="#455A64"/>
<path d="M92.7441 171.675L92.7441 55.7249C92.7441 51.5519 89.3612 48.1689 85.1882 48.1689H35.1652C30.9922 48.1689 27.6092 51.5519 27.6092 55.7249L27.6092 171.675C27.6092 175.848 30.9922 179.231 35.1652 179.231H85.1882C89.3612 179.231 92.7441 175.848 92.7441 171.675Z" fill="#263238"/>
<path d="M55.3454 52.3668C54.9342 52.3668 54.5977 52.0303 54.5977 51.619C54.5977 51.2077 54.9342 50.8712 55.3454 50.8712H64.9646C65.3759 50.8712 65.7124 51.2077 65.7124 51.619C65.7124 52.0303 65.3759 52.3668 64.9646 52.3668H55.3454Z" fill="#455A64"/>
<path d="M50.1892 52.3669C49.7779 52.3669 49.4414 52.0304 49.4414 51.6191C49.4414 51.2078 49.7779 50.8713 50.1892 50.8713C50.6005 50.8713 50.937 51.2078 50.937 51.6191C50.937 52.0304 50.6005 52.3669 50.1892 52.3669Z" fill="#455A64"/>
<path d="M52.9421 52.3669C52.5308 52.3669 52.1943 52.0304 52.1943 51.6191C52.1943 51.2078 52.5308 50.8713 52.9421 50.8713C53.3534 50.8713 53.6899 51.2078 53.6899 51.6191C53.6899 52.0304 53.3534 52.3669 52.9421 52.3669Z" fill="#455A64"/>
<path d="M70.1648 52.3669C69.7535 52.3669 69.417 52.0304 69.417 51.6191C69.417 51.2078 69.7535 50.8713 70.1648 50.8713C70.576 50.8713 70.9125 51.2078 70.9125 51.6191C70.9125 52.0304 70.576 52.3669 70.1648 52.3669Z" fill="#455A64"/>
<path d="M67.4118 52.3669C67.0006 52.3669 66.6641 52.0304 66.6641 51.6191C66.6641 51.2078 67.0006 50.8713 67.4118 50.8713C67.8231 50.8713 68.1596 51.2078 68.1596 51.6191C68.1596 52.0304 67.8231 52.3669 67.4118 52.3669Z" fill="#455A64"/>
<path d="M85.4497 49.0697H76.0073C74.5118 49.0697 73.1963 50.0588 72.7783 51.4932L72.6185 52.0438C72.1732 53.5802 70.7661 54.6372 69.1651 54.6372H51.1879C49.5869 54.6372 48.1798 53.5802 47.7345 52.0438L47.5747 51.4932C47.1567 50.0588 45.8412 49.0697 44.3457 49.0697H35.7768C32.1025 49.0697 29.125 52.0472 29.125 55.7215V171.206C29.125 174.662 31.9258 177.463 35.3825 177.463H85.5619C88.6923 177.463 91.228 174.928 91.228 171.797V54.848C91.228 51.6563 88.6414 49.0697 85.4497 49.0697Z" fill="#FAFAFA"/>
<path d="M93.8795 91.3633H93.8013V76.0576H93.8795C94.08 76.0576 94.2432 76.2208 94.2432 76.4213V91.003C94.2432 91.2036 94.08 91.3667 93.8795 91.3667V91.3633Z" fill="#455A64"/>
<path d="M26.4535 85.4898H26.5487V95.1804H26.4535C26.253 95.1804 26.0898 95.0172 26.0898 94.8167V85.8501C26.0898 85.6496 26.253 85.4865 26.4535 85.4865V85.4898Z" fill="#455A64"/>
<path d="M26.4535 72.8286H26.5487V82.5191H26.4535C26.253 82.5191 26.0898 82.356 26.0898 82.1554V73.1889C26.0898 72.9883 26.253 72.8252 26.4535 72.8252V72.8286Z" fill="#455A64"/>
<path d="M26.4772 63.3251H26.5486V67.8321H26.4772C26.3005 67.8321 26.1543 67.6894 26.1543 67.5092V63.648C26.1543 63.4712 26.2971 63.3251 26.4772 63.3251Z" fill="#455A64"/>
<path d="M76.6156 53.4033H76.1533V54.0525H76.6156V53.4033Z" fill="#263238"/>
<path d="M77.3666 53.1145H76.9043V54.0492H77.3666V53.1145Z" fill="#263238"/>
<path d="M78.1185 52.897H77.6562V54.0492H78.1185V52.897Z" fill="#263238"/>
<path d="M78.8695 52.4789H78.4072V54.0492H78.8695V52.4789Z" fill="#263238"/>
<path d="M85.6878 54.0831H83.3697C83.2779 54.0831 83.2031 54.0084 83.2031 53.9166V52.7643C83.2031 52.6726 83.2779 52.5978 83.3663 52.5978H85.6878C85.6878 52.5978 85.7116 52.6012 85.7184 52.6114C85.7252 52.6182 85.732 52.6318 85.732 52.642V53.0227H85.9801C86.0039 53.0227 86.0209 53.043 86.0209 53.0668V53.6209C86.0209 53.6447 86.0005 53.6617 85.9801 53.6617H85.732V54.0424C85.732 54.0661 85.7116 54.0831 85.6912 54.0831H85.6878ZM85.647 52.6828H83.3697C83.3255 52.6828 83.2915 52.7201 83.2915 52.7643V53.9166C83.2915 53.9608 83.3289 53.9982 83.3731 53.9982H85.6504V53.6175C85.6504 53.5937 85.6708 53.5767 85.6912 53.5767H85.9393V53.1076H85.6912C85.6674 53.1076 85.6504 53.0872 85.6504 53.0668V52.6862L85.647 52.6828Z" fill="#263238"/>
<path d="M83.4785 53.8079V52.8732H85.4567V53.2946V53.3864V53.8079H83.4785Z" fill="#263238"/>
<path d="M81.0821 53.9948C81.0821 53.8996 81.0073 53.8248 80.9121 53.8248C80.817 53.8248 80.7422 53.8996 80.7422 53.9948C80.7422 54.09 80.817 54.1647 80.9121 54.1647C81.0073 54.1647 81.0821 54.09 81.0821 53.9948Z" fill="#263238"/>
<path d="M80.334 53.5835L80.5515 53.801C80.6433 53.7093 80.7725 53.6515 80.9118 53.6515C81.0512 53.6515 81.1803 53.7093 81.2721 53.801L81.4896 53.5835C81.3401 53.4339 81.1361 53.3422 80.9118 53.3422C80.6875 53.3422 80.4835 53.4339 80.334 53.5835Z" fill="#263238"/>
<path d="M80.9119 52.8629C80.555 52.8629 80.2287 53.0091 79.9941 53.2436L80.2117 53.4611C80.3918 53.281 80.64 53.1688 80.9153 53.1688C81.1906 53.1688 81.4387 53.281 81.6189 53.4611L81.8364 53.2436C81.6019 53.0091 81.2756 52.8629 80.9187 52.8629H80.9119Z" fill="#263238"/>
<path d="M79.6406 52.8935L79.8582 53.1111C80.1267 52.8426 80.5006 52.6726 80.9118 52.6726C81.3231 52.6726 81.697 52.8392 81.9655 53.1111L82.1831 52.8935C81.8568 52.5672 81.4081 52.3667 80.9118 52.3667C80.4156 52.3667 79.9669 52.5672 79.6406 52.8935Z" fill="#263238"/>
<path d="M35.3421 66.0885H86.3916C87.9484 66.0885 89.2162 67.3529 89.2162 68.9131V81.4418C89.2162 82.9985 87.9518 84.2663 86.3916 84.2663H35.3421C33.7854 84.2663 32.5176 83.0019 32.5176 81.4418V68.9131C32.5176 67.3563 33.782 66.0885 35.3421 66.0885Z" fill="#FAFAFA"/>
<path d="M86.3915 84.2663C86.3915 84.2663 86.5173 84.2595 86.762 84.2289C87.0033 84.1949 87.3704 84.1167 87.7851 83.872C88.193 83.6307 88.662 83.2194 88.9407 82.5736C89.0801 82.2541 89.1685 81.8836 89.1753 81.4791C89.1753 81.0712 89.1753 80.6395 89.1753 80.1841C89.1719 78.3486 89.1651 76.1053 89.1583 73.5051C89.1583 72.2032 89.1515 70.8097 89.1515 69.3345C89.1515 68.964 89.1583 68.5935 89.0631 68.2366C88.9713 67.8797 88.8048 67.533 88.5736 67.2339C88.1148 66.6289 87.3704 66.2176 86.5716 66.1768C73.4583 66.1836 55.3519 66.1904 35.3522 66.2006C34.7506 66.2074 34.149 66.3978 33.6799 66.7751C33.2075 67.1421 32.8574 67.6656 32.718 68.2434C32.6398 68.5357 32.6228 68.8212 32.6296 69.134V70.0551C32.6296 70.6669 32.6296 71.2787 32.6296 71.8871C32.6296 74.3242 32.6296 76.7239 32.6296 79.0828C32.6296 79.6708 32.6296 80.2589 32.6296 80.8435C32.6296 81.1324 32.6228 81.4315 32.6432 81.7068C32.6738 81.9855 32.7418 82.2575 32.8506 82.5158C33.0749 83.0256 33.4488 83.4709 33.9212 83.7564C34.3903 84.0555 34.9409 84.1847 35.4984 84.1677C37.7655 84.1677 39.9884 84.1677 42.1536 84.1711C50.821 84.1813 58.6251 84.1881 65.1818 84.1949C71.735 84.2085 77.0375 84.2221 80.7084 84.2289C82.537 84.2391 83.9578 84.2459 84.9299 84.2493C85.4092 84.2527 85.7763 84.2561 86.0278 84.2595C86.2759 84.2629 86.4017 84.2697 86.4017 84.2697C86.4017 84.2697 86.2759 84.2765 86.0278 84.2799C85.7763 84.2799 85.4092 84.2867 84.9299 84.2901C83.9578 84.2935 82.537 84.3003 80.7084 84.3105C77.0375 84.3173 71.735 84.3309 65.1818 84.3444C58.6251 84.3512 50.821 84.358 42.1536 84.3682C39.985 84.3682 37.7655 84.3682 35.4984 84.3716C34.9239 84.392 34.3155 84.2527 33.8159 83.9332C33.3094 83.6239 32.9049 83.148 32.6636 82.6008C32.548 82.322 32.4733 82.0297 32.4427 81.7306C32.4189 81.4247 32.4325 81.1392 32.4291 80.8469C32.4291 80.2623 32.4291 79.6742 32.4291 79.0862C32.4291 76.7273 32.4291 74.3276 32.4291 71.8905C32.4291 71.2821 32.4291 70.6703 32.4291 70.0585V69.1374C32.4223 68.8348 32.4393 68.5017 32.5243 68.1958C32.6772 67.5738 33.0545 67.0096 33.5609 66.6119C34.064 66.2074 34.7166 66.0001 35.3624 65.9933C55.3655 66.0103 73.4753 66.0239 86.5886 66.0341C87.4316 66.0817 88.2133 66.5167 88.696 67.1557C88.9407 67.4718 89.1141 67.8355 89.2093 68.2128C89.3112 68.5901 89.301 68.981 89.2976 69.3447C89.2976 70.8199 89.2908 72.2134 89.2908 73.5153C89.284 76.1189 89.2772 78.3588 89.2738 80.1943C89.2738 80.6531 89.2704 81.0848 89.267 81.4927C89.2602 81.904 89.1651 82.2847 89.0189 82.611C88.7266 83.267 88.2439 83.6816 87.8259 83.9196C87.401 84.1609 87.0271 84.2357 86.7824 84.2629C86.5342 84.2901 86.4085 84.2799 86.4085 84.2799L86.3915 84.2663Z" fill="#263238"/>
<path d="M85.1341 69.8511C85.1069 69.8511 85.0797 69.8409 85.0593 69.8205C85.0219 69.7798 85.0219 69.7152 85.0593 69.6778L86.4563 68.3386C86.4971 68.3012 86.5616 68.3012 86.599 68.3386C86.6364 68.3794 86.6364 68.444 86.599 68.4813L85.202 69.8205C85.1817 69.8409 85.1579 69.8477 85.1307 69.8477L85.1341 69.8511Z" fill="#263238"/>
<path d="M86.5244 69.8579C86.5006 69.8579 86.4734 69.8477 86.453 69.8273L85.0697 68.4779C85.0289 68.4371 85.0289 68.3759 85.0697 68.3352C85.107 68.2944 85.1716 68.2944 85.2124 68.3352L86.5958 69.6846C86.6366 69.7253 86.6366 69.7865 86.5958 69.8273C86.5754 69.8477 86.5482 69.8579 86.5244 69.8579Z" fill="#263238"/>
<path d="M44.7379 78.7088L44.1668 77.8998C43.8235 77.4138 43.64 76.8325 43.64 76.2377V74.4226C43.64 72.9407 42.5489 71.7137 41.1281 71.4961V70.6294C41.1281 70.4084 40.948 70.2317 40.7304 70.2317C40.5095 70.2317 40.3328 70.4118 40.3328 70.6294V71.4825C38.861 71.6559 37.7189 72.9067 37.7189 74.4226V76.3023C37.7189 76.9481 37.5048 77.5769 37.1037 78.0834L36.6143 78.7088H44.7379Z" fill="#2FE879"/>
<path d="M40.248 80.0276C40.6865 80.2112 41.227 80.1194 41.5771 79.7999C41.73 79.6605 41.8456 79.4804 41.9136 79.2866L39.5479 79.2697C39.6634 79.6062 39.9217 79.8917 40.2514 80.031L40.248 80.0276Z" fill="#2FE879"/>
<path d="M76.6326 72.2304C76.6326 72.2882 70.2833 72.3357 62.4487 72.3357C54.614 72.3357 48.2646 72.2882 48.2646 72.2304C48.2646 72.1726 54.614 72.125 62.4487 72.125C70.2833 72.125 76.6326 72.1726 76.6326 72.2304Z" fill="#263238"/>
<path d="M83.3185 75.6634C83.3185 75.7211 75.4702 75.7687 65.7933 75.7687C56.1163 75.7687 48.2646 75.7211 48.2646 75.6634C48.2646 75.6056 56.1095 75.558 65.7933 75.558C75.477 75.558 83.3185 75.6056 83.3185 75.6634Z" fill="#E0E0E0"/>
<path d="M83.3185 77.7197C83.3185 77.7775 75.4702 77.8251 65.7933 77.8251C56.1163 77.8251 48.2646 77.7775 48.2646 77.7197C48.2646 77.662 56.1095 77.6144 65.7933 77.6144C75.477 77.6144 83.3185 77.662 83.3185 77.7197Z" fill="#E0E0E0"/>
</g>
</svg>
