<svg width="160" height="68" viewBox="0 0 160 68" fill="none" xmlns="http://www.w3.org/2000/svg">
<path fill-rule="evenodd" clip-rule="evenodd" d="M14.0712 62.7185C17.2226 64.8168 20.7268 66.4246 24.4895 67.4477C28.2522 66.4246 31.7564 64.8168 34.9078 62.7185L34.9338 62.7098C38.417 60.3875 41.4842 57.4932 43.9796 54.1397C45.3112 52.3531 46.4765 50.4382 47.4579 48.4191C48.5945 46.0806 48.979 43.4693 48.979 40.8692V8.75025C48.1559 8.81958 47.3068 8.85424 46.4663 8.85424C45.6258 8.85424 44.7941 8.81958 43.9796 8.75892C43.2778 8.70693 42.5846 8.62894 41.9001 8.52495H41.8741C39.6127 8.19567 37.4292 7.63242 35.3497 6.85253H35.3411C33.5562 6.18529 31.8579 5.36208 30.229 4.39155C29.3539 3.86296 28.4961 3.29104 27.6556 2.6758C26.5438 1.85646 25.4884 0.964531 24.4895 0C23.4906 0.964531 22.4352 1.85646 21.3234 2.6758C20.4829 3.29104 19.6251 3.86296 18.75 4.39155C17.1211 5.36208 15.4228 6.18529 13.6379 6.85253H13.6293C11.5498 7.63242 9.36634 8.19567 7.1049 8.52496H7.07891C6.39441 8.62894 5.70125 8.70693 4.99942 8.75892C4.18496 8.81958 3.35317 8.85424 2.51271 8.85424C1.67225 8.85424 0.82313 8.81958 0 8.75026V40.8692C0 43.4693 0.38451 46.0806 1.52116 48.4191C2.50253 50.4382 3.6678 52.3531 4.99942 54.1397C7.4948 57.4932 10.562 60.3875 14.0452 62.7098L14.0712 62.7185Z" fill="#009587"/>
<path d="M43.971 39.8792C43.971 42.2656 43.6622 44.6697 42.6373 46.8248C39.1261 54.2084 32.4938 59.8248 24.4498 61.9646C24.4238 61.9559 24.4065 61.9472 24.3805 61.9472C22.8209 61.5226 21.3133 60.9767 19.875 60.3095H19.8663C13.7178 57.4577 8.76578 52.4483 5.9919 46.2577C5.06671 44.1929 4.79004 41.9149 4.79004 39.6523V13.5682C6.25434 13.5162 7.69265 13.3689 9.10497 13.1263C12.1289 12.6063 15.0055 11.6532 17.6742 10.3447C18.246 10.0674 18.8092 9.77276 19.3551 9.4608C19.3724 9.45214 19.3897 9.44347 19.4071 9.42614C20.6028 8.74158 21.7465 7.99635 22.8296 7.17314C23.3148 6.80919 23.7827 6.42791 24.2419 6.03797C24.3805 5.91665 24.3372 5.95998 24.3805 5.91665C24.3978 5.90798 24.4065 5.89065 24.4238 5.88199C24.5711 6.01197 24.7184 6.14195 24.8657 6.26327H24.8744C25.247 6.58389 25.6282 6.88718 26.0181 7.1818C26.356 7.4331 26.7026 7.68439 27.0492 7.92703C27.7337 8.40362 28.4442 8.85423 29.1633 9.27883C29.1806 9.27883 29.198 9.29616 29.2066 9.29616C29.9518 9.7381 30.7143 10.1367 31.4941 10.5093C31.5201 10.518 31.5461 10.5353 31.5634 10.544C32.1439 10.8126 32.7244 11.0726 33.3223 11.3065H33.3309C35.5664 12.2077 37.9318 12.8663 40.3839 13.2216C41.5536 13.4036 42.7579 13.5162 43.971 13.5595V39.8792Z" fill="white"/>
<path d="M24.3804 58.6024C29.6249 56.9664 34.8978 52.7417 38.3139 47.316C39.8971 44.8013 40.3837 41.796 40.3837 38.8244V34.0879H24.3804V58.6024Z" fill="#FEC240"/>
<path d="M9.69421 16.8177V16.8264C9.26098 16.8957 8.82776 16.9564 8.39453 17.017V34.1659L24.3979 34.0966V10.6826C20.3862 13.7588 14.9016 15.9425 9.70287 16.8177H9.69421Z" fill="#FEC240"/>
<g clip-path="url(#clip0_195_1053)">
<path d="M19.7277 22.5621H17.7436C17.4429 22.5621 17.1545 22.6816 16.9419 22.8942C16.7293 23.1068 16.6098 23.3952 16.6098 23.6959V26.8138C16.6098 26.8889 16.5799 26.961 16.5268 27.0142C16.4736 27.0673 16.4015 27.0972 16.3264 27.0972C16.2512 27.0972 16.1791 27.0673 16.1259 27.0142C16.0728 26.961 16.0429 26.8889 16.0429 26.8138V23.6959C16.0429 23.3952 15.9235 23.1068 15.7108 22.8942C15.4982 22.6816 15.2098 22.5621 14.9091 22.5621H12.925C12.7747 22.5621 12.6305 22.6218 12.5242 22.7281C12.4179 22.8345 12.3582 22.9786 12.3582 23.129V27.6641C12.3582 27.8144 12.4179 27.9586 12.5242 28.0649C12.6305 28.1712 12.7747 28.231 12.925 28.231H15.1926C15.4181 28.231 15.6344 28.3206 15.7939 28.48C15.9533 28.6395 16.0429 28.8558 16.0429 29.0813C16.0429 29.1565 16.0728 29.2286 16.1259 29.2817C16.1791 29.3349 16.2512 29.3647 16.3264 29.3647C16.4015 29.3647 16.4736 29.3349 16.5268 29.2817C16.5799 29.2286 16.6098 29.1565 16.6098 29.0813C16.6098 28.8558 16.6994 28.6395 16.8589 28.48C17.0183 28.3206 17.2346 28.231 17.4601 28.231H19.7277C19.878 28.231 20.0222 28.1712 20.1285 28.0649C20.2348 27.9586 20.2946 27.8144 20.2946 27.6641V23.129C20.2946 22.9786 20.2348 22.8345 20.1285 22.7281C20.0222 22.6218 19.878 22.5621 19.7277 22.5621ZM19.1608 26.8138H17.7436C17.6684 26.8138 17.5963 26.7839 17.5432 26.7307C17.49 26.6776 17.4601 26.6055 17.4601 26.5303C17.4601 26.4551 17.49 26.383 17.5432 26.3299C17.5963 26.2767 17.6684 26.2469 17.7436 26.2469H19.1608C19.236 26.2469 19.3081 26.2767 19.3612 26.3299C19.4144 26.383 19.4442 26.4551 19.4442 26.5303C19.4442 26.6055 19.4144 26.6776 19.3612 26.7307C19.3081 26.7839 19.236 26.8138 19.1608 26.8138ZM19.1608 25.68H17.7436C17.6684 25.68 17.5963 25.6501 17.5432 25.597C17.49 25.5438 17.4601 25.4717 17.4601 25.3965C17.4601 25.3214 17.49 25.2493 17.5432 25.1961C17.5963 25.143 17.6684 25.1131 17.7436 25.1131H19.1608C19.236 25.1131 19.3081 25.143 19.3612 25.1961C19.4144 25.2493 19.4442 25.3214 19.4442 25.3965C19.4442 25.4717 19.4144 25.5438 19.3612 25.597C19.3081 25.6501 19.236 25.68 19.1608 25.68ZM19.1608 24.5462H17.7436C17.6684 24.5462 17.5963 24.5163 17.5432 24.4632C17.49 24.41 17.4601 24.3379 17.4601 24.2628C17.4601 24.1876 17.49 24.1155 17.5432 24.0623C17.5963 24.0092 17.6684 23.9793 17.7436 23.9793H19.1608C19.236 23.9793 19.3081 24.0092 19.3612 24.0623C19.4144 24.1155 19.4442 24.1876 19.4442 24.2628C19.4442 24.3379 19.4144 24.41 19.3612 24.4632C19.3081 24.5163 19.236 24.5462 19.1608 24.5462Z" fill="#00887A"/>
</g>
<g clip-path="url(#clip1_195_1053)">
<path d="M35.5439 22.2787H29.3081C29.1577 22.2787 29.0136 22.3384 28.9072 22.4447C28.8009 22.551 28.7412 22.6952 28.7412 22.8455V27.9475C28.7412 28.0979 28.8009 28.2421 28.9072 28.3484C29.0136 28.4547 29.1577 28.5144 29.3081 28.5144H29.7825C29.8362 28.5144 29.8887 28.4992 29.934 28.4706C29.9794 28.4419 30.0157 28.401 30.0387 28.3525C30.1765 28.0615 30.3941 27.8156 30.6662 27.6434C30.9383 27.4712 31.2537 27.3798 31.5756 27.3798C31.8976 27.3798 32.213 27.4712 32.4851 27.6434C32.7572 27.8156 32.9748 28.0615 33.1126 28.3525C33.1356 28.401 33.1719 28.4419 33.2172 28.4706C33.2626 28.4992 33.3151 28.5144 33.3688 28.5144H35.5439C35.6942 28.5144 35.8384 28.4547 35.9447 28.3484C36.051 28.2421 36.1107 28.0979 36.1107 27.9475V22.8455C36.1107 22.6952 36.051 22.551 35.9447 22.4447C35.8384 22.3384 35.6942 22.2787 35.5439 22.2787ZM31.5756 26.8138C31.3514 26.8138 31.1322 26.7473 30.9458 26.6227C30.7593 26.4981 30.614 26.321 30.5282 26.1139C30.4424 25.9067 30.4199 25.6787 30.4637 25.4588C30.5074 25.2389 30.6154 25.0368 30.7739 24.8783C30.9325 24.7197 31.1345 24.6117 31.3545 24.568C31.5744 24.5242 31.8024 24.5467 32.0095 24.6325C32.2167 24.7183 32.3938 24.8636 32.5183 25.0501C32.6429 25.2365 32.7094 25.4557 32.7094 25.68C32.7094 25.9807 32.59 26.2691 32.3773 26.4817C32.1647 26.6943 31.8763 26.8138 31.5756 26.8138ZM35.5439 27.9475H33.5396C33.416 27.7345 33.2585 27.543 33.0733 27.3806H34.6935C34.7687 27.3806 34.8408 27.3508 34.8939 27.2976C34.9471 27.2445 34.977 27.1724 34.977 27.0972V23.6959C34.977 23.6207 34.9471 23.5486 34.8939 23.4954C34.8408 23.4423 34.7687 23.4124 34.6935 23.4124H30.1584C30.0833 23.4124 30.0112 23.4423 29.958 23.4954C29.9048 23.5486 29.875 23.6207 29.875 23.6959V27.0972C29.875 27.1601 29.8958 27.2211 29.9343 27.2709C29.9728 27.3206 30.0267 27.3561 30.0876 27.3718C29.8981 27.5359 29.7373 27.7305 29.6117 27.9475H29.3081V22.8455H35.5439V27.9475Z" fill="#FEC240"/>
</g>
<g clip-path="url(#clip2_195_1053)">
<path d="M19.8173 40.3202L16.416 39.1864C16.3578 39.167 16.2949 39.167 16.2367 39.1864L12.8354 40.3202C12.779 40.339 12.7299 40.3751 12.6951 40.4233C12.6603 40.4716 12.6416 40.5296 12.6416 40.5891V43.4235C12.6416 43.4987 12.6715 43.5708 12.7246 43.6239C12.7778 43.6771 12.8499 43.707 12.925 43.707C13.0002 43.707 13.0723 43.6771 13.1255 43.6239C13.1786 43.5708 13.2085 43.4987 13.2085 43.4235V40.9824L14.3986 41.3788C14.0824 41.8897 13.9819 42.5051 14.119 43.09C14.2562 43.6749 14.6199 44.1815 15.1302 44.4985C14.4925 44.7486 13.9412 45.2011 13.538 45.8197C13.517 45.8508 13.5025 45.8859 13.4951 45.9227C13.4878 45.9596 13.4879 45.9975 13.4954 46.0343C13.5029 46.0711 13.5176 46.1061 13.5387 46.1371C13.5598 46.1682 13.5869 46.1948 13.6183 46.2153C13.6498 46.2358 13.685 46.2499 13.7219 46.2567C13.7589 46.2635 13.7968 46.2628 13.8335 46.2548C13.8702 46.2468 13.905 46.2316 13.9357 46.2101C13.9665 46.1885 13.9927 46.1611 14.0128 46.1293C14.5467 45.3102 15.3899 44.8407 16.3264 44.8407C17.2628 44.8407 18.106 45.3102 18.64 46.1293C18.6815 46.1911 18.7458 46.2341 18.8187 46.2489C18.8917 46.2637 18.9676 46.2492 19.03 46.2085C19.0924 46.1678 19.1362 46.1042 19.1521 46.0315C19.1679 45.9587 19.1545 45.8826 19.1147 45.8197C18.7115 45.2011 18.1581 44.7486 17.5225 44.4985C18.0324 44.1815 18.3957 43.6753 18.5328 43.0908C18.67 42.5063 18.5698 41.8913 18.2541 41.3806L19.8173 40.8598C19.8738 40.841 19.9229 40.8049 19.9577 40.7566C19.9925 40.7083 20.0112 40.6504 20.0112 40.5909C20.0112 40.5314 19.9925 40.4734 19.9577 40.4251C19.9229 40.3768 19.8738 40.3407 19.8173 40.3219V40.3202ZM18.027 42.5732C18.0271 42.8421 17.9634 43.1071 17.8412 43.3466C17.719 43.5861 17.5418 43.7932 17.3241 43.9509C17.1063 44.1087 16.8543 44.2125 16.5886 44.254C16.323 44.2954 16.0513 44.2733 15.7958 44.1895C15.5404 44.1056 15.3085 43.9623 15.1191 43.7715C14.9297 43.5806 14.7883 43.3476 14.7065 43.0915C14.6246 42.8354 14.6046 42.5635 14.6482 42.2982C14.6917 42.0329 14.7975 41.7817 14.957 41.5652L16.2367 41.9904C16.2949 42.0098 16.3578 42.0098 16.416 41.9904L17.6958 41.5652C17.9111 41.8571 18.0272 42.2104 18.027 42.5732Z" fill="#FEC240"/>
</g>
<g clip-path="url(#clip3_195_1053)">
<path d="M34.1267 38.8884H30.7253C30.4998 38.8884 30.2835 38.978 30.1241 39.1375C29.9646 39.297 29.875 39.5132 29.875 39.7388V45.9745C29.875 46.2 29.9646 46.4163 30.1241 46.5758C30.2835 46.7353 30.4998 46.8248 30.7253 46.8248H34.1267C34.3522 46.8248 34.5685 46.7353 34.7279 46.5758C34.8874 46.4163 34.977 46.2 34.977 45.9745V39.7388C34.977 39.5132 34.8874 39.297 34.7279 39.1375C34.5685 38.978 34.3522 38.8884 34.1267 38.8884ZM30.7253 39.4553H34.1267C34.2018 39.4553 34.2739 39.4852 34.3271 39.5383C34.3802 39.5915 34.4101 39.6636 34.4101 39.7388V40.0222H30.4419V39.7388C30.4419 39.6636 30.4717 39.5915 30.5249 39.5383C30.5781 39.4852 30.6502 39.4553 30.7253 39.4553ZM34.1267 46.258H30.7253C30.6502 46.258 30.5781 46.2281 30.5249 46.1749C30.4717 46.1218 30.4419 46.0497 30.4419 45.9745V45.6911H34.4101V45.9745C34.4101 46.0497 34.3802 46.1218 34.3271 46.1749C34.2739 46.2281 34.2018 46.258 34.1267 46.258Z" fill="#00887A"/>
</g>
<path d="M76.5021 32.835V37.5605H55.1013V8.93517H76.0932V13.6606H60.6901V20.6125H72.7763V25.2925H60.6901V32.835H76.5021Z" fill="#2D3030"/>
<path d="M78.9479 27.3826L84.1732 27.1554C84.4004 31.6082 87.6264 33.6075 91.6248 33.6075C95.1689 33.6075 97.4408 32.1989 97.4408 29.7907C97.4408 27.6098 95.7142 26.7919 92.7153 26.2012L87.2629 25.2016C82.8101 24.3837 79.7204 21.9301 79.7204 17.2047C79.7204 11.8431 83.946 8.38992 90.6252 8.38992C98.1223 8.38992 102.348 12.2521 102.439 18.6132L97.2136 18.795C97.0318 14.8874 94.4874 12.8427 90.5798 12.8427C87.2175 12.8427 85.3091 14.3422 85.3091 16.7958C85.3091 18.8859 86.8085 19.6129 89.3984 20.1127L94.6691 21.0668C100.303 22.1119 102.939 24.7927 102.939 29.4272C102.939 35.0614 98.0769 38.1057 91.6248 38.1057C84.2641 38.1057 78.9479 34.289 78.9479 27.3826Z" fill="#2D3030"/>
<path d="M113.027 23.0661H118.616C122.887 23.0661 124.75 21.4303 124.75 18.3406C124.75 15.2509 122.887 13.5243 118.616 13.5243H113.027V23.0661ZM113.027 27.7006V37.5605H107.393V8.93517H118.798C126.113 8.93517 130.293 12.3429 130.293 18.2952C130.293 24.2474 126.113 27.7006 118.798 27.7006H113.027Z" fill="#2D3030"/>
<path d="M139.573 33.0168H144.344C150.387 33.0168 153.795 29.3818 153.795 23.2024C153.795 17.1138 150.387 13.4789 144.344 13.4789H139.573V33.0168ZM133.894 37.5605V8.93517H144.708C153.931 8.93517 159.656 14.2967 159.656 23.2478C159.656 32.1989 153.931 37.5605 144.708 37.5605H133.894Z" fill="#2D3030"/>
<path d="M58.684 51.755H57.9698V45.2131H55.3281V44.6122H61.3597V45.2131H58.684V51.755ZM66.1586 51.755H65.4443V44.6122H66.1586V47.7528H70.6257V44.6122H71.34V51.755H70.6257V48.3537H66.1586V51.755ZM80.8794 51.1541V51.755H75.9362V44.6122H80.7774V45.2131H76.6278V47.7528H79.9497V48.3537H76.6278V51.1541H80.8794ZM94.4473 44.6122L96.148 50.9614H96.1933L97.7466 44.6122H98.4155L96.6015 51.755H95.7058L94.1299 45.7233H94.0845L92.4859 51.755H91.5902L89.7762 44.6122H90.4678L92.0551 50.9274H92.1004L93.7671 44.6122H94.4473ZM108.996 48.1836C108.996 50.3831 107.579 51.8911 105.493 51.8911C103.407 51.8911 101.99 50.3831 101.99 48.1836C101.99 45.9841 103.407 44.4762 105.493 44.4762C107.579 44.4762 108.996 45.9841 108.996 48.1836ZM108.248 48.1836C108.248 46.2902 107.171 45.0771 105.493 45.0771C103.815 45.0771 102.738 46.2902 102.738 48.1836C102.738 50.077 103.815 51.2902 105.493 51.2902C107.171 51.2902 108.248 50.077 108.248 48.1836ZM118.729 51.755H117.958C117.822 51.5623 117.72 51.0181 117.664 50.145C117.618 49.3627 117.244 48.7392 116.178 48.7392H113.956V51.755H113.253V44.6122H115.952C117.754 44.6122 118.616 45.4399 118.616 46.6757C118.616 47.7868 117.845 48.3423 116.972 48.4444C117.879 48.6145 118.299 49.1813 118.367 50.0203C118.457 51.0634 118.491 51.4942 118.729 51.755ZM113.956 48.1496H115.974C117.301 48.1496 117.879 47.6281 117.879 46.6757C117.879 45.7914 117.301 45.2131 115.974 45.2131H113.956V48.1496ZM123.037 44.6122H123.751V51.1541H127.855V51.755H123.037V44.6122ZM132.704 51.1541H134.472C136.354 51.1541 137.363 50.043 137.363 48.1836C137.363 46.3242 136.354 45.2131 134.472 45.2131H132.704V51.1541ZM131.989 51.755V44.6122H134.506C136.717 44.6122 138.112 45.9501 138.112 48.1836C138.112 50.4172 136.717 51.755 134.506 51.755H131.989ZM147.514 44.6122H148.229V51.755H147.514V44.6122ZM152.337 49.1927L152.983 49.136C153.04 50.5532 153.992 51.3355 155.296 51.3355C156.475 51.3355 157.212 50.814 157.212 49.9296C157.212 49.204 156.782 48.8185 155.75 48.6145L154.299 48.331C153.278 48.1269 152.575 47.5827 152.575 46.5056C152.575 45.3265 153.516 44.4762 155.024 44.4762C156.759 44.4762 157.791 45.4285 157.791 47.0385L157.133 47.0952C157.11 45.7914 156.339 45.0317 155.035 45.0317C153.902 45.0317 153.267 45.5873 153.267 46.483C153.267 47.2879 153.777 47.5487 154.718 47.7301L155.988 47.9795C157.246 48.229 157.893 48.7392 157.893 49.8729C157.893 51.1314 156.804 51.8911 155.296 51.8911C153.596 51.8911 152.337 50.9274 152.337 49.1927ZM62.5049 59.1836C62.5049 61.3831 61.0876 62.8911 59.0015 62.8911C56.9154 62.8911 55.4981 61.3831 55.4981 59.1836C55.4981 56.9841 56.9154 55.4762 59.0015 55.4762C61.0876 55.4762 62.5049 56.9841 62.5049 59.1836ZM61.7566 59.1836C61.7566 57.2902 60.6795 56.0771 59.0015 56.0771C57.3235 56.0771 56.2464 57.2902 56.2464 59.1836C56.2464 61.077 57.3235 62.2902 59.0015 62.2902C60.6795 62.2902 61.7566 61.077 61.7566 59.1836ZM67.6916 62.8911C66.1497 62.8911 64.8912 62.1428 64.8912 60.0566V55.6122H65.6055V60.1587C65.6055 61.5872 66.3764 62.2902 67.6916 62.2902C69.0068 62.2902 69.8004 61.5872 69.8004 60.17V55.6122H70.492V60.0566C70.492 62.1428 69.2335 62.8911 67.6916 62.8911ZM78.6837 62.755H77.9128C77.7767 62.5623 77.6747 62.0181 77.618 61.145C77.5726 60.3627 77.1985 59.7392 76.1327 59.7392H73.9105V62.755H73.2076V55.6122H75.906C77.7087 55.6122 78.5703 56.4399 78.5703 57.6757C78.5703 58.7868 77.7994 59.3423 76.9264 59.4444C77.8334 59.6145 78.2529 60.1813 78.3209 61.0203C78.4116 62.0634 78.4456 62.4942 78.6837 62.755ZM73.9105 59.1496H75.9287C77.2552 59.1496 77.8334 58.6281 77.8334 57.6757C77.8334 56.7914 77.2552 56.2131 75.9287 56.2131H73.9105V59.1496ZM84.2911 59.1836C84.2911 56.9841 85.8104 55.4762 87.7605 55.4762C89.7559 55.4762 90.9124 56.7007 91.0371 58.5487L90.3455 58.5827C90.2774 57.1315 89.3364 56.0771 87.7605 56.0771C86.1959 56.0771 85.0394 57.2675 85.0394 59.1836C85.0394 61.0997 86.1959 62.2902 87.7605 62.2902C89.3364 62.2902 90.2774 61.2357 90.3455 59.7845L91.0371 59.8185C90.9124 61.6666 89.7559 62.8911 87.7605 62.8911C85.8104 62.8911 84.2911 61.3831 84.2911 59.1836ZM93.5318 55.6122H94.2461V62.1541H98.3504V62.755H93.5318V55.6122ZM103.097 55.6122H103.868L106.884 62.755H106.124L105.16 60.4534H101.782L100.863 62.755H100.16L103.097 55.6122ZM103.426 56.3832L102.031 59.8525H104.911L103.471 56.3832H103.426ZM108.609 60.1927L109.255 60.136C109.312 61.5532 110.264 62.3355 111.568 62.3355C112.747 62.3355 113.484 61.814 113.484 60.9296C113.484 60.204 113.053 59.8185 112.022 59.6145L110.57 59.331C109.55 59.1269 108.847 58.5827 108.847 57.5056C108.847 56.3265 109.788 55.4762 111.296 55.4762C113.031 55.4762 114.062 56.4285 114.062 58.0385L113.405 58.0952C113.382 56.7914 112.611 56.0317 111.307 56.0317C110.173 56.0317 109.539 56.5873 109.539 57.483C109.539 58.2879 110.049 58.5487 110.99 58.7301L112.26 58.9795C113.518 59.229 114.164 59.7392 114.164 60.8729C114.164 62.1314 113.076 62.8911 111.568 62.8911C109.867 62.8911 108.609 61.9274 108.609 60.1927ZM116.192 60.1927L116.838 60.136C116.895 61.5532 117.847 62.3355 119.151 62.3355C120.33 62.3355 121.067 61.814 121.067 60.9296C121.067 60.204 120.636 59.8185 119.605 59.6145L118.153 59.331C117.133 59.1269 116.43 58.5827 116.43 57.5056C116.43 56.3265 117.371 55.4762 118.879 55.4762C120.614 55.4762 121.645 56.4285 121.645 58.0385L120.988 58.0952C120.965 56.7914 120.194 56.0317 118.89 56.0317C117.756 56.0317 117.122 56.5873 117.122 57.483C117.122 58.2879 117.632 58.5487 118.573 58.7301L119.843 58.9795C121.101 59.229 121.747 59.7392 121.747 60.8729C121.747 62.1314 120.659 62.8911 119.151 62.8911C117.45 62.8911 116.192 61.9274 116.192 60.1927ZM129.739 62.755H128.968C128.832 62.5623 128.729 62.0181 128.673 61.145C128.627 60.3627 128.253 59.7392 127.188 59.7392H124.965V62.755H124.262V55.6122H126.961C128.763 55.6122 129.625 56.4399 129.625 57.6757C129.625 58.7868 128.854 59.3423 127.981 59.4444C128.888 59.6145 129.308 60.1813 129.376 61.0203C129.466 62.0634 129.5 62.4942 129.739 62.755ZM124.965 59.1496H126.983C128.31 59.1496 128.888 58.6281 128.888 57.6757C128.888 56.7914 128.31 56.2131 126.983 56.2131H124.965V59.1496ZM138.844 59.1836C138.844 61.3831 137.427 62.8911 135.341 62.8911C133.255 62.8911 131.837 61.3831 131.837 59.1836C131.837 56.9841 133.255 55.4762 135.341 55.4762C137.427 55.4762 138.844 56.9841 138.844 59.1836ZM138.096 59.1836C138.096 57.2902 137.019 56.0771 135.341 56.0771C133.663 56.0771 132.586 57.2902 132.586 59.1836C132.586 61.077 133.663 62.2902 135.341 62.2902C137.019 62.2902 138.096 61.077 138.096 59.1836ZM148.01 59.1836C148.01 61.3831 146.593 62.8911 144.507 62.8911C142.421 62.8911 141.004 61.3831 141.004 59.1836C141.004 56.9841 142.421 55.4762 144.507 55.4762C146.593 55.4762 148.01 56.9841 148.01 59.1836ZM147.262 59.1836C147.262 57.2902 146.185 56.0771 144.507 56.0771C142.829 56.0771 141.752 57.2902 141.752 59.1836C141.752 61.077 142.829 62.2902 144.507 62.2902C146.185 62.2902 147.262 61.077 147.262 59.1836ZM154.24 62.755H153.639L151.236 56.2925H151.19V62.755H150.51V55.6122H151.689L153.968 61.7913H154.002L156.156 55.6122H157.324V62.755H156.599V56.2925H156.553L154.24 62.755Z" fill="#5B6060"/>
<defs>
<clipPath id="clip0_195_1053">
<rect width="9.07019" height="9.07019" fill="white" transform="translate(11.7913 20.8615)"/>
</clipPath>
<clipPath id="clip1_195_1053">
<rect width="9.07019" height="9.07019" fill="white" transform="translate(27.8909 20.8615)"/>
</clipPath>
<clipPath id="clip2_195_1053">
<rect width="9.07019" height="9.07019" fill="white" transform="translate(11.7913 38.3215)"/>
</clipPath>
<clipPath id="clip3_195_1053">
<rect width="9.07019" height="9.07019" fill="white" transform="translate(27.8909 38.3215)"/>
</clipPath>
</defs>
</svg>
