<svg width="104" height="104" viewBox="0 0 104 104" fill="none" xmlns="http://www.w3.org/2000/svg">
<g filter="url(#filter0_d_220_28021)">
<path d="M20 24C20 19.5817 23.5817 16 28 16H76C80.4183 16 84 19.5817 84 24V72C84 76.4183 80.4183 80 76 80H28C23.5817 80 20 76.4183 20 72V24Z" fill="#FFF9EC"/>
<path d="M65.98 44.4029C65.4414 43.84 64.8843 43.26 64.6743 42.75C64.48 42.2829 64.4686 41.5086 64.4571 40.7586C64.4357 39.3643 64.4129 37.7843 63.3143 36.6857C62.2157 35.5871 60.6357 35.5643 59.2414 35.5429C58.4914 35.5314 57.7171 35.52 57.25 35.3257C56.7414 35.1157 56.16 34.5586 55.5971 34.02C54.6114 33.0729 53.4914 32 52 32C50.5086 32 49.39 33.0729 48.4029 34.02C47.84 34.5586 47.26 35.1157 46.75 35.3257C46.2857 35.52 45.5086 35.5314 44.7586 35.5429C43.3643 35.5643 41.7843 35.5871 40.6857 36.6857C39.5871 37.7843 39.5714 39.3643 39.5429 40.7586C39.5314 41.5086 39.52 42.2829 39.3257 42.75C39.1157 43.2586 38.5586 43.84 38.02 44.4029C37.0729 45.3886 36 46.5086 36 48C36 49.4914 37.0729 50.61 38.02 51.5971C38.5586 52.16 39.1157 52.74 39.3257 53.25C39.52 53.7171 39.5314 54.4914 39.5429 55.2414C39.5643 56.6357 39.5871 58.2157 40.6857 59.3143C41.7843 60.4129 43.3643 60.4357 44.7586 60.4571C45.5086 60.4686 46.2829 60.48 46.75 60.6743C47.2586 60.8843 47.84 61.4414 48.4029 61.98C49.3886 62.9271 50.5086 64 52 64C53.4914 64 54.61 62.9271 55.5971 61.98C56.16 61.4414 56.74 60.8843 57.25 60.6743C57.7171 60.48 58.4914 60.4686 59.2414 60.4571C60.6357 60.4357 62.2157 60.4129 63.3143 59.3143C64.4129 58.2157 64.4357 56.6357 64.4571 55.2414C64.4686 54.4914 64.48 53.7171 64.6743 53.25C64.8843 52.7414 65.4414 52.16 65.98 51.5971C66.9271 50.6114 68 49.4914 68 48C68 46.5086 66.9271 45.39 65.98 44.4029ZM58.5229 45.38L50.5229 53.38C50.4167 53.4863 50.2907 53.5706 50.1519 53.6281C50.0132 53.6856 49.8645 53.7152 49.7143 53.7152C49.5641 53.7152 49.4154 53.6856 49.2766 53.6281C49.1379 53.5706 49.0119 53.4863 48.9057 53.38L45.4771 49.9514C45.2627 49.737 45.1422 49.4461 45.1422 49.1429C45.1422 48.8396 45.2627 48.5487 45.4771 48.3343C45.6916 48.1198 45.9824 47.9994 46.2857 47.9994C46.589 47.9994 46.8798 48.1198 47.0943 48.3343L49.7143 50.9557L56.9057 43.7629C57.0119 43.6567 57.138 43.5724 57.2767 43.515C57.4154 43.4575 57.5641 43.4279 57.7143 43.4279C57.8645 43.4279 58.0131 43.4575 58.1519 43.515C58.2906 43.5724 58.4167 43.6567 58.5229 43.7629C58.629 43.869 58.7133 43.9951 58.7707 44.1338C58.8282 44.2726 58.8578 44.4213 58.8578 44.5714C58.8578 44.7216 58.8282 44.8703 58.7707 45.009C58.7133 45.1478 58.629 45.2738 58.5229 45.38Z" fill="#FEC240"/>
</g>
<defs>
<filter id="filter0_d_220_28021" x="0" y="0" width="104" height="104" filterUnits="userSpaceOnUse" color-interpolation-filters="sRGB">
<feFlood flood-opacity="0" result="BackgroundImageFix"/>
<feColorMatrix in="SourceAlpha" type="matrix" values="0 0 0 0 0 0 0 0 0 0 0 0 0 0 0 0 0 0 127 0" result="hardAlpha"/>
<feOffset dy="4"/>
<feGaussianBlur stdDeviation="10"/>
<feComposite in2="hardAlpha" operator="out"/>
<feColorMatrix type="matrix" values="0 0 0 0 0 0 0 0 0 0 0 0 0 0 0 0 0 0 0.02 0"/>
<feBlend mode="normal" in2="BackgroundImageFix" result="effect1_dropShadow_220_28021"/>
<feBlend mode="normal" in="SourceGraphic" in2="effect1_dropShadow_220_28021" result="shape"/>
</filter>
</defs>
</svg>
