<svg width="301" height="14" viewBox="0 0 301 14" fill="none" xmlns="http://www.w3.org/2000/svg">
<path d="M33.7124 14C32.8605 14 32.1326 13.3657 32.0665 12.5226C31.992 11.6394 32.6703 10.8606 33.5801 10.7883C84.744 6.70951 136.487 4.5336 188.296 4.2847C164.492 3.78689 140.796 3.59419 117.406 3.39346C79.3266 3.08032 39.9487 2.75113 1.81975 6.4847C0.901675 6.57302 0.0993429 5.93068 0.00836276 5.04747C-0.0826174 4.16426 0.579089 3.3774 1.48889 3.28908C39.7998 -0.468574 79.2687 -0.139374 117.439 0.181793C177.205 0.679601 239.005 1.19347 299.498 6.69345C300.392 6.77374 301.062 7.53652 300.995 8.40367C300.929 9.27082 300.152 9.9292 299.267 9.88906C210.776 5.61754 121.475 6.99856 33.853 13.9839C33.8034 13.9839 33.762 13.9839 33.7124 13.9839V14Z" fill="#FEB61A"/>
</svg>
