<svg width="16" height="17" viewBox="0 0 16 17" fill="none" xmlns="http://www.w3.org/2000/svg">
<path d="M13.8556 12.5276L10 6.09949V2.54199H10.5C10.6326 2.54199 10.7598 2.48931 10.8536 2.39555C10.9473 2.30178 11 2.1746 11 2.04199C11 1.90938 10.9473 1.78221 10.8536 1.68844C10.7598 1.59467 10.6326 1.54199 10.5 1.54199H5.50001C5.36741 1.54199 5.24023 1.59467 5.14646 1.68844C5.05269 1.78221 5.00001 1.90938 5.00001 2.04199C5.00001 2.1746 5.05269 2.30178 5.14646 2.39555C5.24023 2.48931 5.36741 2.54199 5.50001 2.54199H6.00001V6.09949L2.14439 12.5276C2.05345 12.6792 2.00434 12.8522 2.00204 13.029C1.99974 13.2058 2.04435 13.38 2.13131 13.5339C2.21827 13.6878 2.34449 13.8159 2.49709 13.9052C2.64969 13.9944 2.82323 14.0416 3.00001 14.042H13C13.177 14.042 13.3507 13.995 13.5036 13.9059C13.6565 13.8168 13.7829 13.6887 13.8701 13.5347C13.9573 13.3807 14.0021 13.2064 13.9999 13.0295C13.9977 12.8525 13.9485 12.6794 13.8575 12.5276H13.8556ZM8.22564 9.84574C7.23126 9.34262 6.28501 9.07574 5.39939 9.04512L6.92876 6.49512C6.97553 6.41761 7.00017 6.32877 7.00001 6.23824V2.54199H9.00001V6.23824C8.99986 6.32877 9.0245 6.41761 9.07126 6.49512L11.46 10.4795C10.7125 10.6257 9.64314 10.5632 8.22564 9.84574Z" fill="#5B6060"/>
</svg>
