<svg width="89" height="88" viewBox="0 0 89 88" fill="none" xmlns="http://www.w3.org/2000/svg">
<g filter="url(#filter0_d_182_5155)">
<path d="M20.5 24C20.5 19.5817 24.0817 16 28.5 16H60.5C64.9183 16 68.5 19.5817 68.5 24V56C68.5 60.4183 64.9183 64 60.5 64H28.5C24.0817 64 20.5 60.4183 20.5 56V24Z" fill="white"/>
<path d="M51.1638 51.0371C49.8716 52.3036 48.4606 52.1036 47.1024 51.5037C45.6651 50.8904 44.3464 50.8638 42.83 51.5037C40.9311 52.3303 39.929 52.0903 38.7949 51.0371C32.3599 44.3313 33.3094 34.1192 40.6147 33.7459C42.3948 33.8393 43.6344 34.7325 44.6761 34.8125C46.2321 34.4925 47.7222 33.5726 49.3837 33.6926C51.3748 33.8526 52.8781 34.6525 53.8671 36.0923C49.7529 38.5853 50.7287 44.0646 54.5 45.5978C53.7484 47.5975 52.7726 49.5839 51.1506 51.0504L51.1638 51.0371ZM44.5442 33.666C44.3464 30.693 46.7332 28.24 49.476 28C49.8584 31.4396 46.3903 33.9992 44.5442 33.666Z" fill="black"/>
<path d="M21 24C21 19.8579 24.3579 16.5 28.5 16.5H60.5C64.6421 16.5 68 19.8579 68 24V56C68 60.1421 64.6421 63.5 60.5 63.5H28.5C24.3579 63.5 21 60.1421 21 56V24Z" stroke="#CCCFCF"/>
</g>
<defs>
<filter id="filter0_d_182_5155" x="0.5" y="0" width="88" height="88" filterUnits="userSpaceOnUse" color-interpolation-filters="sRGB">
<feFlood flood-opacity="0" result="BackgroundImageFix"/>
<feColorMatrix in="SourceAlpha" type="matrix" values="0 0 0 0 0 0 0 0 0 0 0 0 0 0 0 0 0 0 127 0" result="hardAlpha"/>
<feOffset dy="4"/>
<feGaussianBlur stdDeviation="10"/>
<feComposite in2="hardAlpha" operator="out"/>
<feColorMatrix type="matrix" values="0 0 0 0 0 0 0 0 0 0 0 0 0 0 0 0 0 0 0.02 0"/>
<feBlend mode="normal" in2="BackgroundImageFix" result="effect1_dropShadow_182_5155"/>
<feBlend mode="normal" in="SourceGraphic" in2="effect1_dropShadow_182_5155" result="shape"/>
</filter>
</defs>
</svg>
