<svg width="246" height="221" viewBox="0 0 246 221" fill="none" xmlns="http://www.w3.org/2000/svg">
<g clip-path="url(#clip0_14_2455)">
<path d="M0.290024 194.198H245.71" stroke="#263238" stroke-width="0.53285" stroke-linejoin="round"/>
<path d="M50.4472 182.837C50.4472 182.837 50.0635 181.292 49.147 179.176C48.9073 178.622 47.5218 176.72 47.2075 176.31C46.3176 175.153 45.3158 174.578 45.3158 174.578C45.3158 174.578 49.0671 176.038 50.4792 178.468C50.4792 178.468 50.3086 175.654 49.4241 173.47C48.5449 171.301 46.4135 169.287 46.4135 169.287C46.4135 169.287 49.7119 170.555 50.6284 172.036C51.5449 173.517 52.1736 176.912 52.1736 176.912C52.1736 176.912 51.5449 171.823 51.9125 169.494C52.2802 167.166 54.4755 162.509 54.4755 162.509C54.4755 162.509 54.1878 168.631 54.1878 171.594C54.1878 174.557 54.0066 176.038 54.0066 176.038C54.0066 176.038 54.2411 173.219 55.9462 172.244C57.2836 171.482 59.4257 172.031 59.4257 172.031C59.4257 172.031 57.4115 172.889 56.5909 174.466C55.5732 176.427 54.8592 179.235 55.2109 178.931C55.2109 178.931 56.8734 177.882 58.392 177.759C59.3298 177.679 60.5234 178.382 60.5234 178.382C60.5234 178.382 55.9409 179.443 55.392 182.826H50.4472V182.837Z" fill="#009587" stroke="#263238" stroke-width="0.53285" stroke-linecap="round" stroke-linejoin="round"/>
<path d="M54.742 181.484C54.742 181.484 54.9125 177.994 53.8041 176.971C52.6958 175.947 51.5129 176.32 50.996 177.397C50.4792 178.473 51.0813 180.972 51.0813 180.972C51.0813 180.972 51.8486 179.693 52.1896 179.693C52.5306 179.693 52.6159 181.478 52.6159 181.478" fill="#00887A"/>
<path d="M54.742 181.484C54.742 181.484 54.9125 177.994 53.8041 176.971C52.6958 175.947 51.5129 176.32 50.996 177.397C50.4792 178.473 51.0813 180.972 51.0813 180.972C51.0813 180.972 51.8486 179.693 52.1896 179.693C52.5306 179.693 52.6159 181.478 52.6159 181.478" stroke="#263238" stroke-width="0.53285" stroke-linecap="round" stroke-linejoin="round"/>
<path d="M52.1896 179.693C52.1896 179.693 52.9569 178.756 53.7242 179.182C54.4702 179.598 54.1505 180.375 54.1505 180.375" stroke="#263238" stroke-width="0.53285" stroke-linecap="round" stroke-linejoin="round"/>
<path d="M57.1238 199.052H48.7314L45.1293 196.585L48.7314 181.745H57.1238L60.5554 195.908L57.1238 199.052Z" fill="#C9C9C9" stroke="#263238" stroke-width="0.53285" stroke-linejoin="round"/>
<path d="M48.7314 181.745L55.0297 188.842L57.1238 181.745" stroke="#263238" stroke-width="0.53285" stroke-miterlimit="10"/>
<path d="M45.1293 196.584L56.0048 196.361L55.0297 188.842" stroke="#263238" stroke-width="0.53285" stroke-miterlimit="10"/>
<path d="M60.5554 195.908L56.0048 196.361L48.7314 199.052" stroke="#263238" stroke-width="0.53285" stroke-miterlimit="10"/>
<path d="M56.0048 196.361L57.1238 199.051" stroke="#263238" stroke-width="0.53285" stroke-miterlimit="10"/>
<path d="M140.909 193.851L100.482 196.606L129.357 202.931L166.758 198.252L140.909 193.851Z" fill="white" stroke="#263238" stroke-width="0.53285" stroke-linejoin="round"/>
<path d="M119.521 137.369C119.521 137.369 104.244 143.891 99.0271 145.943C93.8105 147.994 91.3861 149.854 90.4536 155.63C89.5211 161.406 86.5424 180.972 86.5424 180.972C86.5424 180.972 87.2884 185.629 91.3861 187.121C95.4837 188.613 97.3486 188.054 97.3486 188.054L98.0946 194.203H153.991L157.715 175.756L168.148 192.711L182.866 192.338C182.866 192.338 182.493 184.324 177.09 175.942C171.687 167.555 167.216 161.225 167.216 161.225C167.216 161.225 163.779 147.344 157.902 145.575C154.47 144.541 145.79 141.291 143.557 140.358C141.325 139.426 136.987 137.428 136.987 137.428L119.521 137.374V137.369Z" fill="white" stroke="#263238" stroke-width="0.53285" stroke-linejoin="round"/>
<path d="M167.216 161.22C167.216 161.22 163.779 147.339 157.902 145.57C154.47 144.536 145.79 141.286 143.557 140.353C141.319 139.421 136.987 137.422 136.987 137.422L119.521 137.369C119.521 137.369 104.244 143.891 99.0271 145.943C93.8105 147.994 91.3861 149.854 90.4536 155.63C90.1445 157.543 89.6117 160.974 89.0362 164.699C90.2937 164.235 91.9988 163.814 94.0397 163.852C98.4996 163.937 100.594 164.811 100.594 164.811L97.3486 188.043L98.0946 194.192H153.991L157.715 175.745L158.403 176.864C159.01 174.924 161.973 167.108 170.461 165.919C168.479 162.999 167.216 161.209 167.216 161.209V161.22Z" fill="#1DA599" stroke="#263238" stroke-width="0.53285" stroke-linecap="round" stroke-linejoin="round"/>
<path d="M139.263 138.978C139.263 138.978 140.126 144.435 139.119 150.616" stroke="#263238" stroke-width="0.53285" stroke-miterlimit="10"/>
<path d="M137.398 148.026C137.398 148.026 136.391 151.186 134.526 155.497" stroke="#263238" stroke-width="0.53285" stroke-miterlimit="10"/>
<path d="M157.651 174.317L158.658 161.097" stroke="#263238" stroke-width="0.53285" stroke-miterlimit="10"/>
<path d="M156.788 159.376V167.422" stroke="#263238" stroke-width="0.53285" stroke-miterlimit="10"/>
<path d="M117.378 129.696L117.496 140.422C117.496 140.422 118.993 152.763 127.876 153.802C136.758 154.841 136.987 137.422 136.987 137.422L135.144 130.042C135.144 130.042 133.529 134.886 126.261 133.618C118.993 132.349 117.378 129.696 117.378 129.696Z" fill="white" stroke="#263238" stroke-width="0.53285" stroke-miterlimit="10"/>
<path d="M132.106 133.692L132.144 133.096C130.801 133.724 128.909 134.076 126.261 133.612C118.993 132.344 117.378 129.691 117.378 129.691L117.496 140.417C117.496 140.417 117.709 142.154 118.439 144.376C121.14 141.648 132.106 133.687 132.106 133.687V133.692Z" fill="#263238" stroke="#263238" stroke-width="0.53285" stroke-linejoin="round"/>
<path d="M112.764 121.623C112.764 121.623 115.071 130.042 116.569 131.31C118.066 132.579 125.105 137.651 130.524 135.696C135.943 133.735 137.675 125.545 137.675 123.584C137.675 121.623 136.289 113.321 136.289 113.321C136.289 113.321 135.714 107.092 135.138 105.249C134.563 103.405 133.407 100.863 128.909 99.7124C124.412 98.5615 120.719 99.7124 119.334 100.634C117.949 101.556 111.379 112.282 111.379 112.282L112.764 121.623Z" fill="white" stroke="#263238" stroke-width="0.53285" stroke-linejoin="round"/>
<path d="M126.607 109.166L128.797 114.814L126.027 116.663" stroke="#263238" stroke-width="0.53285" stroke-miterlimit="10"/>
<path d="M119.915 121.853C119.915 121.853 120.837 118.624 123.261 118.624C125.686 118.624 125.915 121.277 125.915 121.277" stroke="#263238" stroke-width="0.53285" stroke-miterlimit="10"/>
<path d="M115.993 111.702L123.607 109.97" stroke="#263238" stroke-width="0.53285" stroke-miterlimit="10"/>
<path d="M127.183 107.78C127.183 107.78 128.222 104.087 131.68 104.668" stroke="#263238" stroke-width="0.53285" stroke-miterlimit="10"/>
<path d="M120.837 113.551C121.346 113.551 121.759 113.059 121.759 112.453C121.759 111.847 121.346 111.355 120.837 111.355C120.328 111.355 119.915 111.847 119.915 112.453C119.915 113.059 120.328 113.551 120.837 113.551Z" fill="#263238"/>
<path d="M130.183 110.78C130.692 110.78 131.105 110.288 131.105 109.682C131.105 109.076 130.692 108.584 130.183 108.584C129.674 108.584 129.261 109.076 129.261 109.682C129.261 110.288 129.674 110.78 130.183 110.78Z" fill="#263238"/>
<path d="M126.607 101.093L123.149 100.863C123.149 100.863 122.227 104.556 121.535 105.478C120.842 106.4 120.384 104.327 120.384 104.327C120.384 104.327 122.462 103.517 117.272 108.595C112.082 113.668 111.389 112.288 111.389 112.288C111.389 112.288 111.965 118.4 112.311 119.321C112.657 120.243 112.775 121.629 112.775 121.629C112.775 121.629 110.35 120.59 109.316 119.668C108.277 118.746 108.277 116.556 108.277 116.556C108.277 116.556 104.356 117.941 104.819 116.327C105.283 114.712 107.585 112.751 107.585 112.751C107.585 112.751 104.009 111.712 104.126 110.673C104.244 109.634 107.126 109.863 107.473 109.634C107.819 109.405 112.087 95.6788 116.355 95.4497C120.624 95.2205 123.043 96.3715 123.043 96.3715C123.043 96.3715 120.043 93.2597 122.004 93.606C123.964 93.9524 126.501 97.8741 126.618 98.2205C126.735 98.5668 129.501 94.0696 132.384 95.6841C135.266 97.2987 132.73 98.2205 132.73 98.2205C132.73 98.2205 135.495 99.9522 136.076 103.986C136.652 108.025 136.193 112.176 136.193 112.176C136.193 112.176 134.462 105.6 132.501 103.528C130.54 101.45 126.618 101.103 126.618 101.103L126.607 101.093Z" fill="#263238" stroke="#263238" stroke-width="0.53285" stroke-linejoin="round"/>
<path d="M112.764 121.623C112.764 121.623 110.11 119.779 109.189 121.16C108.267 122.54 108.267 123.925 110.92 125.886C113.574 127.847 114.379 127.271 114.379 127.271L112.764 121.618V121.623Z" fill="white" stroke="#263238" stroke-width="0.53285" stroke-linejoin="round"/>
<path d="M136.641 114.813C136.641 114.813 138.026 112.277 139.295 114.35C140.563 116.428 137.563 121.964 137.563 121.964L136.641 114.813Z" fill="white" stroke="#263238" stroke-width="0.53285" stroke-miterlimit="10"/>
<path d="M113.803 119.428C113.803 119.428 113.228 123.813 113.803 125.886C114.379 127.964 116.915 133.959 116.915 135.802C116.915 137.646 116.798 143.646 116.798 143.646C116.798 143.646 93.9597 167.752 90.0379 173.746C86.1162 179.741 85.9989 182.629 86.9261 184.819C87.8479 187.009 90.0379 193.467 92.926 193.467C95.814 193.467 103.881 188.16 105.15 185.624C106.418 183.087 122.68 146.411 122.68 146.411C122.68 146.411 124.641 144.914 124.988 143.065C125.334 141.221 124.758 135.104 124.758 135.104L127.412 135.914C127.412 135.914 128.105 139.26 129.027 139.372C129.948 139.49 130.295 136.948 130.295 136.948C130.295 136.948 130.87 133.49 130.524 133.143C130.178 132.797 128.446 130.607 128.446 130.607C128.446 130.607 127.524 127.841 126.948 127.032C126.373 126.222 124.758 126.456 124.758 126.456C124.758 126.456 123.719 125.417 122.915 125.646C122.105 125.875 117.032 128.412 117.032 128.412C117.032 128.412 115.881 124.607 115.993 123.797C116.11 122.987 115.647 121.261 115.3 120.451C114.954 119.641 114.608 118.373 113.803 119.412V119.428Z" fill="white" stroke="#263238" stroke-width="0.53285" stroke-linejoin="round"/>
<path d="M124.758 126.467L119.366 129.584" stroke="#263238" stroke-width="0.53285" stroke-miterlimit="10"/>
<path d="M128.451 130.618C128.451 130.618 126.799 129.136 125.787 129.472C124.774 129.808 121.844 131.838 121.844 131.838" stroke="#263238" stroke-width="0.53285" stroke-miterlimit="10"/>
<path d="M123.421 133.079C123.421 133.079 126.346 132.376 127.279 133.047C128.211 133.719 130.012 134.848 130.21 136.314" stroke="#263238" stroke-width="0.53285" stroke-miterlimit="10"/>
<path d="M129.101 186.727C129.101 186.727 123.219 186.45 122.755 187.372C122.297 188.293 121.098 193.073 120.917 194.085C120.73 195.098 122.206 195.375 123.032 194.453C123.858 193.531 126.25 190.499 126.25 190.499L129.101 186.727Z" fill="white" stroke="#263238" stroke-width="0.53285" stroke-linejoin="round"/>
<path d="M132.911 176.379L123.027 194.453L124.684 194.73L134.28 177.125C134.504 176.709 134.312 176.187 133.87 176.022C133.508 175.883 133.098 176.038 132.916 176.379H132.911Z" fill="white" stroke="#263238" stroke-width="0.53285" stroke-linejoin="round"/>
<path d="M180.058 182.933C180.058 182.933 182.066 184.372 183.074 185.949C184.081 187.526 185.802 193.563 185.802 196.148C185.802 198.732 166.987 199.163 161.957 199.163C156.927 199.163 143.712 197.155 143.712 197.155C143.712 197.155 138.112 198.593 135.954 198.593C133.796 198.593 129.634 198.593 128.339 198.162C127.044 197.73 124.604 197.298 124.604 197.298C124.604 197.298 122.307 198.306 121.588 197.442C120.869 196.579 123.027 193.563 123.885 191.842C124.748 190.121 129.773 185.235 131.355 184.659C132.938 184.084 145.721 189.258 145.721 189.258C145.721 189.258 157.928 187.675 163.102 185.81C168.271 183.945 171.862 183.514 173.013 183.514" fill="white"/>
<path d="M180.058 182.933C180.058 182.933 182.066 184.372 183.074 185.949C184.081 187.526 185.802 193.563 185.802 196.148C185.802 198.732 166.987 199.163 161.957 199.163C156.927 199.163 143.712 197.155 143.712 197.155C143.712 197.155 138.112 198.593 135.954 198.593C133.796 198.593 129.634 198.593 128.339 198.162C127.044 197.73 124.604 197.298 124.604 197.298C124.604 197.298 122.307 198.306 121.588 197.442C120.869 196.579 123.027 193.563 123.885 191.842C124.748 190.121 129.773 185.235 131.355 184.659C132.938 184.084 145.721 189.258 145.721 189.258C145.721 189.258 157.928 187.675 163.102 185.81C168.271 183.945 171.862 183.514 173.013 183.514" stroke="#263238" stroke-width="0.53285" stroke-linejoin="round"/>
<path d="M124.615 197.298C124.615 197.298 125.606 194.362 126.437 193.718C127.263 193.073 133.7 188.661 133.7 188.661" stroke="#263238" stroke-width="0.53285" stroke-miterlimit="10"/>
<path d="M127.535 197.762C127.535 197.762 129.282 195.556 130.94 194.821C132.597 194.085 135.538 192.796 135.538 192.796" stroke="#263238" stroke-width="0.53285" stroke-miterlimit="10"/>
<path d="M131.765 198.593C131.765 198.593 135.538 196.478 137.19 196.11" stroke="#263238" stroke-width="0.53285" stroke-miterlimit="10"/>
<path d="M185.312 210.135L147.778 202.409L199.027 200.443L231.003 205.121L185.312 210.135Z" fill="white" stroke="#263238" stroke-width="0.53285" stroke-linejoin="round"/>
<path d="M188.679 208.302L165.799 203.56L198.452 201.785L222.691 204.849L188.679 208.302Z" fill="#263238" stroke="#263238" stroke-width="0.53285" stroke-linejoin="round"/>
<path d="M195.803 170.763L185.312 210.135L231.003 205.121L242.529 168.631L195.803 170.763Z" fill="#C9C9C9" stroke="#263238" stroke-width="0.53285" stroke-linejoin="round"/>
<path d="M219.915 187.436C219.915 189.093 218.172 190.436 216.02 190.436C213.867 190.436 212.125 189.093 212.125 187.436C212.125 185.779 213.867 184.436 216.02 184.436C218.172 184.436 219.915 185.779 219.915 187.436Z" fill="#263238" stroke="#263238" stroke-width="0.53285" stroke-linejoin="round"/>
<path d="M237.446 184.729C227.785 190.073 218.774 190.217 209.125 193.729C195.937 198.524 185.317 210.135 185.317 210.135L231.009 205.121L237.446 184.734V184.729Z" fill="#263238" stroke="#263238" stroke-width="0.53285" stroke-linejoin="round"/>
<path d="M52.0937 202.984L48.9019 200.053L41.5806 202.051L37.5895 211.765L46.5041 216.028L53.1594 214.696L55.0244 207.907L52.0937 202.984Z" fill="white" stroke="#263238" stroke-width="0.53285" stroke-linejoin="round"/>
<path d="M52.0937 202.984L47.1702 203.117L42.3798 207.508L43.3123 213.497L49.9676 214.43L53.4258 208.707L48.1026 205.776L45.9712 207.641L51.5662 210.034" stroke="#263238" stroke-width="0.53285" stroke-linejoin="round"/>
<path d="M45.9713 207.641L43.4455 211.632L47.3034 212.165" stroke="#263238" stroke-width="0.53285" stroke-linejoin="round"/>
<path d="M48.9019 200.053L51.2998 200.586L53.964 202.851L56.2286 205.382C56.2286 205.382 57.4275 208.579 57.0279 209.106C56.6283 209.634 55.9622 211.771 55.9622 211.771L53.6976 212.57L55.0297 207.913L52.099 202.989L48.9019 200.059V200.053Z" fill="white" stroke="#263238" stroke-width="0.53285" stroke-linejoin="round"/>
<path d="M119.659 217.27L122.393 220.637L129.927 219.737L135.298 210.71L127.103 205.185L120.325 205.526L117.485 211.968L119.659 217.27Z" fill="white" stroke="#263238" stroke-width="0.53285" stroke-linejoin="round"/>
<path d="M119.659 217.27L124.551 217.861L129.938 214.216L129.89 208.158L123.448 206.261L119.185 211.414L124.018 215.09L126.4 213.561L121.22 210.369" stroke="#263238" stroke-width="0.53285" stroke-linejoin="round"/>
<path d="M126.4 213.561L129.485 209.98L125.75 208.888" stroke="#263238" stroke-width="0.53285" stroke-linejoin="round"/>
<path d="M122.393 220.637L120.101 219.758L117.799 217.131L115.934 214.296C115.934 214.296 115.22 210.961 115.689 210.492C116.164 210.023 117.133 208.014 117.133 208.014L119.489 207.556L117.49 211.968L119.664 217.27L122.393 220.637Z" fill="white" stroke="#263238" stroke-width="0.53285" stroke-linejoin="round"/>
<path d="M70.0614 199.217L63.5979 202.398V207.694C63.5979 208.014 63.8111 210.342 63.8111 210.342L69.3207 213.945L74.8304 213.518L78.6456 211.504L80.6598 208.536L81.6136 206.522C81.6136 206.522 81.8267 203.133 81.9333 202.813C82.0399 202.494 81.6136 200.058 81.6136 199.739C81.6136 199.419 80.1323 196.984 80.1323 196.984L76.5302 197.304L74.7292 197.09L70.0667 199.211L70.0614 199.217Z" fill="white" stroke="#263238" stroke-width="0.53285" stroke-linejoin="round"/>
<path d="M70.0614 199.217L74.0898 202.925L75.4698 206.634C75.4698 206.634 72.6084 209.916 72.1875 210.023C71.7612 210.13 69.5392 210.87 68.9051 210.55C68.271 210.231 64.4558 206.842 64.4558 206.842C64.4558 206.842 65.7293 203.24 66.0437 203.027C66.3581 202.813 70.0721 199.211 70.0721 199.211L70.0614 199.217Z" stroke="#263238" stroke-width="0.53285" stroke-linejoin="round"/>
<path d="M70.0614 199.217L74.7238 197.096L77.793 200.064L80.3347 204.305L79.9138 207.588L77.793 210.875L73.6635 212.25L68.8945 210.556L72.9175 210.129L75.4645 206.634L74.0844 202.925L70.0614 199.217Z" stroke="#263238" stroke-width="0.53285" stroke-linejoin="round"/>
<path d="M74.0844 202.925L69.5285 203.032L70.5889 206.213L70.4823 207.375L68.8945 210.556" stroke="#263238" stroke-width="0.53285" stroke-linejoin="round"/>
<path d="M97.8762 203.442L89.6596 211.957L90.5761 214.243L94.0716 216.523L100.615 218.346L104.718 214.85L103.961 208.92L103.807 206.634L104.569 205.419L99.5493 202.222L97.8762 203.442Z" fill="white" stroke="#263238" stroke-width="0.53285" stroke-linejoin="round"/>
<path d="M103.807 206.634L101.436 209.554L102.224 212.394L97.9667 214.131L96.7039 215.868C96.7039 215.868 91.6525 213.422 91.2582 213.188" stroke="#263238" stroke-width="0.53285" stroke-linejoin="round"/>
<path d="M96.7039 215.863L100.567 217.126L103.487 213.417L102.698 209.554" stroke="#263238" stroke-width="0.53285" stroke-linejoin="round"/>
<path d="M103.881 207.977L106.327 208.765L108.538 214.285C108.538 214.285 107.67 216.731 107.515 217.046C107.356 217.36 103.333 219.491 103.333 219.491L97.5724 220.36C97.5724 220.36 95.0467 219.651 94.9668 219.257C94.8869 218.863 88.7325 216.257 88.7325 216.257L90.5708 214.238L94.0716 216.518L100.61 218.346L104.718 214.845L103.881 207.971V207.977Z" fill="white" stroke="#263238" stroke-width="0.53285" stroke-linejoin="round"/>
<path d="M103.961 208.919L106.562 212.788L105.459 216.022L104.51 218.228L94.9668 219.257" stroke="#263238" stroke-width="0.53285" stroke-linejoin="round"/>
<path d="M13.5367 191.24H31.4937C33.769 191.24 35.618 193.089 35.618 195.364V196.574H13.5367V191.24Z" fill="#263238" stroke="#263238" stroke-width="0.53285" stroke-linejoin="round"/>
<path d="M36.721 137.331L21.9983 182.41" stroke="#263238" stroke-width="1.59855" stroke-linejoin="round"/>
<path d="M15.7427 191.24L21.9983 180.018L27.5186 191.24H15.7427Z" fill="#263238" stroke="#263238" stroke-width="0.53285" stroke-linejoin="round"/>
<path d="M24.3908 180.018C24.3908 178.697 23.3198 177.625 21.9983 177.625C20.6768 177.625 19.6058 178.697 19.6058 180.018C19.6058 181.339 20.6768 182.41 21.9983 182.41C23.3198 182.41 24.3908 181.339 24.3908 180.018Z" fill="#263238" stroke="#263238" stroke-width="0.53285" stroke-linejoin="round"/>
<path d="M39.2946 137.88C39.2946 136.559 38.2236 135.488 36.9021 135.488C35.5807 135.488 34.5096 136.559 34.5096 137.88C34.5096 139.202 35.5807 140.273 36.9021 140.273C38.2236 140.273 39.2946 139.202 39.2946 137.88Z" fill="#263238" stroke="#263238" stroke-width="0.53285" stroke-linejoin="round"/>
<path d="M36.9021 137.88L64.6849 131.625" stroke="#263238" stroke-width="1.59855" stroke-linejoin="round"/>
<path d="M84.7787 139.751L70.1839 149.55L64.8288 133.692L72.1235 128.79L84.7787 139.751Z" fill="#FEC240" stroke="#263238" stroke-width="0.53285" stroke-linecap="round" stroke-linejoin="round"/>
<path d="M68.8048 123.803L61.4578 128.738L64.8003 133.714L72.1474 128.779L68.8048 123.803Z" fill="white" stroke="#263238" stroke-width="0.53285" stroke-linejoin="round"/>
<path d="M76.9032 35.4667H15.1405V118.618H76.9032V35.4667Z" stroke="#263238" stroke-width="0.53285" stroke-miterlimit="10"/>
<path d="M74.3189 38.9514H17.7302V115.138H74.3189V38.9514Z" stroke="#263238" stroke-width="0.53285" stroke-miterlimit="10"/>
<path d="M60.7845 57.1696H31.2593V96.9202H60.7845V57.1696Z" stroke="#263238" stroke-width="0.53285" stroke-miterlimit="10"/>
<path d="M88.9722 48.6119C87.1925 40.5179 92.958 32.3706 101.846 30.4204C102.453 30.2872 103.055 30.1913 103.658 30.122C102.677 23.0671 107.276 16.3319 114.352 14.7759C117.021 14.1898 119.675 14.4243 122.062 15.3035C123.901 11.3231 127.508 8.22189 132.122 7.20947C136.161 6.31961 140.174 7.2148 143.35 9.36219C145.39 5.64289 149.062 2.75485 153.65 1.74776C159.82 0.394322 165.9 2.81346 169.267 7.42261C171.601 5.10472 174.745 3.34631 178.39 2.54704C187.374 0.575491 196.011 5.158 197.69 12.7884C198.254 15.3514 197.956 17.9304 196.976 20.3069C206.546 20.2536 214.821 25.6887 216.632 33.9266C217.959 39.9584 215.503 46.0809 210.67 50.4822C211.437 51.6225 212.002 52.9067 212.311 54.3081C213.734 60.7769 209.173 67.283 202.118 68.8282C199.89 69.3185 197.684 69.2545 195.665 68.7377C195.622 76.3095 189.921 83.2418 181.672 85.0589C175.747 86.359 169.912 84.7178 165.905 81.1477C164.104 84.2436 160.758 86.7213 156.575 87.6378C150.394 88.9966 144.426 86.4976 142.076 81.9204C141.495 82.1122 140.893 82.2827 140.275 82.4212C133.305 83.9505 126.698 81.0625 125.073 75.9205C123.091 77.4924 120.719 78.654 118.066 79.2348C108.986 81.2277 100.061 75.7233 98.1319 66.9313C97.5405 64.2511 97.6737 61.5762 98.3984 59.0931C93.7039 57.34 90.0646 53.5674 88.9776 48.6279L88.9722 48.6119Z" fill="#263238" stroke="#263238" stroke-width="0.53285" stroke-linejoin="round"/>
<path d="M152.424 100.986C156.279 100.986 159.404 99.063 159.404 96.691C159.404 94.3191 156.279 92.3962 152.424 92.3962C148.569 92.3962 145.444 94.3191 145.444 96.691C145.444 99.063 148.569 100.986 152.424 100.986Z" fill="#263238" stroke="#263238" stroke-width="0.53285" stroke-linejoin="round"/>
<path d="M147.591 109.58C149.963 109.58 151.886 108.459 151.886 107.076C151.886 105.693 149.963 104.572 147.591 104.572C145.219 104.572 143.296 105.693 143.296 107.076C143.296 108.459 145.219 109.58 147.591 109.58Z" fill="#263238" stroke="#263238" stroke-width="0.53285" stroke-linejoin="round"/>
<path d="M87.5176 47.5197C85.7378 39.4258 91.5033 31.2785 100.391 29.3283C100.999 29.195 101.601 29.0991 102.203 29.0299C101.222 21.9749 105.821 15.2397 112.897 13.6838C115.567 13.0976 118.22 13.3321 120.608 14.2113C122.446 10.2309 126.053 7.12972 130.668 6.11731C134.707 5.22745 138.719 6.12264 141.895 8.27002C143.936 4.55073 147.607 1.66268 152.195 0.655597C158.365 -0.697842 164.445 1.7213 167.813 6.33045C170.147 4.01255 173.29 2.25415 176.935 1.45487C185.919 -0.516673 194.556 4.06584 196.235 11.6962C196.8 14.2593 196.501 16.8383 195.521 19.2148C205.091 19.1561 213.366 24.5965 215.178 32.8344C216.505 38.8663 214.048 44.9887 209.215 49.3901C209.982 50.5304 210.547 51.8145 210.856 53.2159C212.279 59.6847 207.718 66.1908 200.663 67.7361C198.436 68.2263 196.23 68.1624 194.21 67.6455C194.167 75.2173 188.466 82.1497 180.217 83.9667C174.292 85.2668 168.457 83.6257 164.45 80.0556C162.649 83.1514 159.303 85.6292 155.12 86.5457C148.939 87.9044 142.971 85.4054 140.621 80.8282C140.041 81.02 139.438 81.1905 138.82 81.3291C131.851 82.8584 125.243 79.9703 123.618 74.8283C121.636 76.4002 119.265 77.5618 116.611 78.1426C107.531 80.1355 98.6062 74.6312 96.6772 65.8391C96.0858 63.1589 96.219 60.484 96.9437 58.0009C92.2493 56.2478 88.6099 52.4753 87.5229 47.5357L87.5176 47.5197Z" fill="white" stroke="#263238" stroke-width="0.53285" stroke-miterlimit="10"/>
<path d="M150.969 99.8937C154.824 99.8937 157.95 97.9709 157.95 95.599C157.95 93.227 154.824 91.3042 150.969 91.3042C147.114 91.3042 143.989 93.227 143.989 95.599C143.989 97.9709 147.114 99.8937 150.969 99.8937Z" fill="white" stroke="#263238" stroke-width="0.53285" stroke-miterlimit="10"/>
<path d="M146.131 108.488C148.503 108.488 150.426 107.367 150.426 105.984C150.426 104.601 148.503 103.479 146.131 103.479C143.759 103.479 141.836 104.601 141.836 105.984C141.836 107.367 143.759 108.488 146.131 108.488Z" fill="white" stroke="#263238" stroke-width="0.53285" stroke-miterlimit="10"/>
<path d="M165.298 31.0708C165.298 23.872 159.213 18.0906 151.907 18.5968C145.817 19.0178 140.845 23.904 140.334 29.9891C140.041 33.4527 141.165 36.6498 143.184 39.0742C145.028 41.2802 146.035 44.067 146.035 46.9444V48.6602H159.554V46.9444C159.554 44.0724 160.555 41.2856 162.399 39.0849C164.211 36.9162 165.303 34.1241 165.303 31.0762L165.298 31.0708Z" fill="#FEC240" stroke="#263238" stroke-width="0.53285" stroke-linecap="round" stroke-linejoin="round"/>
<path d="M159.554 48.655H146.035V52.0013H159.554V48.655Z" fill="white" stroke="#263238" stroke-width="0.53285" stroke-linecap="round" stroke-linejoin="round"/>
<path d="M146.035 52.0066H159.554V54.0154C159.554 54.7508 158.957 55.3529 158.216 55.3529H147.373C146.637 55.3529 146.035 54.7561 146.035 54.0154V52.0066Z" fill="white" stroke="#263238" stroke-width="0.53285" stroke-linecap="round" stroke-linejoin="round"/>
<path d="M147.74 55.3477H157.848V57.3565C157.848 58.0918 157.252 58.694 156.511 58.694H149.078C148.342 58.694 147.74 58.0972 147.74 57.3565V55.3477Z" fill="#263238" stroke="#263238" stroke-width="0.53285" stroke-linecap="round" stroke-linejoin="round"/>
<path d="M167.072 31.1346H172.8" stroke="#263238" stroke-width="0.53285" stroke-linecap="round" stroke-linejoin="round"/>
<path d="M132.25 31.1346H138.048" stroke="#263238" stroke-width="0.53285" stroke-linecap="round" stroke-linejoin="round"/>
<path d="M152.525 16.604V10.8599" stroke="#263238" stroke-width="0.53285" stroke-linecap="round" stroke-linejoin="round"/>
<path d="M162.91 20.7496L166.864 16.7959" stroke="#263238" stroke-width="0.53285" stroke-linecap="round" stroke-linejoin="round"/>
<path d="M138.186 45.4739L142.199 41.4615" stroke="#263238" stroke-width="0.53285" stroke-linecap="round" stroke-linejoin="round"/>
<path d="M142.028 20.6377L138.186 16.7959" stroke="#263238" stroke-width="0.53285" stroke-linecap="round" stroke-linejoin="round"/>
<path d="M166.864 45.4737L163.038 41.6478" stroke="#263238" stroke-width="0.53285" stroke-linecap="round" stroke-linejoin="round"/>
<path d="M203.364 34.9658C202.634 34.9658 201.931 34.8965 201.276 34.7633C200.146 38.3494 196.384 40.987 191.898 40.987C189.686 40.987 187.656 40.3369 186.026 39.2606C185.184 42.0101 182.738 43.9976 179.85 43.9976C177.351 43.9976 175.187 42.5056 174.1 40.3263C172.528 41.4666 170.594 42.1433 168.495 42.1433C163.923 42.1433 160.113 38.9568 159.202 34.71C156.351 34.5075 154.129 32.8824 154.129 30.9108C154.129 28.8007 156.671 27.0903 159.804 27.0903C160.177 27.0903 160.534 27.1169 160.886 27.1595C162.617 24.8683 165.372 23.3816 168.489 23.3816C170.344 23.3816 172.065 23.9145 173.525 24.8203C174.756 21.181 178.72 18.5167 183.431 18.5167C187.843 18.5167 191.599 20.8613 193.07 24.1436C195.697 24.4207 197.999 25.609 199.549 27.3301C200.636 26.8825 201.947 26.6214 203.354 26.6214C207.126 26.6214 210.19 28.4863 210.19 30.7936C210.19 33.1008 207.132 34.9658 203.354 34.9658H203.364Z" fill="#C9C9C9" stroke="#263238" stroke-width="0.53285" stroke-linejoin="round"/>
<path d="M151.699 50.9565C150.969 50.9565 150.266 50.8873 149.605 50.754C148.476 54.3401 144.714 56.9777 140.227 56.9777C138.016 56.9777 135.986 56.3277 134.355 55.2513C133.513 58.0008 131.067 59.9883 128.179 59.9883C125.68 59.9883 123.517 58.4963 122.43 56.317C120.858 57.4573 118.924 58.134 116.824 58.134C112.252 58.134 108.443 54.9476 107.531 50.7008C104.681 50.4983 102.459 48.8731 102.459 46.9015C102.459 44.7914 105 43.081 108.134 43.081C108.507 43.081 108.864 43.1076 109.215 43.1503C110.947 40.859 113.702 39.3724 116.819 39.3724C118.673 39.3724 120.394 39.9052 121.854 40.8111C123.085 37.1717 127.05 34.5074 131.76 34.5074C136.172 34.5074 139.929 36.852 141.399 40.1343C144.026 40.4114 146.328 41.5997 147.879 43.3208C148.966 42.8732 150.277 42.6121 151.683 42.6121C155.456 42.6121 158.52 44.4771 158.52 46.7843C158.52 49.0915 155.461 50.9565 151.683 50.9565H151.699Z" fill="#C9C9C9" stroke="#263238" stroke-width="0.53285" stroke-linejoin="round"/>
<path d="M152.669 25.6569C152.142 25.6569 151.635 25.6036 151.156 25.513C150.341 28.1027 147.618 30.0103 144.378 30.0103C142.779 30.0103 141.314 29.5414 140.131 28.7634C139.524 30.7509 137.755 32.1896 135.671 32.1896C133.865 32.1896 132.298 31.1133 131.515 29.536C130.38 30.3566 128.984 30.8522 127.465 30.8522C124.162 30.8522 121.407 28.5503 120.751 25.4757C118.689 25.3265 117.085 24.1543 117.085 22.7315C117.085 21.2076 118.924 19.9714 121.188 19.9714C121.455 19.9714 121.716 19.9874 121.972 20.0247C123.224 18.3675 125.217 17.2965 127.465 17.2965C128.803 17.2965 130.05 17.6801 131.105 18.3355C131.995 15.7086 134.861 13.7797 138.266 13.7797C141.458 13.7797 144.17 15.4741 145.231 17.8453C147.127 18.0478 148.79 18.9004 149.914 20.1472C150.703 19.8275 151.646 19.6357 152.664 19.6357C155.392 19.6357 157.603 20.9838 157.603 22.6516C157.603 24.3194 155.392 25.6675 152.664 25.6675L152.669 25.6569Z" fill="#C9C9C9" stroke="#263238" stroke-width="0.53285" stroke-linejoin="round"/>
<path d="M174.447 68.7484C173.919 68.7484 173.413 68.6952 172.933 68.6046C172.118 71.1942 169.395 73.1018 166.156 73.1018C164.557 73.1018 163.092 72.6329 161.909 71.855C161.301 73.8425 159.532 75.2812 157.449 75.2812C155.642 75.2812 154.076 74.2048 153.293 72.6276C152.158 73.4482 150.762 73.9437 149.243 73.9437C145.939 73.9437 143.184 71.6418 142.529 68.5673C140.467 68.4181 138.863 67.2458 138.863 65.8231C138.863 64.2991 140.701 63.0629 142.966 63.0629C143.232 63.0629 143.493 63.0789 143.749 63.1162C145.001 61.4591 146.994 60.388 149.243 60.388C150.58 60.388 151.827 60.7717 152.882 61.4271C153.772 58.8001 156.639 56.8712 160.044 56.8712C163.236 56.8712 165.948 58.5657 167.008 60.9369C168.905 61.1393 170.568 61.9919 171.692 63.2388C172.48 62.9191 173.424 62.7272 174.441 62.7272C177.17 62.7272 179.381 64.0753 179.381 65.7432C179.381 67.411 177.17 68.7591 174.441 68.7591L174.447 68.7484Z" fill="#C9C9C9" stroke="#263238" stroke-width="0.53285" stroke-linejoin="round"/>
</g>
<defs>
<clipPath id="clip0_14_2455">
<rect width="245.42" height="220.904" fill="white" transform="translate(0.289993)"/>
</clipPath>
</defs>
</svg>
