<svg width="89" height="88" viewBox="0 0 89 88" fill="none" xmlns="http://www.w3.org/2000/svg">
<g filter="url(#filter0_d_182_5152)">
<path d="M20.5 24C20.5 19.5817 24.0817 16 28.5 16H60.5C64.9183 16 68.5 19.5817 68.5 24V56C68.5 60.4183 64.9183 64 60.5 64H28.5C24.0817 64 20.5 60.4183 20.5 56V24Z" fill="white"/>
<path d="M56.5 40.0733C56.5 33.4055 51.1274 28 44.5 28C37.8726 28 32.5 33.4054 32.5 40.0733C32.5 46.0994 36.8882 51.0943 42.625 52V43.5633H39.5781V40.0733H42.625V37.4134C42.625 34.3875 44.4166 32.7161 47.1575 32.7161C48.4705 32.7161 49.8438 32.952 49.8438 32.952V35.9231H48.3306C46.8398 35.9231 46.375 36.8538 46.375 37.8086V40.0733H49.7031L49.1711 43.5633H46.375V52C52.1117 51.0943 56.5 46.0995 56.5 40.0733Z" fill="#1877F2"/>
<path d="M48.8447 43.6068L49.363 40.1942H46.121V37.9797C46.121 37.0459 46.5739 36.1359 48.026 36.1359H49.5V33.2306C49.5 33.2306 48.1623 33 46.8833 33C44.2132 33 42.468 34.6344 42.468 37.5932V40.1942H39.5V43.6068H42.468V51.8566C43.0723 51.9522 43.6829 52.0002 44.2945 52C44.9061 52.0002 45.5168 51.9522 46.121 51.8566V43.6068H48.8447Z" fill="white"/>
<path d="M21 24C21 19.8579 24.3579 16.5 28.5 16.5H60.5C64.6421 16.5 68 19.8579 68 24V56C68 60.1421 64.6421 63.5 60.5 63.5H28.5C24.3579 63.5 21 60.1421 21 56V24Z" stroke="#CCCFCF"/>
</g>
<defs>
<filter id="filter0_d_182_5152" x="0.5" y="0" width="88" height="88" filterUnits="userSpaceOnUse" color-interpolation-filters="sRGB">
<feFlood flood-opacity="0" result="BackgroundImageFix"/>
<feColorMatrix in="SourceAlpha" type="matrix" values="0 0 0 0 0 0 0 0 0 0 0 0 0 0 0 0 0 0 127 0" result="hardAlpha"/>
<feOffset dy="4"/>
<feGaussianBlur stdDeviation="10"/>
<feComposite in2="hardAlpha" operator="out"/>
<feColorMatrix type="matrix" values="0 0 0 0 0 0 0 0 0 0 0 0 0 0 0 0 0 0 0.02 0"/>
<feBlend mode="normal" in2="BackgroundImageFix" result="effect1_dropShadow_182_5152"/>
<feBlend mode="normal" in="SourceGraphic" in2="effect1_dropShadow_182_5152" result="shape"/>
</filter>
</defs>
</svg>
