<svg width="64" height="61" viewBox="0 0 64 61" fill="none" xmlns="http://www.w3.org/2000/svg">
<g clip-path="url(#clip0_14_2089)" filter="url(#filter0_d_14_2089)">
<path d="M37.1137 16.2566C35.0017 16.2566 33.1526 17.1794 32 18.7391C30.8474 17.1794 28.9983 16.2566 26.8864 16.2566C25.2052 16.2585 23.5935 16.9379 22.4048 18.1458C21.216 19.3536 20.5474 20.9912 20.5455 22.6994C20.5455 29.9735 31.1604 35.8613 31.6124 36.1045C31.7315 36.1696 31.8647 36.2037 32 36.2037C32.1353 36.2037 32.2685 36.1696 32.3876 36.1045C32.8397 35.8613 43.4546 29.9735 43.4546 22.6994C43.4527 20.9912 42.784 19.3536 41.5953 18.1458C40.4065 16.9379 38.7948 16.2585 37.1137 16.2566ZM32 34.421C30.1325 33.3154 22.1818 28.2786 22.1818 22.6994C22.1835 21.4321 22.6796 20.2172 23.5616 19.3211C24.4435 18.425 25.6392 17.9209 26.8864 17.9192C28.8756 17.9192 30.5457 18.9958 31.2432 20.725C31.3048 20.8774 31.4097 21.0079 31.5445 21.0996C31.6792 21.1914 31.8378 21.2404 32 21.2404C32.1622 21.2404 32.3208 21.1914 32.4556 21.0996C32.5903 21.0079 32.6952 20.8774 32.7568 20.725C33.4543 18.9927 35.1244 17.9192 37.1137 17.9192C38.3609 17.9209 39.5566 18.425 40.4385 19.3211C41.3204 20.2172 41.8166 21.4321 41.8182 22.6994C41.8182 28.2703 33.8655 33.3143 32 34.421Z" fill="white"/>
</g>
<defs>
<filter id="filter0_d_14_2089" x="0" y="0.256592" width="64" height="59.9518" filterUnits="userSpaceOnUse" color-interpolation-filters="sRGB">
<feFlood flood-opacity="0" result="BackgroundImageFix"/>
<feColorMatrix in="SourceAlpha" type="matrix" values="0 0 0 0 0 0 0 0 0 0 0 0 0 0 0 0 0 0 127 0" result="hardAlpha"/>
<feOffset dy="4"/>
<feGaussianBlur stdDeviation="10"/>
<feComposite in2="hardAlpha" operator="out"/>
<feColorMatrix type="matrix" values="0 0 0 0 0 0 0 0 0 0 0 0 0 0 0 0 0 0 0.02 0"/>
<feBlend mode="normal" in2="BackgroundImageFix" result="effect1_dropShadow_14_2089"/>
<feBlend mode="normal" in="SourceGraphic" in2="effect1_dropShadow_14_2089" result="shape"/>
</filter>
<clipPath id="clip0_14_2089">
<rect width="24" height="19.9518" fill="white" transform="translate(20 16.2566)"/>
</clipPath>
</defs>
</svg>
