<svg width="24" height="25" viewBox="0 0 24 25" fill="none" xmlns="http://www.w3.org/2000/svg">
<path d="M20 0.041992C22.2091 0.0419921 24 1.83285 24 4.04199L24 20.042C24 22.2511 22.2091 24.042 20 24.042L4 24.042C1.79086 24.042 -9.70792e-07 22.2511 -8.74228e-07 20.042L-1.74846e-07 4.04199C-7.8281e-08 1.83285 1.79086 0.0419912 4 0.0419913L20 0.041992Z" fill="#E9F6F5"/>
<path d="M13.1979 8.9675L16.5833 8.9675C16.6938 8.9675 16.7998 8.927 16.878 8.85489C16.9561 8.78278 17 8.68498 17 8.58301C17 8.48103 16.9561 8.38323 16.878 8.31112C16.7998 8.23902 16.6938 8.19851 16.5833 8.19851L13.1979 8.19851C13.1061 7.86768 12.8976 7.57445 12.6053 7.36505C12.313 7.15565 11.9534 7.04199 11.5833 7.04199C11.2133 7.04199 10.8537 7.15565 10.5614 7.36505C10.269 7.57445 10.0605 7.86768 9.96875 8.19851L7.41667 8.19851C7.30616 8.19851 7.20018 8.23902 7.12204 8.31112C7.0439 8.38323 7 8.48103 7 8.583C7 8.68498 7.0439 8.78278 7.12204 8.85489C7.20018 8.92699 7.30616 8.9675 7.41667 8.9675L9.96875 8.9675C10.0605 9.29833 10.269 9.59156 10.5614 9.80096C10.8537 10.0104 11.2133 10.124 11.5833 10.124C11.9534 10.124 12.313 10.0104 12.6053 9.80096C12.8976 9.59156 13.1061 9.29833 13.1979 8.9675ZM10.75 8.58301C10.75 8.43091 10.7989 8.28223 10.8904 8.15577C10.982 8.02931 11.1122 7.93075 11.2644 7.87254C11.4167 7.81434 11.5843 7.79911 11.7459 7.82878C11.9076 7.85845 12.056 7.93169 12.1726 8.03924C12.2891 8.14679 12.3685 8.28381 12.4007 8.43298C12.4328 8.58215 12.4163 8.73677 12.3532 8.87729C12.2902 9.0178 12.1833 9.13791 12.0463 9.2224C11.9093 9.3069 11.7482 9.352 11.5833 9.352C11.3623 9.352 11.1504 9.27098 10.9941 9.12677C10.8378 8.98255 10.75 8.78696 10.75 8.58301ZM15.6979 12.428L16.5833 12.428C16.6938 12.428 16.7998 12.3875 16.878 12.3154C16.9561 12.2433 17 12.1455 17 12.0435C17 11.9415 16.9561 11.8437 16.878 11.7716C16.7998 11.6995 16.6938 11.659 16.5833 11.659L15.6979 11.659C15.6061 11.3282 15.3976 11.0349 15.1053 10.8255C14.813 10.6161 14.4534 10.5025 14.0833 10.5025C13.7133 10.5025 13.3537 10.6161 13.0614 10.8255C12.769 11.0349 12.5605 11.3282 12.4687 11.659L7.41667 11.659C7.30616 11.659 7.20018 11.6995 7.12204 11.7716C7.0439 11.8437 7 11.9415 7 12.0435C7 12.1455 7.0439 12.2433 7.12204 12.3154C7.20018 12.3875 7.30616 12.428 7.41667 12.428L12.4687 12.428C12.5605 12.7588 12.769 13.0521 13.0614 13.2615C13.3537 13.4709 13.7133 13.5845 14.0833 13.5845C14.4534 13.5845 14.813 13.4709 15.1053 13.2615C15.3976 13.0521 15.6061 12.7588 15.6979 12.428ZM13.25 12.0435C13.25 11.8914 13.2989 11.7427 13.3904 11.6163C13.482 11.4898 13.6122 11.3912 13.7644 11.333C13.9167 11.2748 14.0843 11.2596 14.2459 11.2893C14.4076 11.3189 14.556 11.3922 14.6726 11.4997C14.7891 11.6073 14.8685 11.7443 14.9007 11.8935C14.9328 12.0426 14.9163 12.1973 14.8532 12.3378C14.7902 12.4783 14.6833 12.5984 14.5463 12.6829C14.4093 12.7674 14.2482 12.8125 14.0833 12.8125C13.8623 12.8125 13.6504 12.7315 13.4941 12.5873C13.3378 12.443 13.25 12.2475 13.25 12.0435ZM9.91667 17.042C10.2862 17.0417 10.6451 16.9283 10.9373 16.7195C11.2295 16.5108 11.4384 16.2185 11.5312 15.8885L16.5833 15.8885C16.6938 15.8885 16.7998 15.848 16.878 15.7759C16.9561 15.7038 17 15.606 17 15.504C17 15.402 16.9561 15.3042 16.878 15.2321C16.7998 15.16 16.6938 15.1195 16.5833 15.1195L11.5312 15.1195C11.4395 14.7887 11.231 14.4954 10.9386 14.286C10.6463 14.0766 10.2867 13.963 9.91667 13.963C9.5466 13.963 9.18705 14.0766 8.89471 14.286C8.60237 14.4954 8.39388 14.7887 8.30208 15.1195L7.41667 15.1195C7.30616 15.1195 7.20018 15.16 7.12204 15.2321C7.0439 15.3042 7 15.402 7 15.504C7 15.606 7.0439 15.7038 7.12204 15.7759C7.20018 15.848 7.30616 15.8885 7.41667 15.8885L8.30208 15.8885C8.39498 16.2185 8.60387 16.5108 8.89604 16.7195C9.18822 16.9283 9.54717 17.0417 9.91667 17.042ZM9.08333 15.504C9.08333 15.3519 9.13221 15.2032 9.22378 15.0768C9.31534 14.9503 9.44549 14.8517 9.59776 14.7935C9.75003 14.7353 9.91759 14.7201 10.0792 14.7498C10.2409 14.7794 10.3894 14.8527 10.5059 14.9602C10.6225 15.0678 10.7018 15.2048 10.734 15.354C10.7661 15.5031 10.7496 15.6578 10.6866 15.7983C10.6235 15.9388 10.5167 16.0589 10.3796 16.1434C10.2426 16.2279 10.0815 16.273 9.91667 16.273C9.69565 16.273 9.48369 16.192 9.32741 16.0478C9.17113 15.9035 9.08333 15.7079 9.08333 15.504Z" fill="#00887A"/>
</svg>
