<svg width="16" height="14" viewBox="0 0 16 14" fill="none" xmlns="http://www.w3.org/2000/svg">
<path d="M0.682811 6.55782L6.30781 0.932816C6.42509 0.81554 6.58415 0.749656 6.75 0.749656C6.91585 0.749656 7.07491 0.81554 7.19219 0.932816C7.30946 1.05009 7.37535 1.20915 7.37535 1.375C7.37535 1.54086 7.30946 1.69992 7.19219 1.81719L2.63359 6.375L14.875 6.375C15.0408 6.375 15.1997 6.44085 15.3169 6.55806C15.4342 6.67527 15.5 6.83424 15.5 7C15.5 7.16576 15.4342 7.32473 15.3169 7.44195C15.1997 7.55916 15.0408 7.625 14.875 7.625L2.63359 7.625L7.19219 12.1828C7.30946 12.3001 7.37535 12.4592 7.37535 12.625C7.37535 12.7909 7.30946 12.9499 7.19219 13.0672C7.07491 13.1845 6.91585 13.2504 6.75 13.2504C6.58415 13.2504 6.42509 13.1845 6.30781 13.0672L0.682811 7.44219C0.624701 7.38415 0.578602 7.31522 0.547149 7.23934C0.515696 7.16347 0.499508 7.08214 0.499508 7C0.499508 6.91787 0.515696 6.83654 0.547149 6.76067C0.578602 6.68479 0.624701 6.61586 0.682811 6.55782Z" fill="#00887A"/>
</svg>
