<svg width="89" height="88" viewBox="0 0 89 88" fill="none" xmlns="http://www.w3.org/2000/svg">
<g filter="url(#filter0_d_182_5147)">
<path d="M20.5 24C20.5 19.5817 24.0817 16 28.5 16H60.5C64.9183 16 68.5 19.5817 68.5 24V56C68.5 60.4183 64.9183 64 60.5 64H28.5C24.0817 64 20.5 60.4183 20.5 56V24Z" fill="white"/>
<path d="M56.2666 37.6498H55.3V37.6H44.5V42.4H51.2818C50.2924 45.1942 47.6338 47.2 44.5 47.2C40.5238 47.2 37.3 43.9762 37.3 40C37.3 36.0238 40.5238 32.8 44.5 32.8C46.3354 32.8 48.0052 33.4924 49.2766 34.6234L52.6708 31.2292C50.5276 29.2318 47.6608 28 44.5 28C37.873 28 32.5 33.373 32.5 40C32.5 46.627 37.873 52 44.5 52C51.127 52 56.5 46.627 56.5 40C56.5 39.1954 56.4172 38.41 56.2666 37.6498Z" fill="#FFC107"/>
<path d="M33.8835 34.4146L37.8261 37.306C38.8929 34.6648 41.4765 32.8 44.4999 32.8C46.3353 32.8 48.0051 33.4924 49.2765 34.6234L52.6707 31.2292C50.5275 29.2318 47.6607 28 44.4999 28C39.8907 28 35.8935 30.6022 33.8835 34.4146Z" fill="#FF3D00"/>
<path d="M44.5 52C47.5996 52 50.416 50.8138 52.5454 48.8848L48.8314 45.742C47.5862 46.6891 46.0645 47.2013 44.5 47.2C41.3788 47.2 38.7286 45.2098 37.7302 42.4324L33.817 45.4474C35.803 49.3336 39.8362 52 44.5 52Z" fill="#4CAF50"/>
<path d="M56.2666 37.6498H55.3V37.6H44.5V42.4H51.2818C50.8085 43.7298 49.956 44.8919 48.8296 45.7426L48.8314 45.7414L52.5454 48.8842C52.2826 49.123 56.5 46 56.5 40C56.5 39.1954 56.4172 38.41 56.2666 37.6498Z" fill="#1976D2"/>
<path d="M28.5 16.5H60.5C64.6421 16.5 68 19.8579 68 24V56C68 60.1421 64.6421 63.5 60.5 63.5H28.5C24.3579 63.5 21 60.1421 21 56V24C21 19.8579 24.3579 16.5 28.5 16.5Z" stroke="#CCCFCF"/>
</g>
<defs>
<filter id="filter0_d_182_5147" x="0.5" y="0" width="88" height="88" filterUnits="userSpaceOnUse" color-interpolation-filters="sRGB">
<feFlood flood-opacity="0" result="BackgroundImageFix"/>
<feColorMatrix in="SourceAlpha" type="matrix" values="0 0 0 0 0 0 0 0 0 0 0 0 0 0 0 0 0 0 127 0" result="hardAlpha"/>
<feOffset dy="4"/>
<feGaussianBlur stdDeviation="10"/>
<feComposite in2="hardAlpha" operator="out"/>
<feColorMatrix type="matrix" values="0 0 0 0 0 0 0 0 0 0 0 0 0 0 0 0 0 0 0.02 0"/>
<feBlend mode="normal" in2="BackgroundImageFix" result="effect1_dropShadow_182_5147"/>
<feBlend mode="normal" in="SourceGraphic" in2="effect1_dropShadow_182_5147" result="shape"/>
</filter>
</defs>
</svg>
