<svg width="73" height="72" viewBox="0 0 73 72" fill="none" xmlns="http://www.w3.org/2000/svg">
<path d="M0.333984 36C0.333984 16.1178 16.4517 0 36.334 0C56.2162 0 72.334 16.1178 72.334 36C72.334 55.8823 56.2162 72 36.334 72C16.4517 72 0.333984 55.8823 0.333984 36Z" fill="#FFA7A7"/>
<path d="M49.8724 23H22.7955C22.1427 23 21.5166 23.249 21.055 23.6923C20.5933 24.1356 20.334 24.7368 20.334 25.3636V46.6364C20.334 47.2632 20.5933 47.8644 21.055 48.3077C21.5166 48.751 22.1427 49 22.7955 49H24.8555C25.0885 49.0001 25.3166 48.9367 25.5135 48.8172C25.7104 48.6977 25.868 48.527 25.9678 48.3249C26.5663 47.1116 27.5112 46.0863 28.6927 45.3684C29.8741 44.6504 31.2435 44.2693 32.6417 44.2693C34.0398 44.2693 35.4092 44.6504 36.5907 45.3684C37.7721 46.0863 38.717 47.1116 39.3155 48.3249C39.4154 48.527 39.5729 48.6977 39.7698 48.8172C39.9667 48.9367 40.1949 49.0001 40.4278 49H49.8724C50.5253 49 51.1514 48.751 51.613 48.3077C52.0746 47.8644 52.334 47.2632 52.334 46.6364V25.3636C52.334 24.7368 52.0746 24.1356 51.613 23.6923C51.1514 23.249 50.5253 23 49.8724 23ZM32.6417 41.9091C31.668 41.9091 30.7162 41.6318 29.9066 41.1124C29.097 40.593 28.466 39.8547 28.0933 38.9909C27.7207 38.1271 27.6232 37.1766 27.8132 36.2596C28.0032 35.3426 28.472 34.5003 29.1605 33.8391C29.849 33.178 30.7262 32.7278 31.6812 32.5454C32.6362 32.363 33.6261 32.4566 34.5257 32.8144C35.4252 33.1722 36.1941 33.7781 36.7351 34.5555C37.276 35.3329 37.5648 36.2469 37.5648 37.1818C37.5648 38.4356 37.0461 39.638 36.1228 40.5245C35.1996 41.411 33.9474 41.9091 32.6417 41.9091ZM49.8724 46.6364H41.1694C40.6328 45.748 39.949 44.9497 39.1448 44.2727H46.1801C46.5066 44.2727 46.8196 44.1482 47.0504 43.9266C47.2812 43.7049 47.4109 43.4043 47.4109 43.0909V28.9091C47.4109 28.5957 47.2812 28.2951 47.0504 28.0734C46.8196 27.8518 46.5066 27.7273 46.1801 27.7273H26.4878C26.1614 27.7273 25.8484 27.8518 25.6175 28.0734C25.3867 28.2951 25.2571 28.5957 25.2571 28.9091V43.0909C25.2569 43.353 25.3475 43.6077 25.5146 43.815C25.6817 44.0222 25.9158 44.1703 26.1801 44.2358C25.3574 44.9203 24.6591 45.7316 24.114 46.6364H22.7955V25.3636H49.8724V46.6364Z" fill="white"/>
</svg>
