<svg width="72" height="72" viewBox="0 0 72 72" fill="none" xmlns="http://www.w3.org/2000/svg">
<path d="M0 36C0 16.1178 16.1178 0 36 0C55.8823 0 72 16.1178 72 36C72 55.8823 55.8823 72 36 72C16.1178 72 0 55.8823 0 36Z" fill="#FE8949"/>
<path d="M36 20C32.8355 20 29.7421 20.9384 27.1109 22.6965C24.4797 24.4546 22.4289 26.9534 21.2179 29.8771C20.0069 32.8007 19.6901 36.0177 20.3074 39.1214C20.9248 42.2251 22.4487 45.0761 24.6863 47.3137C26.9239 49.5513 29.7749 51.0752 32.8786 51.6926C35.9823 52.3099 39.1993 51.9931 42.1229 50.7821C45.0466 49.5711 47.5454 47.5203 49.3035 44.8891C51.0616 42.2579 52 39.1645 52 36C51.9955 31.7579 50.3084 27.6908 47.3088 24.6912C44.3092 21.6916 40.2421 20.0045 36 20ZM44.6154 37.2308H36C35.6736 37.2308 35.3605 37.1011 35.1297 36.8703C34.8989 36.6395 34.7692 36.3264 34.7692 36V27.3846C34.7692 27.0582 34.8989 26.7451 35.1297 26.5143C35.3605 26.2835 35.6736 26.1538 36 26.1538C36.3264 26.1538 36.6395 26.2835 36.8703 26.5143C37.1011 26.7451 37.2308 27.0582 37.2308 27.3846V34.7692H44.6154C44.9418 34.7692 45.2549 34.8989 45.4857 35.1297C45.7165 35.3605 45.8462 35.6736 45.8462 36C45.8462 36.3264 45.7165 36.6395 45.4857 36.8703C45.2549 37.1011 44.9418 37.2308 44.6154 37.2308Z" fill="white"/>
</svg>
