<svg width="44" height="44" viewBox="0 0 44 44" fill="none" xmlns="http://www.w3.org/2000/svg">
<path d="M32 22C32 22.221 31.9122 22.433 31.7559 22.5893C31.5996 22.7455 31.3877 22.8333 31.1667 22.8333H22.8333V31.1667C22.8333 31.3877 22.7455 31.5996 22.5893 31.7559C22.433 31.9122 22.221 32 22 32C21.779 32 21.567 31.9122 21.4107 31.7559C21.2545 31.5996 21.1667 31.3877 21.1667 31.1667V22.8333H12.8333C12.6123 22.8333 12.4004 22.7455 12.2441 22.5893C12.0878 22.433 12 22.221 12 22C12 21.779 12.0878 21.567 12.2441 21.4107C12.4004 21.2545 12.6123 21.1667 12.8333 21.1667H21.1667V12.8333C21.1667 12.6123 21.2545 12.4004 21.4107 12.2441C21.567 12.0878 21.779 12 22 12C22.221 12 22.433 12.0878 22.5893 12.2441C22.7455 12.4004 22.8333 12.6123 22.8333 12.8333V21.1667H31.1667C31.3877 21.1667 31.5996 21.2545 31.7559 21.4107C31.9122 21.567 32 21.779 32 22Z" fill="#5B6060"/>
</svg>
