<svg width="73" height="72" viewBox="0 0 73 72" fill="none" xmlns="http://www.w3.org/2000/svg">
<path d="M0.666016 36C0.666016 16.1178 16.7838 0 36.666 0C56.5483 0 72.666 16.1178 72.666 36C72.666 55.8823 56.5483 72 36.666 72C16.7838 72 0.666016 55.8823 0.666016 36Z" fill="#0EBDF6"/>
<path d="M51.8242 26.0212L37.0551 21.0636C36.8025 20.9788 36.5293 20.9788 36.2767 21.0636L21.5075 26.0212C21.2625 26.1035 21.0493 26.2613 20.8983 26.4724C20.7473 26.6834 20.666 26.937 20.666 27.1971V39.5911C20.666 39.9198 20.7957 40.2351 21.0265 40.4675C21.2573 40.6999 21.5704 40.8305 21.8968 40.8305C22.2232 40.8305 22.5362 40.6999 22.7671 40.4675C22.9979 40.2351 23.1275 39.9198 23.1275 39.5911V28.9168L28.2952 30.6504C26.9222 32.8841 26.4856 35.5752 27.0812 38.1328C27.6769 40.6904 29.2561 42.9055 31.4721 44.2916C28.7029 45.3853 26.309 47.3637 24.5583 50.0687C24.4672 50.205 24.404 50.3581 24.3722 50.5193C24.3405 50.6804 24.3408 50.8462 24.3733 51.0072C24.4057 51.1682 24.4696 51.321 24.5613 51.4569C24.6529 51.5928 24.7704 51.709 24.9071 51.7987C25.0437 51.8884 25.1966 51.9499 25.3571 51.9796C25.5175 52.0093 25.6822 52.0065 25.8415 51.9716C26.0009 51.9366 26.1518 51.8701 26.2854 51.7758C26.419 51.6816 26.5327 51.5616 26.6198 51.4228C28.9383 47.8409 32.5998 45.7881 36.6659 45.7881C40.732 45.7881 44.3935 47.8409 46.7119 51.4228C46.8925 51.6929 47.1713 51.8807 47.4882 51.9455C47.8051 52.0103 48.1346 51.9469 48.4055 51.769C48.6763 51.5911 48.8667 51.313 48.9356 50.9948C49.0045 50.6767 48.9462 50.344 48.7735 50.0687C47.0227 47.3637 44.6197 45.3853 41.8597 44.2916C44.0736 42.9055 45.6512 40.6919 46.2468 38.1362C46.8423 35.5805 46.4071 32.8912 45.0366 30.6581L51.8242 28.3807C52.0693 28.2985 52.2825 28.1407 52.4336 27.9296C52.5847 27.7186 52.666 27.465 52.666 27.2048C52.666 26.9447 52.5847 26.6911 52.4336 26.4801C52.2825 26.269 52.0693 26.1112 51.8242 26.029V26.0212ZM44.0504 35.8729C44.0508 37.0486 43.7743 38.2076 43.2437 39.2548C42.7131 40.302 41.9435 41.2076 40.998 41.8973C40.0526 42.587 38.9582 43.0412 37.8047 43.2225C36.6512 43.4038 35.4715 43.3071 34.3623 42.9404C33.2531 42.5736 32.246 41.9473 31.4238 41.1127C30.6015 40.2781 29.9874 39.2591 29.632 38.1393C29.2765 37.0194 29.1897 35.8307 29.3788 34.6705C29.5679 33.5104 30.0275 32.4119 30.7198 31.4653L36.2767 33.3244C36.5293 33.4092 36.8025 33.4092 37.0551 33.3244L42.612 31.4653C43.547 32.7419 44.0512 34.2866 44.0504 35.8729Z" fill="white"/>
</svg>
