<svg width="21" height="20" viewBox="0 0 21 20" fill="none" xmlns="http://www.w3.org/2000/svg">
<path d="M9.875 3.125V2.5C9.875 2.33424 9.94085 2.17527 10.0581 2.05806C10.1753 1.94085 10.3342 1.875 10.5 1.875C10.6658 1.875 10.8247 1.94085 10.9419 2.05806C11.0592 2.17527 11.125 2.33424 11.125 2.5V3.125C11.125 3.29076 11.0592 3.44973 10.9419 3.56694C10.8247 3.68415 10.6658 3.75 10.5 3.75C10.3342 3.75 10.1753 3.68415 10.0581 3.56694C9.94085 3.44973 9.875 3.29076 9.875 3.125ZM10.5 5C9.51109 5 8.54439 5.29324 7.72215 5.84265C6.8999 6.39206 6.25904 7.17295 5.8806 8.08658C5.50216 9.00021 5.40315 10.0055 5.59607 10.9755C5.789 11.9454 6.2652 12.8363 6.96447 13.5355C7.66373 14.2348 8.55464 14.711 9.52455 14.9039C10.4945 15.0969 11.4998 14.9978 12.4134 14.6194C13.327 14.241 14.1079 13.6001 14.6573 12.7779C15.2068 11.9556 15.5 10.9889 15.5 10C15.4986 8.67436 14.9713 7.40343 14.0339 6.46606C13.0966 5.5287 11.8256 5.00145 10.5 5ZM5.05781 5.44219C5.17509 5.55946 5.33415 5.62535 5.5 5.62535C5.66585 5.62535 5.82491 5.55946 5.94219 5.44219C6.05946 5.32491 6.12535 5.16585 6.12535 5C6.12535 4.83415 6.05946 4.67509 5.94219 4.55781L5.31719 3.93281C5.19991 3.81554 5.04085 3.74965 4.875 3.74965C4.70915 3.74965 4.55009 3.81554 4.43281 3.93281C4.31554 4.05009 4.24965 4.20915 4.24965 4.375C4.24965 4.54085 4.31554 4.69991 4.43281 4.81719L5.05781 5.44219ZM5.05781 14.5578L4.43281 15.1828C4.31554 15.3001 4.24965 15.4591 4.24965 15.625C4.24965 15.7909 4.31554 15.9499 4.43281 16.0672C4.55009 16.1845 4.70915 16.2503 4.875 16.2503C5.04085 16.2503 5.19991 16.1845 5.31719 16.0672L5.94219 15.4422C6.00026 15.3841 6.04632 15.3152 6.07775 15.2393C6.10917 15.1634 6.12535 15.0821 6.12535 15C6.12535 14.9179 6.10917 14.8366 6.07775 14.7607C6.04632 14.6848 6.00026 14.6159 5.94219 14.5578C5.88412 14.4997 5.81518 14.4537 5.73931 14.4223C5.66344 14.3908 5.58212 14.3747 5.5 14.3747C5.41788 14.3747 5.33656 14.3908 5.26069 14.4223C5.18482 14.4537 5.11588 14.4997 5.05781 14.5578ZM15.5 5.625C15.5821 5.62506 15.6634 5.60895 15.7393 5.57759C15.8152 5.54622 15.8841 5.50021 15.9422 5.44219L16.5672 4.81719C16.6845 4.69991 16.7503 4.54085 16.7503 4.375C16.7503 4.20915 16.6845 4.05009 16.5672 3.93281C16.4499 3.81554 16.2909 3.74965 16.125 3.74965C15.9591 3.74965 15.8001 3.81554 15.6828 3.93281L15.0578 4.55781C14.9703 4.64522 14.9107 4.75663 14.8865 4.87793C14.8624 4.99924 14.8748 5.12498 14.9221 5.23924C14.9695 5.35351 15.0496 5.45116 15.1525 5.51983C15.2554 5.58849 15.3763 5.6251 15.5 5.625ZM15.9422 14.5578C15.8249 14.4405 15.6659 14.3747 15.5 14.3747C15.3341 14.3747 15.1751 14.4405 15.0578 14.5578C14.9405 14.6751 14.8747 14.8341 14.8747 15C14.8747 15.1659 14.9405 15.3249 15.0578 15.4422L15.6828 16.0672C15.7409 16.1253 15.8098 16.1713 15.8857 16.2027C15.9616 16.2342 16.0429 16.2503 16.125 16.2503C16.2071 16.2503 16.2884 16.2342 16.3643 16.2027C16.4402 16.1713 16.5091 16.1253 16.5672 16.0672C16.6253 16.0091 16.6713 15.9402 16.7027 15.8643C16.7342 15.7884 16.7503 15.7071 16.7503 15.625C16.7503 15.5429 16.7342 15.4616 16.7027 15.3857C16.6713 15.3098 16.6253 15.2409 16.5672 15.1828L15.9422 14.5578ZM3.625 9.375H3C2.83424 9.375 2.67527 9.44085 2.55806 9.55806C2.44085 9.67527 2.375 9.83424 2.375 10C2.375 10.1658 2.44085 10.3247 2.55806 10.4419C2.67527 10.5592 2.83424 10.625 3 10.625H3.625C3.79076 10.625 3.94973 10.5592 4.06694 10.4419C4.18415 10.3247 4.25 10.1658 4.25 10C4.25 9.83424 4.18415 9.67527 4.06694 9.55806C3.94973 9.44085 3.79076 9.375 3.625 9.375ZM10.5 16.25C10.3342 16.25 10.1753 16.3158 10.0581 16.4331C9.94085 16.5503 9.875 16.7092 9.875 16.875V17.5C9.875 17.6658 9.94085 17.8247 10.0581 17.9419C10.1753 18.0592 10.3342 18.125 10.5 18.125C10.6658 18.125 10.8247 18.0592 10.9419 17.9419C11.0592 17.8247 11.125 17.6658 11.125 17.5V16.875C11.125 16.7092 11.0592 16.5503 10.9419 16.4331C10.8247 16.3158 10.6658 16.25 10.5 16.25ZM18 9.375H17.375C17.2092 9.375 17.0503 9.44085 16.9331 9.55806C16.8158 9.67527 16.75 9.83424 16.75 10C16.75 10.1658 16.8158 10.3247 16.9331 10.4419C17.0503 10.5592 17.2092 10.625 17.375 10.625H18C18.1658 10.625 18.3247 10.5592 18.4419 10.4419C18.5592 10.3247 18.625 10.1658 18.625 10C18.625 9.83424 18.5592 9.67527 18.4419 9.55806C18.3247 9.44085 18.1658 9.375 18 9.375Z" fill="#FEB61A"/>
</svg>
