<svg width="21" height="20" viewBox="0 0 21 20" fill="none" xmlns="http://www.w3.org/2000/svg">
<path d="M19.875 12.4999C19.875 12.6657 19.8092 12.8246 19.6919 12.9419C19.5747 13.0591 19.4158 13.1249 19.25 13.1249H1.75C1.58424 13.1249 1.42527 13.0591 1.30806 12.9419C1.19085 12.8246 1.125 12.6657 1.125 12.4999C1.125 12.3342 1.19085 12.1752 1.30806 12.058C1.42527 11.9408 1.58424 11.8749 1.75 11.8749H4.91016C4.88709 11.6674 4.87535 11.4587 4.875 11.2499C4.875 9.75807 5.46763 8.32733 6.52252 7.27244C7.57742 6.21754 9.00816 5.62491 10.5 5.62491C11.9918 5.62491 13.4226 6.21754 14.4775 7.27244C15.5324 8.32733 16.125 9.75807 16.125 11.2499C16.1246 11.4587 16.1129 11.6674 16.0898 11.8749H19.25C19.4158 11.8749 19.5747 11.9408 19.6919 12.058C19.8092 12.1752 19.875 12.3342 19.875 12.4999ZM16.75 14.9999H4.25C4.08424 14.9999 3.92527 15.0658 3.80806 15.183C3.69085 15.3002 3.625 15.4592 3.625 15.6249C3.625 15.7907 3.69085 15.9496 3.80806 16.0669C3.92527 16.1841 4.08424 16.2499 4.25 16.2499H16.75C16.9158 16.2499 17.0747 16.1841 17.1919 16.0669C17.3092 15.9496 17.375 15.7907 17.375 15.6249C17.375 15.4592 17.3092 15.3002 17.1919 15.183C17.0747 15.0658 16.9158 14.9999 16.75 14.9999ZM6.81562 4.6546C6.85235 4.72806 6.90319 4.79356 6.96524 4.84737C7.02728 4.90118 7.09932 4.94225 7.17723 4.96822C7.25515 4.99419 7.33741 5.00456 7.41933 4.99874C7.50126 4.99292 7.58123 4.97102 7.65469 4.93429C7.72815 4.89756 7.79365 4.84672 7.84746 4.78468C7.90127 4.72263 7.94234 4.6506 7.96831 4.57268C7.99428 4.49477 8.00465 4.4125 7.99883 4.33058C7.993 4.24866 7.9711 4.16868 7.93438 4.09522L7.30938 2.84522C7.2352 2.69687 7.10512 2.58406 6.94777 2.53161C6.79041 2.47915 6.61867 2.49136 6.47031 2.56554C6.32196 2.63972 6.20914 2.76979 6.15669 2.92714C6.10424 3.0845 6.11645 3.25624 6.19062 3.4046L6.81562 4.6546ZM2.09531 8.05929L3.34531 8.68429C3.49356 8.75847 3.66521 8.77071 3.82249 8.71833C3.97977 8.66596 4.10981 8.55324 4.18398 8.40499C4.25816 8.25674 4.27041 8.08509 4.21803 7.92781C4.16565 7.77053 4.05294 7.6405 3.90469 7.56632L2.65469 6.94132C2.58128 6.90459 2.50136 6.88268 2.41948 6.87684C2.33761 6.871 2.25539 6.88134 2.17751 6.90727C2.09963 6.93321 2.02762 6.97423 1.9656 7.02799C1.90357 7.08176 1.85274 7.14721 1.81602 7.22062C1.77929 7.29402 1.75738 7.37394 1.75153 7.45582C1.74569 7.53769 1.75603 7.61992 1.78197 7.6978C1.8079 7.77567 1.84892 7.84768 1.90269 7.90971C1.95645 7.97173 2.02191 8.02256 2.09531 8.05929ZM17.375 8.74991C17.4718 8.74993 17.5673 8.72747 17.6539 8.68429L18.9039 8.05929C18.9773 8.02256 19.0428 7.97173 19.0965 7.90971C19.1503 7.84768 19.1913 7.77567 19.2172 7.6978C19.2432 7.61992 19.2535 7.53769 19.2477 7.45582C19.2418 7.37394 19.2199 7.29402 19.1832 7.22062C19.1465 7.14721 19.0956 7.08176 19.0336 7.02799C18.9716 6.97423 18.8996 6.93321 18.8217 6.90727C18.7438 6.88134 18.6616 6.871 18.5797 6.87684C18.4979 6.88268 18.4179 6.90459 18.3445 6.94132L17.0945 7.56632C16.9688 7.62944 16.868 7.73316 16.8085 7.86069C16.749 7.98822 16.7343 8.13209 16.7667 8.26902C16.7992 8.40595 16.8769 8.52793 16.9873 8.6152C17.0977 8.70247 17.2343 8.74994 17.375 8.74991ZM13.3453 4.93429C13.4188 4.97107 13.4987 4.99301 13.5807 4.99886C13.6626 5.00471 13.7449 4.99435 13.8228 4.96838C13.9008 4.9424 13.9728 4.90132 14.0348 4.84748C14.0969 4.79364 14.1477 4.7281 14.1844 4.6546L14.8094 3.4046C14.8836 3.25624 14.8958 3.0845 14.8433 2.92714C14.7909 2.76979 14.678 2.63972 14.5297 2.56554C14.3813 2.49136 14.2096 2.47915 14.0522 2.53161C13.8949 2.58406 13.7648 2.69687 13.6906 2.84522L13.0656 4.09522C13.0288 4.16867 13.0069 4.24865 13.001 4.33059C12.9952 4.41252 13.0056 4.49481 13.0315 4.57273C13.0575 4.65066 13.0986 4.72271 13.1524 4.78474C13.2063 4.84678 13.2718 4.8976 13.3453 4.93429Z" fill="#FEB61A"/>
</svg>
