<svg width="44" height="44" viewBox="0 0 44 44" fill="none" xmlns="http://www.w3.org/2000/svg">
<path d="M31.1667 15.2308H27V14.4231C27 13.7804 26.7366 13.1641 26.2678 12.7097C25.7989 12.2553 25.163 12 24.5 12H19.5C18.837 12 18.2011 12.2553 17.7322 12.7097C17.2634 13.1641 17 13.7804 17 14.4231V15.2308H12.8333C12.6123 15.2308 12.4004 15.3159 12.2441 15.4673C12.0878 15.6188 12 15.8242 12 16.0385C12 16.2527 12.0878 16.4581 12.2441 16.6096C12.4004 16.7611 12.6123 16.8462 12.8333 16.8462H13.6667V31.3846C13.6667 31.813 13.8423 32.2239 14.1548 32.5269C14.4674 32.8298 14.8913 33 15.3333 33H28.6667C29.1087 33 29.5326 32.8298 29.8452 32.5269C30.1577 32.2239 30.3333 31.813 30.3333 31.3846V16.8462H31.1667C31.3877 16.8462 31.5996 16.7611 31.7559 16.6096C31.9122 16.4581 32 16.2527 32 16.0385C32 15.8242 31.9122 15.6188 31.7559 15.4673C31.5996 15.3159 31.3877 15.2308 31.1667 15.2308ZM18.6667 14.4231C18.6667 14.2089 18.7545 14.0034 18.9107 13.852C19.067 13.7005 19.279 13.6154 19.5 13.6154H24.5C24.721 13.6154 24.933 13.7005 25.0893 13.852C25.2455 14.0034 25.3333 14.2089 25.3333 14.4231V15.2308H18.6667V14.4231ZM28.6667 31.3846H15.3333V16.8462H28.6667V31.3846ZM20.3333 20.8846V27.3462C20.3333 27.5604 20.2455 27.7658 20.0893 27.9173C19.933 28.0688 19.721 28.1538 19.5 28.1538C19.279 28.1538 19.067 28.0688 18.9107 27.9173C18.7545 27.7658 18.6667 27.5604 18.6667 27.3462V20.8846C18.6667 20.6704 18.7545 20.465 18.9107 20.3135C19.067 20.162 19.279 20.0769 19.5 20.0769C19.721 20.0769 19.933 20.162 20.0893 20.3135C20.2455 20.465 20.3333 20.6704 20.3333 20.8846ZM25.3333 20.8846V27.3462C25.3333 27.5604 25.2455 27.7658 25.0893 27.9173C24.933 28.0688 24.721 28.1538 24.5 28.1538C24.279 28.1538 24.067 28.0688 23.9107 27.9173C23.7545 27.7658 23.6667 27.5604 23.6667 27.3462V20.8846C23.6667 20.6704 23.7545 20.465 23.9107 20.3135C24.067 20.162 24.279 20.0769 24.5 20.0769C24.721 20.0769 24.933 20.162 25.0893 20.3135C25.2455 20.465 25.3333 20.6704 25.3333 20.8846Z" fill="#5B6060"/>
</svg>
