<svg width="21" height="20" viewBox="0 0 21 20" fill="none" xmlns="http://www.w3.org/2000/svg">
<path d="M17.8172 10.442L12.1922 16.067C12.0749 16.1843 11.9159 16.2502 11.75 16.2502C11.5841 16.2502 11.4251 16.1843 11.3078 16.067C11.1905 15.9498 11.1247 15.7907 11.1247 15.6249C11.1247 15.459 11.1905 15.2999 11.3078 15.1827L15.8664 10.6249H3.625C3.45924 10.6249 3.30027 10.559 3.18306 10.4418C3.06585 10.3246 3 10.1656 3 9.99986C3 9.8341 3.06585 9.67513 3.18306 9.55792C3.30027 9.44071 3.45924 9.37486 3.625 9.37486H15.8664L11.3078 4.81705C11.1905 4.69977 11.1247 4.54071 11.1247 4.37486C11.1247 4.20901 11.1905 4.04995 11.3078 3.93267C11.4251 3.8154 11.5841 3.74951 11.75 3.74951C11.9159 3.74951 12.0749 3.8154 12.1922 3.93267L17.8172 9.55767C17.8753 9.61572 17.9214 9.68465 17.9529 9.76052C17.9843 9.8364 18.0005 9.91772 18.0005 9.99986C18.0005 10.082 17.9843 10.1633 17.9529 10.2392C17.9214 10.3151 17.8753 10.384 17.8172 10.442Z" fill="white"/>
</svg>
