<svg width="20" height="20" viewBox="0 0 20 20" fill="none" xmlns="http://www.w3.org/2000/svg">
<path d="M2.68281 9.55783L8.30781 3.93283C8.42509 3.81556 8.58415 3.74967 8.75 3.74967C8.91585 3.74967 9.07491 3.81556 9.19219 3.93283C9.30946 4.05011 9.37535 4.20917 9.37535 4.37502C9.37535 4.54087 9.30946 4.69993 9.19219 4.81721L4.63359 9.37502L16.875 9.37502C17.0408 9.37502 17.1997 9.44087 17.3169 9.55808C17.4342 9.67529 17.5 9.83426 17.5 10C17.5 10.1658 17.4342 10.3247 17.3169 10.442C17.1997 10.5592 17.0408 10.625 16.875 10.625L4.63359 10.625L9.19219 15.1828C9.30946 15.3001 9.37535 15.4592 9.37535 15.625C9.37535 15.7909 9.30946 15.9499 9.19219 16.0672C9.07491 16.1845 8.91585 16.2504 8.75 16.2504C8.58415 16.2504 8.42509 16.1845 8.30781 16.0672L2.68281 10.4422C2.6247 10.3842 2.5786 10.3152 2.54715 10.2394C2.5157 10.1635 2.49951 10.0822 2.49951 10C2.49951 9.91789 2.5157 9.83656 2.54715 9.76068C2.5786 9.68481 2.6247 9.61588 2.68281 9.55783Z" fill="#00887A"/>
</svg>
