<svg width="32" height="32" viewBox="0 0 32 32" fill="none" xmlns="http://www.w3.org/2000/svg">
<path d="M0 4C0 1.79086 1.79086 0 4 0H28C30.2091 0 32 1.79086 32 4V28C32 30.2091 30.2091 32 28 32H4C1.79086 32 0 30.2091 0 28V4Z" fill="#E9F6F5"/>
<path d="M20.7556 16.5788L12.4232 24.7602C12.3458 24.8363 12.2539 24.8965 12.1527 24.9377C12.0516 24.9788 11.9432 25 11.8337 25C11.7242 25 11.6158 24.9788 11.5147 24.9377C11.4135 24.8965 11.3216 24.8363 11.2442 24.7602C11.1668 24.6842 11.1054 24.594 11.0635 24.4947C11.0216 24.3953 11 24.2889 11 24.1814C11 24.0739 11.0216 23.9675 11.0635 23.8681C11.1054 23.7688 11.1668 23.6786 11.2442 23.6026L18.9881 16L11.2442 8.39743C11.0878 8.24391 11 8.0357 11 7.8186C11 7.60149 11.0878 7.39328 11.2442 7.23976C11.4005 7.08624 11.6126 7 11.8337 7C12.0548 7 12.2669 7.08624 12.4232 7.23976L20.7556 15.4212C20.8331 15.4971 20.8946 15.5874 20.9365 15.6867C20.9784 15.786 21 15.8925 21 16C21 16.1075 20.9784 16.214 20.9365 16.3133C20.8946 16.4126 20.8331 16.5029 20.7556 16.5788Z" fill="black"/>
</svg>
