<svg width="32" height="32" viewBox="0 0 32 32" fill="none" xmlns="http://www.w3.org/2000/svg">
<path d="M0 4C0 1.79086 1.79086 0 4 0H28C30.2091 0 32 1.79086 32 4V28C32 30.2091 30.2091 32 28 32H4C1.79086 32 0 30.2091 0 28V4Z" fill="#E9F6F5"/>
<path d="M20.7558 23.6026C20.8332 23.6786 20.8946 23.7688 20.9365 23.8681C20.9784 23.9675 21 24.0739 21 24.1814C21 24.2889 20.9784 24.3953 20.9365 24.4947C20.8946 24.594 20.8332 24.6842 20.7558 24.7602C20.6784 24.8363 20.5865 24.8965 20.4853 24.9377C20.3842 24.9788 20.2758 25 20.1663 25C20.0568 25 19.9484 24.9788 19.8473 24.9377C19.7461 24.8965 19.6542 24.8363 19.5768 24.7602L11.2444 16.5788C11.1669 16.5029 11.1054 16.4126 11.0635 16.3133C11.0216 16.214 11 16.1075 11 16C11 15.8925 11.0216 15.786 11.0635 15.6867C11.1054 15.5874 11.1669 15.4971 11.2444 15.4212L19.5768 7.23976C19.7331 7.08624 19.9452 7 20.1663 7C20.3874 7 20.5995 7.08624 20.7558 7.23976C20.9122 7.39328 21 7.60149 21 7.8186C21 8.0357 20.9122 8.24391 20.7558 8.39743L13.0119 16L20.7558 23.6026Z" fill="black"/>
</svg>
