<svg width="24" height="25" viewBox="0 0 24 25" fill="none" xmlns="http://www.w3.org/2000/svg">
<path d="M20.7835 19.2284L15 9.58625V4.25H15.75C15.9489 4.25 16.1397 4.17098 16.2804 4.03033C16.421 3.88968 16.5 3.69891 16.5 3.5C16.5 3.30109 16.421 3.11032 16.2804 2.96967C16.1397 2.82902 15.9489 2.75 15.75 2.75H8.25002C8.05111 2.75 7.86034 2.82902 7.71969 2.96967C7.57904 3.11032 7.50002 3.30109 7.50002 3.5C7.50002 3.69891 7.57904 3.88968 7.71969 4.03033C7.86034 4.17098 8.05111 4.25 8.25002 4.25H9.00002V9.58625L3.21658 19.2284C3.08018 19.4558 3.0065 19.7154 3.00306 19.9805C2.99961 20.2457 3.06652 20.507 3.19697 20.7379C3.32741 20.9688 3.51673 21.1609 3.74563 21.2948C3.97454 21.4287 4.23484 21.4995 4.50002 21.5H19.5C19.7654 21.5 20.0261 21.4295 20.2554 21.2959C20.4847 21.1622 20.6744 20.9701 20.8052 20.7391C20.936 20.5081 21.0031 20.2466 20.9998 19.9812C20.9965 19.7158 20.9228 19.4561 20.7863 19.2284H20.7835ZM12.3385 15.2056C10.8469 14.4509 9.42752 14.0506 8.09908 14.0047L10.3931 10.1797C10.4633 10.0634 10.5003 9.93016 10.5 9.79437V4.25H13.5V9.79437C13.4998 9.93016 13.5368 10.0634 13.6069 10.1797L17.19 16.1562C16.0688 16.3756 14.4647 16.2819 12.3385 15.2056Z" fill="#5B6060"/>
</svg>
