<svg width="24" height="24" viewBox="0 0 24 24" fill="none" xmlns="http://www.w3.org/2000/svg">
<path d="M17.4273 14.0365L17.2015 14.2335L17.2689 14.5255L18.5354 20.0193L18.5357 20.0206C18.5804 20.212 18.5677 20.4124 18.4991 20.5967C18.4305 20.7809 18.3091 20.9409 18.1501 21.0565C17.9911 21.1722 17.8015 21.2384 17.6051 21.2469C17.4089 21.2554 17.2144 21.2059 17.0462 21.1046C17.046 21.1045 17.0459 21.1044 17.0457 21.1043L12.2554 18.1988L11.9958 18.0414L11.7364 18.199L6.95674 21.1043C6.95652 21.1044 6.95629 21.1046 6.95606 21.1047C6.78783 21.2059 6.59351 21.2554 6.39735 21.2469C6.20093 21.2384 6.01136 21.1722 5.85236 21.0565C5.69336 20.9409 5.57198 20.7809 5.5034 20.5967C5.43481 20.4124 5.42206 20.212 5.46674 20.0206L5.46706 20.0192L6.73174 14.5311L6.79898 14.2393L6.57352 14.0423L2.34446 10.3467L2.34447 10.3467L2.34201 10.3446C2.19289 10.2159 2.08506 10.0462 2.03204 9.85652C1.97902 9.66687 1.98318 9.46579 2.04399 9.27849C2.1048 9.0912 2.21955 8.92602 2.37385 8.80369C2.52816 8.68135 2.71515 8.60729 2.91138 8.5908L2.91266 8.59069L8.48703 8.10788L8.78814 8.0818L8.905 7.80307L11.0809 2.61307L11.0813 2.61228C11.1569 2.43102 11.2845 2.27618 11.4479 2.16727C11.6114 2.05836 11.8034 2.00024 11.9998 2.00024C12.1962 2.00024 12.3883 2.05836 12.5517 2.16727L12.829 1.75117L12.5517 2.16727C12.7152 2.27618 12.8427 2.43102 12.9184 2.61228L12.9189 2.61356L15.1014 7.80356L15.2184 8.08182L15.5192 8.10788L21.0917 8.59069L21.093 8.5908C21.2892 8.60729 21.4762 8.68135 21.6305 8.80369L21.9411 8.41188L21.6305 8.80369C21.7848 8.92603 21.8995 9.0912 21.9603 9.27849C22.0212 9.46579 22.0253 9.66687 21.9723 9.85652C21.9269 10.0189 21.8413 10.1667 21.7241 10.2866L21.6554 10.3465L17.4273 14.0365Z" stroke="#999F9F"/>
</svg>
